<?xml version="1.0" encoding="UTF-8" standalone="no"?>
<!DOCTYPE svg PUBLIC "-//W3C//DTD SVG 1.1//EN" "http://www.w3.org/Graphics/SVG/1.1/DTD/svg11.dtd">
<svg xmlns="http://www.w3.org/2000/svg" version="1.1" viewBox="0 0 300 229" width="300.0pt" height="229.0pt">
<path d="M 0.00 0.00 L 219.29 0.00 C 198.30 1.50 179.18 7.45 159.17 13.33 C 135.45 20.07 111.72 24.80 87.01 20.88 C 77.95 19.55 69.31 16.81 60.74 13.66 C 70.70 31.83 81.02 49.82 91.11 67.91 C 100.40 70.52 110.60 71.97 120.19 70.32 C 134.69 68.82 149.31 62.66 162.36 56.36 C 179.60 47.97 197.54 38.26 216.07 33.17 C 224.52 30.79 233.24 29.55 242.00 29.29 C 249.07 29.27 256.07 30.28 262.97 31.54 C 247.89 23.88 230.86 20.60 213.99 21.83 C 201.19 22.51 189.03 25.43 176.67 28.57 C 190.77 21.05 205.66 14.42 221.16 10.40 C 236.74 6.36 252.74 5.99 268.46 9.56 C 257.81 4.12 246.53 1.53 234.73 0.13 L 233.81 0.00 L 300.00 0.00 L 300.00 96.24 C 298.77 93.69 297.35 91.50 294.65 90.37 C 289.64 88.47 284.04 91.82 283.48 97.16 C 282.89 102.01 287.02 106.64 292.00 106.10 C 296.19 106.22 298.18 103.31 300.00 100.03 L 300.00 229.00 L 159.62 229.00 C 161.80 227.81 164.51 226.71 165.11 224.03 C 165.57 221.93 164.50 220.20 163.62 218.40 C 154.29 200.75 145.32 182.88 135.86 165.31 C 131.87 165.39 127.88 165.35 123.89 165.34 C 131.92 183.06 140.54 200.56 148.80 218.18 C 150.95 222.28 151.71 226.29 155.79 229.00 L 0.00 229.00 L 0.00 93.99 C 2.22 94.68 4.95 94.80 6.88 96.11 C 8.97 97.62 8.69 100.73 8.82 103.00 C 8.77 113.49 8.93 123.98 8.70 134.47 C 8.51 138.07 8.54 141.98 7.42 145.43 C 6.45 147.81 2.69 147.95 0.57 148.89 C 0.57 149.87 0.63 150.85 0.74 151.82 C 8.46 151.30 16.15 151.56 23.86 151.72 C 23.86 150.85 23.84 149.97 23.80 149.10 C 21.84 147.69 18.45 148.28 16.48 146.50 C 15.32 145.44 15.12 143.51 14.87 142.04 C 13.97 134.80 14.33 127.29 14.25 120.00 C 14.35 115.03 13.96 109.95 14.58 105.05 C 18.26 108.61 21.21 112.58 24.43 116.54 C 34.00 128.70 44.32 140.35 53.28 152.97 C 55.11 152.53 56.81 151.94 58.53 151.17 C 58.24 138.78 58.44 126.39 58.38 114.00 C 58.47 108.86 58.38 103.47 59.48 98.43 C 60.12 95.02 64.15 94.89 66.80 93.89 C 66.79 92.97 66.77 92.04 66.76 91.12 C 61.83 90.83 56.93 91.39 52.00 91.12 C 49.12 90.97 46.25 90.94 43.38 91.17 C 43.35 92.07 43.32 92.97 43.29 93.87 C 45.52 94.59 48.00 94.85 50.10 95.86 C 52.28 97.08 52.23 100.85 52.56 103.02 C 53.18 112.22 52.95 121.53 52.81 130.75 C 51.66 129.72 50.52 128.68 49.52 127.50 C 42.94 119.74 36.27 112.05 29.78 104.21 C 26.37 100.01 22.99 96.03 20.88 90.98 C 13.91 91.40 6.97 90.98 0.00 90.97 L 0.00 0.00 Z" fill="#ffffff" />
<path d="M 219.29 0.00 L 233.81 0.00 L 234.73 0.13 C 246.53 1.53 257.81 4.12 268.46 9.56 C 252.74 5.99 236.74 6.36 221.16 10.40 C 205.66 14.42 190.77 21.05 176.67 28.57 C 189.03 25.43 201.19 22.51 213.99 21.83 C 230.86 20.60 247.89 23.88 262.97 31.54 C 256.07 30.28 249.07 29.27 242.00 29.29 C 233.24 29.55 224.52 30.79 216.07 33.17 C 197.54 38.26 179.60 47.97 162.36 56.36 C 149.31 62.66 134.69 68.82 120.19 70.32 C 110.60 71.97 100.40 70.52 91.11 67.91 C 81.02 49.82 70.70 31.83 60.74 13.66 C 69.31 16.81 77.95 19.55 87.01 20.88 C 111.72 24.80 135.45 20.07 159.17 13.33 C 179.18 7.45 198.30 1.50 219.29 0.00 Z" fill="#f26711" />
<path d="M 56.94 13.88 C 57.95 15.31 58.84 16.81 59.63 18.38 C 73.09 44.58 86.96 70.61 100.28 96.88 C 97.26 96.90 94.24 96.90 91.23 96.87 C 78.95 70.93 66.52 44.77 54.21 18.83 C 53.55 17.05 52.64 15.92 54.50 14.51 C 55.30 14.26 56.11 14.05 56.94 13.88 Z" fill="#777777" />
<path d="M 217.77 92.28 C 218.69 96.77 219.38 101.25 219.02 105.85 C 218.03 105.89 217.03 105.93 216.03 105.97 C 213.85 101.44 212.07 96.98 207.12 94.84 C 202.21 92.37 195.08 95.43 194.33 101.13 C 193.75 105.20 196.17 108.42 199.22 110.78 C 205.03 114.98 211.71 116.56 216.78 122.22 C 222.81 128.66 223.14 139.54 217.08 146.06 C 211.99 151.53 204.20 153.15 197.00 152.93 C 192.25 152.71 186.78 151.90 182.71 149.29 C 180.16 144.92 179.99 138.86 180.01 133.93 C 180.99 133.87 181.98 133.87 182.96 133.93 C 184.99 137.94 186.64 141.83 190.16 144.83 C 194.20 148.63 200.13 150.14 205.07 147.11 C 209.06 144.48 209.91 139.24 208.04 135.04 C 205.78 130.06 200.77 127.23 196.13 124.84 C 190.99 122.19 186.08 118.55 183.87 113.01 C 181.07 105.87 183.69 97.30 190.33 93.30 C 198.45 88.36 209.11 89.33 217.77 92.28 Z" fill="#777777" />
<path d="M 294.65 90.37 C 297.35 91.50 298.77 93.69 300.00 96.24 L 300.00 100.03 C 298.18 103.31 296.19 106.22 292.00 106.10 C 287.02 106.64 282.89 102.01 283.48 97.16 C 284.04 91.82 289.64 88.47 294.65 90.37 Z" fill="#777777" />
<path d="M 0.00 90.97 C 6.97 90.98 13.91 91.40 20.88 90.98 C 22.99 96.03 26.37 100.01 29.78 104.21 C 36.27 112.05 42.94 119.74 49.52 127.50 C 50.52 128.68 51.66 129.72 52.81 130.75 C 52.95 121.53 53.18 112.22 52.56 103.02 C 52.23 100.85 52.28 97.08 50.10 95.86 C 48.00 94.85 45.52 94.59 43.29 93.87 C 43.32 92.97 43.35 92.07 43.38 91.17 C 46.25 90.94 49.12 90.97 52.00 91.12 C 56.93 91.39 61.83 90.83 66.76 91.12 C 66.77 92.04 66.79 92.97 66.80 93.89 C 64.15 94.89 60.12 95.02 59.48 98.43 C 58.38 103.47 58.47 108.86 58.38 114.00 C 58.44 126.39 58.24 138.78 58.53 151.17 C 56.81 151.94 55.11 152.53 53.28 152.97 C 44.32 140.35 34.00 128.70 24.43 116.54 C 21.21 112.58 18.26 108.61 14.58 105.05 C 13.96 109.95 14.35 115.03 14.25 120.00 C 14.33 127.29 13.97 134.80 14.87 142.04 C 15.12 143.51 15.32 145.44 16.48 146.50 C 18.45 148.28 21.84 147.69 23.80 149.10 C 23.84 149.97 23.86 150.85 23.86 151.72 C 16.15 151.56 8.46 151.30 0.74 151.82 C 0.63 150.85 0.57 149.87 0.57 148.89 C 2.69 147.95 6.45 147.81 7.42 145.43 C 8.54 141.98 8.51 138.07 8.70 134.47 C 8.93 123.98 8.77 113.49 8.82 103.00 C 8.69 100.73 8.97 97.62 6.88 96.11 C 4.95 94.80 2.22 94.68 0.00 93.99 L 0.00 90.97 Z" fill="#f26711" />
<path d="M 145.00 90.97 C 152.30 90.87 161.25 90.73 167.95 94.05 C 175.09 97.49 177.44 108.04 171.83 113.83 C 169.47 116.42 166.48 116.70 163.68 118.57 C 167.35 119.78 170.77 120.59 173.73 123.26 C 180.94 129.54 179.80 142.67 171.66 147.69 C 166.41 151.02 159.06 151.58 153.00 151.82 C 143.92 151.78 134.90 151.18 125.80 151.82 C 125.56 150.83 125.49 149.85 125.60 148.88 C 127.94 147.71 132.39 148.11 132.85 144.92 C 133.69 139.72 133.18 134.26 133.32 129.00 C 133.16 119.01 133.66 108.93 133.02 98.97 C 132.91 95.18 128.89 95.81 126.23 94.78 C 126.22 93.92 126.21 93.06 126.20 92.20 C 132.47 91.57 138.68 90.84 145.00 90.97 Z" fill="#777777" />
<path d="M 253.99 91.19 C 263.18 92.19 271.70 93.70 278.59 100.40 C 290.18 111.46 289.40 132.06 277.77 142.78 C 271.75 148.38 264.05 150.82 256.00 151.62 C 246.27 152.75 236.77 150.98 227.00 151.62 C 224.99 151.52 222.33 152.14 220.50 151.32 C 220.43 150.41 220.03 148.72 221.39 148.61 C 223.72 147.73 227.55 148.22 228.01 145.00 C 228.77 140.43 228.32 135.62 228.43 131.00 C 228.25 120.35 228.81 109.58 228.13 98.97 C 227.75 95.16 224.73 95.54 221.84 94.76 C 221.83 93.85 221.82 92.94 221.80 92.03 C 232.56 91.16 243.19 90.51 253.99 91.19 Z" fill="#777777" />
<path d="M 290.31 91.33 C 293.38 90.50 297.32 92.88 298.17 95.96 C 299.21 99.37 297.55 102.94 294.31 104.36 C 289.96 106.41 284.67 102.73 284.82 98.00 C 284.80 94.66 287.18 92.16 290.31 91.33 Z" fill="#ffffff" />
<path d="M 288.72 92.88 C 290.54 93.15 293.74 92.29 294.68 94.33 C 295.60 96.26 294.28 97.33 293.21 98.74 C 294.10 100.21 294.94 101.70 295.72 103.23 C 293.31 102.77 292.91 99.95 291.07 98.70 C 289.60 98.73 290.38 101.90 290.09 102.94 L 288.73 102.98 C 288.66 99.61 288.66 96.25 288.72 92.88 Z" fill="#777777" />
<path d="M 290.18 94.01 C 292.04 93.84 293.44 94.27 293.57 96.32 C 292.97 97.35 291.33 97.43 290.28 97.86 C 290.21 96.58 290.18 95.30 290.18 94.01 Z" fill="#ffffff" />
<path d="M 160.75 102.16 C 162.24 106.70 161.84 112.68 157.64 115.67 C 154.36 117.83 149.76 118.03 146.03 117.07 C 146.06 110.20 145.49 103.08 146.31 96.27 C 151.08 93.30 159.26 96.68 160.75 102.16 Z" fill="#ffffff" />
<path d="M 246.97 95.17 C 253.03 95.49 258.74 96.46 263.65 100.30 C 269.09 104.64 271.46 111.24 271.98 118.00 C 272.60 125.82 271.20 134.84 266.11 141.08 C 261.68 146.57 254.28 148.74 247.46 147.44 C 245.29 146.88 243.30 145.77 242.45 143.59 C 241.60 141.24 241.61 138.47 241.55 136.00 C 241.57 126.33 241.57 116.67 241.56 107.00 C 241.60 103.28 241.27 99.86 242.11 96.19 C 243.68 95.71 245.30 95.15 246.97 95.17 Z" fill="#ffffff" />
<path d="M 111.76 105.92 C 111.72 108.92 111.74 111.92 111.86 114.92 C 115.28 114.92 118.71 114.94 122.13 114.98 C 122.27 116.64 122.12 118.20 121.84 119.83 C 118.49 119.94 115.14 119.97 111.79 119.94 C 111.58 126.60 111.48 133.36 111.82 140.02 C 112.05 143.24 113.45 146.03 116.96 146.40 C 119.63 146.96 122.15 143.53 123.63 147.02 C 119.22 151.71 112.04 153.86 105.82 152.21 C 102.04 151.15 100.02 147.78 99.84 144.01 C 99.58 136.09 99.88 128.13 99.70 120.20 C 97.92 120.03 96.15 119.86 94.38 119.68 C 94.32 118.92 94.26 118.16 94.21 117.40 C 98.50 115.37 102.57 113.39 105.78 109.79 C 107.91 107.74 108.22 105.30 111.76 105.92 Z" fill="#f26711" />
<path d="M 86.97 114.96 C 92.31 117.00 95.86 122.97 94.63 128.60 C 93.74 130.10 92.52 129.72 91.02 129.87 C 84.63 129.95 78.24 129.76 71.84 129.96 C 71.68 133.73 72.29 137.31 74.66 140.34 C 77.83 144.52 83.62 145.91 88.50 144.36 C 90.79 143.50 91.97 141.76 93.50 139.99 C 94.30 140.61 95.10 141.24 95.89 141.86 C 94.55 144.19 93.28 146.44 91.24 148.25 C 83.50 155.58 68.95 153.75 63.38 144.60 C 58.70 137.09 59.86 126.35 65.86 119.88 C 71.03 114.17 79.85 112.20 86.97 114.96 Z" fill="#f26711" />
<path d="M 77.35 118.38 C 81.71 116.40 86.01 120.61 83.92 124.88 C 81.11 126.58 76.45 125.78 73.26 125.63 C 70.82 123.62 75.10 118.98 77.35 118.38 Z" fill="#ffffff" />
<path d="M 146.24 122.21 C 151.21 120.96 157.73 121.55 161.25 125.77 C 164.84 130.01 165.04 136.97 162.97 141.92 C 160.80 147.52 152.76 149.52 148.24 145.76 C 145.07 142.29 146.17 135.39 145.92 131.00 C 145.94 128.11 145.76 125.06 146.24 122.21 Z" fill="#ffffff" />
<path d="M 123.89 165.34 C 127.88 165.35 131.87 165.39 135.86 165.31 C 145.32 182.88 154.29 200.75 163.62 218.40 C 164.50 220.20 165.57 221.93 165.11 224.03 C 164.51 226.71 161.80 227.81 159.62 229.00 L 155.79 229.00 C 151.71 226.29 150.95 222.28 148.80 218.18 C 140.54 200.56 131.92 183.06 123.89 165.34 Z" fill="#777777" />
</svg>