<?xml version="1.0" encoding="UTF-8" standalone="no"?>
<!DOCTYPE svg PUBLIC "-//W3C//DTD SVG 1.1//EN" "http://www.w3.org/Graphics/SVG/1.1/DTD/svg11.dtd">
<svg width="100%" height="100%" viewBox="0 0 686 823" version="1.1" xmlns="http://www.w3.org/2000/svg" xmlns:xlink="http://www.w3.org/1999/xlink" xml:space="preserve" xmlns:serif="http://www.serif.com/" style="fill-rule:evenodd;clip-rule:evenodd;stroke-linejoin:round;stroke-miterlimit:2;">
    <g id="g168" transform="matrix(7.63632,0,0,-7.63632,342.883,429.228)">
        <path id="path170" d="M0,0C-4.037,0 -7.322,-3.285 -7.322,-7.322C-7.322,-11.358 -4.037,-14.644 0,-14.644C4.037,-14.644 7.322,-11.358 7.322,-7.322C7.322,-3.285 4.037,0 0,0" style="fill:rgb(67,176,232);fill-rule:nonzero;"/>
    </g>
    <g id="g172" transform="matrix(7.63632,0,0,-7.63632,0,142.259)">
        <path id="path174" d="M0,0L7.611,-7.611C17.164,1.945 30.353,7.86 44.901,7.86C59.448,7.86 72.638,1.945 82.193,-7.611L89.804,0C78.301,11.503 62.416,18.629 44.901,18.629C27.388,18.629 11.506,11.503 0,0" style="fill:rgb(67,176,232);fill-rule:nonzero;"/>
    </g>
    <g id="g176" transform="matrix(7.63632,0,0,-7.63632,104.616,246.867)">
        <path id="path178" d="M0,0L7.611,-7.611C13.654,-1.568 22,2.177 31.201,2.177C40.405,2.177 48.75,-1.568 54.794,-7.611L62.405,0C54.411,7.994 43.373,12.946 31.201,12.946C19.029,12.946 7.994,7.994 0,0" style="fill:rgb(67,176,232);fill-rule:nonzero;"/>
    </g>
    <g id="g180" transform="matrix(7.63632,0,0,-7.63632,209.222,351.477)">
        <path id="path182" d="M0,0L7.611,-7.611C10.145,-5.077 13.643,-3.506 17.504,-3.506C21.365,-3.506 24.863,-5.077 27.397,-7.611L35.008,0C30.523,4.484 24.33,7.262 17.504,7.262C10.675,7.262 4.484,4.484 0,0" style="fill:rgb(67,176,232);fill-rule:nonzero;"/>
    </g>
    <g id="g184" transform="matrix(7.63632,0,0,-7.63632,548.798,335.141)">
        <path id="path186" d="M0,0C4.028,-5.516 6.415,-12.305 6.415,-19.644C6.415,-38.049 -8.561,-53.022 -26.966,-53.022C-45.371,-53.022 -60.347,-38.049 -60.347,-19.644C-60.347,-12.305 -57.96,-5.516 -53.929,0L-61.605,7.676C-67.552,0.153 -71.113,-9.334 -71.113,-19.644C-71.113,-43.985 -51.31,-63.791 -26.966,-63.791C-2.622,-63.791 17.184,-43.985 17.184,-19.644C17.184,-9.334 13.62,0.153 7.676,7.676L0,0Z" style="fill:rgb(7,35,66);fill-rule:nonzero;"/>
    </g>
</svg>
