<?xml version="1.0" encoding="UTF-8" standalone="no"?>
<!DOCTYPE svg PUBLIC "-//W3C//DTD SVG 1.1//EN" "http://www.w3.org/Graphics/SVG/1.1/DTD/svg11.dtd">
<svg width="100%" height="100%" viewBox="0 0 224 224" version="1.1" xmlns="http://www.w3.org/2000/svg" xmlns:xlink="http://www.w3.org/1999/xlink" xml:space="preserve" xmlns:serif="http://www.serif.com/" style="fill-rule:evenodd;clip-rule:evenodd;stroke-linejoin:round;stroke-miterlimit:2;">
    <g id="path907" transform="matrix(1,0,0,1,-16,-16)">
        <circle cx="128" cy="128" r="98" style="fill:white;"/>
    </g>
    <g id="path820-3-6" transform="matrix(1,0,0,1,-16,-16)">
        <path d="M128,16C66.559,16 16,66.559 16,128C16,189.441 66.559,240 128,240C189.441,240 240,189.441 240,128C240,66.559 189.441,16 128,16ZM128,30C128,30 128.001,30 128.001,30C181.762,30 226,74.239 226,128L226,128C226,181.761 181.762,226 128.001,226C128.001,226 128,226 128,226C99.72,225.953 72.802,213.668 54.237,192.335C61.298,187.228 72.877,188.532 87.109,190.139C94.044,190.949 101.942,191.855 110.117,192.037C132.941,192.182 157.524,187.967 172.676,181.339C182.479,177.079 188.735,174.243 192.654,170.678C194.064,169.51 194.796,167.614 195.558,165.574L196.093,164.225C196.727,162.571 197.657,159.086 198.067,157.176C198.231,156.334 198.424,155.511 197.728,154.973C197.092,154.481 195.63,155.363 195.63,155.363C188.976,159.367 172.344,166.952 156.793,167.276C137.486,167.665 98.367,147.732 94.314,145.626C91.602,139.167 88.89,132.705 86.138,126.262C114.125,144.702 137.34,154.896 155.11,156.468C174.892,158.23 190.311,147.436 197.004,142.945C197.88,142.363 198.755,141.711 199.559,141.084L199.563,141.084C199.706,140.972 200.042,140.676 199.998,140.404C198.889,133.47 188.559,99.846 180.74,91.759C178.585,89.557 176.86,87.384 173.367,85.34C145.082,68.858 77.977,58.91 74.834,58.455C74.834,58.455 74.517,58.39 74.299,58.603C74.129,58.769 74.095,59.089 74.095,59.089C74.095,59.089 73.838,72.992 73.798,74.546C71.264,73.695 62.803,70.952 50.85,67.758C69.374,43.988 97.864,30.045 128,30ZM148.426,86.851C148.902,86.843 149.38,86.848 149.86,86.863C165.677,87.429 178.107,100.781 177.564,116.581C177.266,124.246 174.058,131.36 168.467,136.562C162.859,141.829 155.56,144.537 147.855,144.278C132.055,143.696 119.64,130.371 120.169,114.557C120.454,106.892 123.661,99.778 129.266,94.56C134.523,89.652 141.281,86.966 148.426,86.851L148.426,86.851ZM148.615,95.309C143.621,95.371 138.922,97.25 135.277,100.668C131.389,104.315 129.097,109.256 128.935,114.605C128.563,125.659 137.216,134.956 148.245,135.362C153.608,135.524 158.72,133.627 162.631,129.981C166.536,126.317 168.783,121.378 168.954,116.049C169.326,104.998 160.672,95.711 149.619,95.319C149.283,95.307 148.948,95.305 148.615,95.309L148.615,95.309ZM152.895,105.37C157.806,105.37 161.785,108.013 161.785,111.302C161.785,114.559 157.803,117.216 152.895,117.216C147.983,117.216 144.017,114.559 144.017,111.302C144.017,108.013 147.983,105.37 152.895,105.37Z" style="fill:rgb(115,186,37);fill-rule:nonzero;"/>
    </g>
</svg>
