<?xml version="1.0" encoding="UTF-8" standalone="no"?>
<!DOCTYPE svg PUBLIC "-//W3C//DTD SVG 1.1//EN" "http://www.w3.org/Graphics/SVG/1.1/DTD/svg11.dtd">
<svg width="100%" height="100%" viewBox="0 0 108 100" version="1.1" xmlns="http://www.w3.org/2000/svg" xmlns:xlink="http://www.w3.org/1999/xlink" xml:space="preserve" xmlns:serif="http://www.serif.com/" style="fill-rule:evenodd;clip-rule:evenodd;stroke-linejoin:round;stroke-miterlimit:2;">
    <g transform="matrix(1,0,0,1,-107.012,-672.95)">
        <path d="M133.891,681.738L117.332,675.117L108.871,686.156L121.379,705.656L133.891,681.738" style="fill:rgb(254,213,54);fill-rule:nonzero;"/>
        <path d="M187.621,681.738L204.18,675.117L212.645,686.156L200.133,705.656L187.621,681.738" style="fill:rgb(254,213,54);fill-rule:nonzero;"/>
        <path d="M198.969,711.445L186.098,686.945C185.617,686.039 184.133,684.879 183.148,684.645L182.91,684.586L163.543,679.977C162.207,679.656 159.77,679.648 158.43,679.965L138.602,684.602L138.355,684.66C137.375,684.887 135.895,686.039 135.418,686.945L122.547,711.445L120.766,714.832C120.199,715.906 119.855,718.063 120.055,719.266L123.633,740.766C123.754,741.496 124.629,742.457 125.332,742.633L135.074,745.094C134.836,744.137 137.043,743.141 137.039,742.191L142,731.383C142.004,731.57 141.984,731.762 141.949,731.953L140.09,741.574C139.887,742.625 140.293,744.512 140.906,745.383L141.938,746.832L146.777,753.66L153.879,763.691C154.426,764.457 155.93,765.242 156.859,765.242L164.656,765.242C165.586,765.242 167.086,764.457 167.629,763.691L174.668,753.758L179.527,746.902L180.602,745.383C181.219,744.512 181.625,742.625 181.422,741.574L179.563,731.953C179.531,731.762 179.512,731.57 179.516,731.387L184.473,742.195C184.473,743.152 186.676,744.164 186.43,745.141L196.176,742.645C196.883,742.465 197.758,741.496 197.879,740.766L201.457,719.266C201.66,718.063 201.316,715.906 200.75,714.832L198.969,711.445" style="fill:rgb(254,202,3);fill-rule:nonzero;"/>
        <path d="M209.648,686.031C209.555,686.273 207.992,688.672 206.18,691.359C204.371,694.047 198.039,698.715 196.32,695.504L193.406,690.055C191.684,686.84 190.234,684.137 190.18,684.039C190.125,683.945 192.684,682.457 195.996,680.941L196.512,680.703C199.828,679.191 202.848,677.945 203.223,677.934C203.602,677.926 205.313,679.688 206.762,681.512C208.207,683.336 209.508,685.086 209.648,685.402L209.648,686.031ZM200.672,716.246C200.715,717.137 200.246,720.805 199.637,724.398L198.336,732.07C197.727,735.66 197.012,738.973 196.738,739.422C196.473,739.871 193.402,740.957 190.77,741.617C188.133,742.281 186.066,742.391 186.168,741.863C186.27,741.336 184.742,737.637 182.773,734.766C180.801,731.898 179.188,729.637 179.191,729.734C179.195,729.836 179.645,732.191 180.148,734.742C180.648,737.297 181.016,740.023 180.961,740.801C180.906,741.578 180.016,743.383 179.727,743.789C179.434,744.191 178.125,746.012 176.813,747.828C175.496,749.645 172.871,753.289 170.969,755.926C169.066,758.559 167.059,761.055 166.504,761.465C165.953,761.875 162.867,762.215 160.758,762.215C158.652,762.215 156.391,762.043 155.73,761.832C155.078,761.625 152.43,758.539 150.512,755.879C148.59,753.219 145.949,749.559 144.641,747.746C143.336,745.934 142.043,744.141 141.762,743.754C141.484,743.371 141.031,742.457 140.754,741.727C140.48,740.996 140.867,737.297 141.367,734.742C141.871,732.191 142.289,730.02 142.305,729.918C142.32,729.816 140.715,731.898 138.746,734.766C136.773,737.637 135.191,740.402 135.227,740.914C135.258,741.434 133.367,742.242 130.738,741.59C128.109,740.938 125.605,740.156 125.18,739.855C124.754,739.555 123.785,735.66 123.176,732.07L121.875,724.398C121.266,720.805 120.801,717.137 120.84,716.246C120.879,715.355 121.859,712.852 122.34,711.953C122.82,711.055 124.621,707.688 126.344,704.477L132.734,692.531C134.457,689.316 136.293,686.242 136.824,685.695C137.352,685.152 138.805,684.473 138.871,684.457C138.938,684.441 141.898,683.762 145.449,682.945L152.012,681.438C155.563,680.621 159.305,679.891 160.324,679.809C161.348,679.727 166.398,680.645 169.949,681.477L176.07,682.906C179.617,683.734 182.574,684.43 182.641,684.441C182.703,684.457 183.305,684.773 183.969,685.145C184.637,685.512 187.059,689.316 188.777,692.531L195.172,704.477C196.891,707.688 198.695,711.055 199.172,711.953C199.656,712.852 200.637,715.355 200.672,716.246ZM115.332,691.359C113.52,688.672 111.961,686.273 111.863,686.031L111.863,685.402C112.004,685.086 113.305,683.336 114.754,681.512C116.203,679.688 117.621,678.086 117.902,677.945C118.188,677.809 121.684,679.191 125,680.703L125.516,680.941C128.832,682.457 131.496,683.773 131.438,683.867C131.375,683.965 129.828,686.84 128.109,690.055L125.195,695.504C123.473,698.715 117.145,694.047 115.332,691.359ZM214.438,684.336C213.926,682.809 212.316,680.07 210.871,678.246C209.422,676.422 207.063,674.262 205.633,673.445C204.199,672.629 197.648,674.418 194.332,675.934L191.914,677.035C188.602,678.555 185.844,679.816 185.789,679.844C185.734,679.871 185.344,679.844 185.043,679.719C184.738,679.59 181.051,678.68 177.5,677.852L171.145,676.363C167.594,675.535 163.5,674.742 162.047,674.605C160.59,674.469 154.387,675.508 150.836,676.324L144.031,677.887C140.48,678.699 137.328,679.441 137.027,679.531C136.727,679.621 135.891,679.926 135.832,679.895C135.777,679.863 132.914,678.555 129.598,677.035L127.184,675.934C123.867,674.418 119.777,673.078 118.09,672.953C116.406,672.828 112.094,676.422 110.645,678.246C109.195,680.07 107.59,682.813 107.074,684.34C106.559,685.863 109.352,691.879 111.391,694.898L115.563,701.086C117.598,704.105 118.723,707.598 118.051,708.844C117.383,710.094 116.473,712.313 116.023,713.777C115.57,715.246 116.09,721.68 116.699,725.273L118,732.945C118.609,736.539 119.754,740.684 120.543,742.148C121.332,743.621 127.582,746.219 131.121,747.094L132.703,747.488C136.242,748.363 140.879,751.5 143.012,754.457L145.871,758.41C148,761.367 150.781,764.613 152.047,765.625C153.309,766.637 158.652,767.461 160.758,767.461C162.867,767.461 165.859,767.105 167.422,766.672C168.98,766.238 173.512,761.367 175.645,758.41L178.453,754.52C180.586,751.566 185.223,748.422 188.758,747.531L190.406,747.117C193.941,746.23 197.98,744.77 199.387,743.867C200.789,742.969 202.902,736.539 203.516,732.945L204.813,725.277C205.422,721.68 205.887,717.488 205.848,715.949C205.809,714.418 204.129,710.094 203.461,708.844C202.793,707.598 203.918,704.105 205.953,701.086L210.121,694.898C212.16,691.879 214.953,685.863 214.438,684.336" style="fill:rgb(34,30,31);fill-rule:nonzero;"/>
        <path d="M151.496,734.941C150.715,733.375 151.504,732.09 153.258,732.09L168.254,732.09C170.008,732.09 170.801,733.375 170.02,734.941L162.18,743.852C161.398,745.418 160.117,745.418 159.332,743.852L151.496,734.941" style="fill:rgb(34,30,31);fill-rule:nonzero;"/>
        <path d="M160.758,754.051C160.758,754.051 161.816,755.02 163.109,756.199L168.203,760.855C169.5,762.035 170.914,762.152 171.348,761.113C171.781,760.07 170.957,758.414 169.508,757.426L164.684,754.137C163.234,753.148 162.051,752.309 162.059,752.27C162.063,752.23 162.07,750.688 162.07,748.938L162.07,739.953C162.07,738.195 161.805,736.172 161.48,735.449L160.031,735.449C159.711,736.172 159.445,738.195 159.445,739.953L159.445,748.938C159.445,750.688 159.449,752.156 159.449,752.199C159.453,752.234 158.281,753.148 156.832,754.137L152.008,757.426C150.559,758.414 149.727,760.07 150.164,761.113C150.602,762.152 152.012,762.035 153.309,760.855L158.402,756.199C159.699,755.02 160.758,754.051 160.758,754.051" style="fill:rgb(34,30,31);fill-rule:nonzero;"/>
        <path d="M132.859,711.371C130.977,711.426 130.961,711.688 132.824,711.953L148.465,714.188C150.328,714.453 151.711,716.203 151.535,718.078L149.539,725.059C149.371,726.93 149.957,728.516 150.848,728.582C151.738,728.645 152.473,728.637 152.48,728.563C152.484,728.488 152.555,726.887 152.637,725.008L154.27,718.457C154.352,716.574 154.457,714.074 154.508,712.898C154.563,711.723 154.063,710.773 153.406,710.797C152.746,710.813 150.668,710.871 148.785,710.926L132.859,711.371" style="fill:rgb(34,30,31);fill-rule:nonzero;"/>
        <path d="M172.727,710.926C170.844,710.871 168.766,710.813 168.113,710.797C167.449,710.773 166.953,711.723 167.004,712.898C167.055,714.074 167.164,716.574 167.246,718.457L168.875,725.008C168.957,726.887 169.027,728.488 169.039,728.563C169.039,728.637 169.773,728.645 170.664,728.582C171.559,728.516 172.145,726.93 171.969,725.059L169.977,718.078C169.805,716.203 171.188,714.453 173.047,714.188L188.688,711.953C190.551,711.688 190.539,711.426 188.652,711.371L172.727,710.926" style="fill:rgb(34,30,31);fill-rule:nonzero;"/>
        <path d="M146.918,713.734C146.918,714.938 145.945,715.906 144.746,715.906C143.547,715.906 142.578,714.938 142.578,713.734C142.578,712.535 143.547,711.566 144.746,711.566C145.945,711.566 146.918,712.535 146.918,713.734" style="fill:rgb(34,30,31);fill-rule:nonzero;"/>
        <path d="M178.938,713.734C178.938,714.938 177.965,715.906 176.766,715.906C175.566,715.906 174.594,714.938 174.594,713.734C174.594,712.535 175.566,711.566 176.766,711.566C177.965,711.566 178.938,712.535 178.938,713.734" style="fill:rgb(34,30,31);fill-rule:nonzero;"/>
        <path d="M152.133,740.461C140.164,743.438 128.258,749.566 119.039,757.809C118.402,758.375 119.195,759.242 119.879,758.793C130.426,751.797 140.176,745.664 152.398,741.965C153.316,741.688 153.105,740.223 152.133,740.461" style="fill:rgb(34,30,31);fill-rule:nonzero;"/>
        <path d="M152.445,744.727C142.582,745.648 133.25,755.258 128.133,763.172C127.801,763.684 128.473,764.359 128.945,763.91C136.23,757.031 142.129,748.016 152.66,745.949C153.457,745.793 153.234,744.652 152.445,744.727" style="fill:rgb(34,30,31);fill-rule:nonzero;"/>
        <path d="M153.313,748.875C143.75,751.43 136.039,762.621 132.426,771.305C132.176,771.902 133.031,772.305 133.398,771.813C139.426,763.824 143.621,753.824 153.688,750.047C154.344,749.801 153.988,748.691 153.313,748.875" style="fill:rgb(34,30,31);fill-rule:nonzero;"/>
        <path d="M168.984,741.93C181.234,745.641 191.117,751.828 201.68,758.828C202.395,759.301 203.027,758.313 202.422,757.77C193.277,749.602 181.395,743.453 169.516,740.496C168.578,740.266 168.027,741.641 168.984,741.93" style="fill:rgb(34,30,31);fill-rule:nonzero;"/>
        <path d="M168.902,745.957C179.367,748.008 185.27,757.008 192.504,763.848C193.027,764.344 193.738,763.73 193.352,763.129C188.242,755.25 178.859,745.641 169.02,744.719C168.203,744.645 168.133,745.805 168.902,745.957" style="fill:rgb(34,30,31);fill-rule:nonzero;"/>
        <path d="M167.875,750.066C177.926,753.844 182.133,763.879 188.145,771.855C188.539,772.379 189.305,771.816 189.07,771.258C185.48,762.633 177.789,751.438 168.305,748.902C167.543,748.699 167.113,749.781 167.875,750.066" style="fill:rgb(34,30,31);fill-rule:nonzero;"/>
        <path d="M143.727,690.203C143.727,692.621 142.156,694.586 140.223,694.586C138.285,694.586 136.715,692.621 136.715,690.203C136.715,687.781 138.285,685.816 140.223,685.816C142.156,685.816 143.727,687.781 143.727,690.203" style="fill:rgb(34,30,31);fill-rule:nonzero;"/>
        <path d="M138.996,698.621C138.996,700.234 137.691,701.543 136.078,701.543C134.465,701.543 133.156,700.234 133.156,698.621C133.156,697.008 134.465,695.699 136.078,695.699C137.691,695.699 138.996,697.008 138.996,698.621" style="fill:rgb(34,30,31);fill-rule:nonzero;"/>
        <path d="M152.309,689.102C151.719,690.945 150.496,692.203 149.574,691.91C148.652,691.617 148.379,689.883 148.969,688.039C149.551,686.191 150.777,684.934 151.699,685.23C152.621,685.52 152.895,687.258 152.309,689.102" style="fill:rgb(34,30,31);fill-rule:nonzero;"/>
        <path d="M147.895,699.52C147.895,700.492 146.98,701.273 145.848,701.273C144.719,701.273 143.805,700.492 143.805,699.52C143.805,698.555 144.719,697.77 145.848,697.77C146.98,697.77 147.895,698.555 147.895,699.52" style="fill:rgb(34,30,31);fill-rule:nonzero;"/>
        <path d="M191.004,732.98C190.281,734.426 190.867,736.176 192.313,736.895C193.758,737.617 195.512,737.031 196.23,735.59C196.953,734.145 196.363,732.387 194.922,731.672C193.477,730.945 191.723,731.535 191.004,732.98" style="fill:rgb(34,30,31);fill-rule:nonzero;"/>
        <path d="M191.688,725.516C191.387,727.43 191.922,729.102 192.875,729.25C193.836,729.398 194.852,727.973 195.152,726.059C195.449,724.145 194.918,722.473 193.957,722.324C193.004,722.176 191.984,723.602 191.688,725.516" style="fill:rgb(34,30,31);fill-rule:nonzero;"/>
        <path d="M186.313,729.961C185.879,730.824 186.348,731.938 187.355,732.441C188.371,732.945 189.539,732.652 189.969,731.785C190.402,730.918 189.934,729.809 188.926,729.305C187.914,728.801 186.742,729.094 186.313,729.961" style="fill:rgb(34,30,31);fill-rule:nonzero;"/>
    </g>
</svg>
