<?xml version="1.0" encoding="UTF-8" standalone="no"?>
<!DOCTYPE svg PUBLIC "-//W3C//DTD SVG 1.1//EN" "http://www.w3.org/Graphics/SVG/1.1/DTD/svg11.dtd">
<svg width="100%" height="100%" viewBox="0 0 2055 2584" version="1.1" xmlns="http://www.w3.org/2000/svg" xmlns:xlink="http://www.w3.org/1999/xlink" xml:space="preserve" xmlns:serif="http://www.serif.com/" style="fill-rule:evenodd;clip-rule:evenodd;stroke-linejoin:round;stroke-miterlimit:2;">
    <g transform="matrix(4.16667,0,0,4.16667,0,0)">
        <path d="M133.28,0.695C130.101,0.79 126.676,1.947 122.793,4.967C113.277,1.353 104.053,0.097 95.805,7.453C83.067,5.826 78.927,9.184 75.791,13.104C72.995,13.048 54.866,10.274 46.553,22.489C25.662,20.054 19.058,34.593 26.539,48.15C22.273,54.656 17.853,61.084 27.829,73.487C24.301,80.394 26.488,87.888 34.804,96.958C32.609,106.669 36.924,113.52 44.659,118.86C43.211,132.148 57.031,139.875 61.158,142.629C62.741,150.371 66.045,157.679 81.83,161.718C84.432,173.259 93.919,175.251 103.106,177.673C72.742,195.057 46.707,217.93 46.883,274.05L42.434,281.865C7.621,302.719 -23.701,369.745 25.278,424.222C28.477,441.277 33.842,453.525 38.62,467.08C45.766,521.709 92.4,547.288 104.701,550.314C122.725,563.836 141.92,576.667 167.897,585.656C192.385,610.531 218.913,620.012 245.589,619.997C245.98,619.997 246.378,620.002 246.769,619.997C273.444,620.013 299.974,610.533 324.46,585.656C350.438,576.667 369.634,563.836 387.658,550.314C399.958,547.288 446.591,521.709 453.737,467.08C458.514,453.525 463.881,441.277 467.079,424.222C516.06,369.74 484.738,302.709 449.922,281.855L445.469,274.042C445.645,217.927 419.606,195.054 389.245,177.665C398.432,175.244 407.918,173.251 410.521,161.712C426.307,157.67 429.609,150.363 431.192,142.621C435.32,139.869 449.139,132.141 447.691,118.851C455.427,113.512 459.741,106.66 457.548,96.951C465.862,87.881 468.051,80.388 464.521,73.479C474.501,61.08 470.072,54.654 465.812,48.147C473.287,34.59 466.691,20.052 445.791,22.487C437.48,10.272 419.357,13.046 416.555,13.103C413.418,9.182 409.281,5.824 396.543,7.452C388.295,0.095 379.07,1.351 369.556,4.964C358.257,-3.817 350.782,3.222 342.243,5.882C328.566,1.481 325.438,7.511 318.719,9.966C303.801,6.862 299.268,13.621 292.116,20.756L283.797,20.594C261.299,33.653 250.123,60.247 246.161,73.917C242.197,60.244 231.044,33.651 208.551,20.594L200.233,20.756C193.073,13.621 188.539,6.862 173.623,9.966C166.903,7.511 163.785,1.481 150.098,5.882C144.493,4.136 139.337,0.506 133.269,0.69L133.28,0.695Z" style="fill-rule:nonzero;"/>
        <path d="M88.932,58.15C148.624,88.46 183.326,112.982 202.336,133.865C192.601,172.301 141.812,174.055 123.242,172.976C127.043,171.233 130.216,169.144 131.341,165.936C126.682,162.676 110.158,165.592 98.623,159.209C103.053,158.304 105.127,157.425 107.198,154.203C96.301,150.78 84.561,147.829 77.657,142.157C81.384,142.204 84.861,142.978 89.728,139.654C79.965,134.472 69.55,130.367 61.458,122.446C66.503,122.326 71.945,122.396 73.527,120.569C64.593,115.118 57.054,109.054 50.814,102.422C57.878,103.262 60.86,102.539 62.569,101.327C55.815,94.515 47.266,88.761 43.191,80.365C48.436,82.145 53.233,82.827 56.693,80.209C54.397,75.108 44.564,72.101 38.903,60.184C44.425,60.711 50.28,61.369 51.452,60.184C48.888,49.901 44.492,44.119 40.179,38.129C51.994,37.957 69.896,38.175 69.085,37.191L61.78,29.838C73.321,26.777 85.13,30.329 93.704,32.967C97.553,29.975 93.636,26.191 88.939,22.328C98.748,23.619 107.611,25.84 115.621,28.9C119.903,25.092 112.844,21.286 109.427,17.48C124.581,20.311 131.002,24.289 137.381,28.274C142.011,23.903 137.646,20.189 134.522,16.385C145.948,20.553 151.834,25.934 158.029,31.246C160.13,28.454 163.366,26.407 159.459,19.669C167.57,24.276 173.679,29.702 178.201,35.783C183.22,32.635 181.191,28.33 181.218,24.362C189.648,31.118 194.999,38.306 201.549,45.326C202.867,44.381 204.023,41.17 205.042,36.096C225.154,55.315 253.574,103.725 212.348,122.919C177.261,94.417 135.357,73.699 88.919,58.157L88.932,58.15Z" style="fill:rgb(108,191,93);fill-rule:nonzero;"/>
        <path d="M405.089,58.15C345.402,88.465 310.702,112.978 291.691,133.865C301.427,172.301 352.217,174.055 370.787,172.976C366.984,171.233 363.813,169.144 362.688,165.936C367.348,162.676 383.871,165.592 395.406,159.209C390.976,158.304 388.902,157.425 386.83,154.203C397.729,150.78 409.468,147.829 416.372,142.157C412.646,142.204 409.166,142.978 404.301,139.654C414.062,134.472 424.479,130.367 432.571,122.446C427.524,122.326 422.084,122.396 420.5,120.569C429.437,115.118 436.975,109.054 443.214,102.422C436.151,103.262 433.169,102.539 431.46,101.327C438.215,94.515 446.762,88.761 450.838,80.365C445.594,82.145 440.796,82.827 437.337,80.209C439.632,75.108 449.464,72.101 455.125,60.184C449.604,60.711 443.75,61.369 442.578,60.184C445.145,49.896 449.543,44.115 453.854,38.125C442.038,37.952 424.138,38.171 424.946,37.186L432.255,29.834C420.712,26.774 408.903,30.325 400.329,32.962C396.481,29.971 400.397,26.187 405.093,22.325C395.285,23.615 386.422,25.836 378.411,28.896C374.131,25.089 381.19,21.282 384.605,17.475C369.452,20.307 363.032,24.286 356.651,28.269C352.022,23.899 356.388,20.185 359.511,16.381C348.085,20.548 342.199,25.93 336.005,31.242C333.904,28.45 330.669,26.403 334.575,19.665C326.462,24.271 320.354,29.699 315.834,35.779C310.814,32.63 312.843,28.326 312.815,24.359C304.385,31.114 299.033,38.302 292.486,45.321C291.167,44.375 290.012,41.166 288.991,36.091C268.878,55.311 240.457,103.721 281.686,122.915C316.754,94.407 358.655,73.69 405.096,58.149L405.089,58.15Z" style="fill:rgb(108,191,93);fill-rule:nonzero;"/>
        <path d="M319.2,449.528C319.408,485.392 287.564,514.621 248.077,514.81C208.59,514.999 176.409,486.078 176.201,450.212L176.201,449.528C175.994,413.662 207.836,384.433 247.325,384.245C286.812,384.056 318.993,412.976 319.2,448.843C319.201,449.072 319.201,449.299 319.2,449.528Z" style="fill:rgb(197,35,83);fill-rule:nonzero;"/>
        <path d="M207.717,264.013C237.344,283.13 242.685,326.467 219.647,360.805C196.609,395.144 153.916,407.485 124.291,388.367C94.664,369.248 89.323,325.911 112.362,291.571C135.4,257.233 178.092,244.893 207.717,264.013Z" style="fill:rgb(197,35,83);fill-rule:nonzero;"/>
        <path d="M287.682,260.551C258.055,279.669 252.715,323.007 275.753,357.344C298.792,391.683 341.483,404.024 371.109,384.905C400.736,365.787 406.077,322.45 383.039,288.11C360.001,253.771 317.309,241.432 287.682,260.551Z" style="fill:rgb(197,35,83);fill-rule:nonzero;"/>
        <path d="M61.479,295.469C93.463,287.024 72.277,425.81 46.253,414.423C17.624,391.742 8.403,325.322 61.479,295.469Z" style="fill:rgb(197,35,83);fill-rule:nonzero;"/>
        <path d="M431.121,293.738C399.133,285.296 420.323,424.086 446.35,412.699C474.977,390.017 484.197,323.591 431.121,293.738Z" style="fill:rgb(197,35,83);fill-rule:nonzero;"/>
        <path d="M323.844,190.188C379.043,181.007 424.975,213.309 423.121,272.268C421.306,294.871 303.506,193.553 323.844,190.188Z" style="fill:rgb(197,35,83);fill-rule:nonzero;"/>
        <path d="M171.329,188.457C116.125,179.276 70.197,211.586 72.051,270.539C73.865,293.141 191.666,191.823 171.329,188.457Z" style="fill:rgb(197,35,83);fill-rule:nonzero;"/>
        <path d="M247.378,174.708C214.432,173.864 182.814,198.793 182.737,213.251C182.645,230.82 208.785,248.809 247.602,249.266C287.243,249.545 312.536,234.867 312.664,216.735C312.81,196.192 276.612,174.39 247.378,174.706L247.378,174.708Z" style="fill:rgb(197,35,83);fill-rule:nonzero;"/>
        <path d="M249.923,534.983C278.646,533.747 317.19,544.095 317.266,557.822C317.743,571.152 282.31,601.27 248.018,600.689C212.502,602.197 177.679,572.034 178.135,561.578C177.603,546.248 221.379,534.28 249.923,534.983Z" style="fill:rgb(197,35,83);fill-rule:nonzero;"/>
        <path d="M143.619,453.626C164.068,477.895 173.391,520.532 156.326,533.098C140.179,542.694 100.969,538.743 73.098,499.306C54.305,466.218 56.726,432.543 69.923,422.653C89.658,410.811 120.149,426.805 143.619,453.626Z" style="fill:rgb(197,35,83);fill-rule:nonzero;"/>
        <path d="M349.516,445.935C327.389,471.462 315.067,518.024 331.209,533.018C346.642,544.667 388.073,543.038 418.678,501.213C440.899,473.122 433.453,426.206 420.761,413.749C401.903,399.383 374.835,417.768 349.516,445.927L349.516,445.935Z" style="fill:rgb(197,35,83);fill-rule:nonzero;"/>
    </g>
</svg>
