<svg id="Layer_1" data-name="Layer 1" xmlns="http://www.w3.org/2000/svg" viewBox="0 0 122.88 106.97"><defs><style>.cls-1{fill-rule:evenodd;}</style></defs><title>nas-drives</title><path class="cls-1" d="M105.91,91.72V45.86a2.62,2.62,0,0,0-2.62-2.62H89.05a2.63,2.63,0,0,0-2.63,2.62V91.72A2.62,2.62,0,0,0,89,94.34h14.24a2.62,2.62,0,0,0,2.63-2.62Zm-47.27,0V45.86A2.62,2.62,0,0,0,56,43.24H41.78a2.62,2.62,0,0,0-2.62,2.62c0,16.15,0,29.52,0,45.86a2.62,2.62,0,0,0,2.62,2.62H56a2.62,2.62,0,0,0,2.63-2.62ZM28.53,50.35a5.83,5.83,0,1,0-5.82,5.82,5.82,5.82,0,0,0,5.82-5.82ZM104,0h0a3.09,3.09,0,0,1,2.69,1.79l15.68,30.35a3,3,0,0,1,.34,1.38c0,.06,0,.13,0,.19l.22,70.34A2.94,2.94,0,0,1,120,107H2.93A2.93,2.93,0,0,1,0,104.05V33.47H0v-.09H0L16.42,1.57A2.91,2.91,0,0,1,19,0H104Zm-83,5.88L7.84,30.58H115L102.11,5.87ZM5.87,36.45v64.68H117l-.24-64.68ZM28.1,91V85.13H17.31V91Zm0-12.38V72.75H17.31v5.89ZM51.27,50.09a2.38,2.38,0,1,0-2.37,2.37,2.37,2.37,0,0,0,2.37-2.37ZM52.78,70V67H45v3Zm0,8.9v-3H45v3Zm0,8.91v-3H45v3Zm29.5,3.88V45.86a2.63,2.63,0,0,0-2.63-2.62H65.41a2.63,2.63,0,0,0-2.62,2.62c0,16.15,0,29.52,0,45.86a2.63,2.63,0,0,0,2.63,2.62H79.65a2.62,2.62,0,0,0,2.63-2.62ZM74.91,50.09a2.38,2.38,0,1,0-2.38,2.37,2.38,2.38,0,0,0,2.38-2.37ZM76.41,70V67H68.65v3Zm0,8.9v-3H68.65v3Zm0,8.91v-3H68.65v3ZM98.54,50.09a2.38,2.38,0,1,0-2.38,2.37,2.37,2.37,0,0,0,2.38-2.37ZM100,70V67H92.29v3Zm0,8.9v-3H92.29v3Zm0,8.91v-3H92.29v3Z"/></svg>