<?xml version="1.0" encoding="UTF-8" standalone="no"?>
<svg
   height="601"
   class="wd-brand-logo"
   viewBox="0 0 977 901.5"
   xml:space="preserve"
   version="1.1"
   id="svg47"
   sodipodi:docname="Western Digital Brand Mark.svg"
   width="977"
   inkscape:version="1.1 (c68e22c387, 2021-05-23)"
   xmlns:inkscape="http://www.inkscape.org/namespaces/inkscape"
   xmlns:sodipodi="http://sodipodi.sourceforge.net/DTD/sodipodi-0.dtd"
   xmlns="http://www.w3.org/2000/svg"
   xmlns:svg="http://www.w3.org/2000/svg"><defs
     id="defs51" /><sodipodi:namedview
     id="namedview49"
     pagecolor="#ffffff"
     bordercolor="#666666"
     borderopacity="1.0"
     inkscape:pageshadow="2"
     inkscape:pageopacity="0.0"
     inkscape:pagecheckerboard="0"
     showgrid="false"
     width="998px"
     height="601px"
     inkscape:zoom="1"
     inkscape:cx="1070.5"
     inkscape:cy="151.5"
     inkscape:window-width="1366"
     inkscape:window-height="705"
     inkscape:window-x="-8"
     inkscape:window-y="-8"
     inkscape:window-maximized="1"
     inkscape:current-layer="g315" /><g
     id="g315"
     transform="matrix(5.1254331,0,0,5.0563936,-5067.478,-22.634314)"><g
       id="g434"
       transform="matrix(0.97638208,0,0,0.99811098,23.594133,0.14292225)"><path
         class="st0"
         d="m 1172.0086,5.7796801 h 41.6666 c 10.2339,0 18.2748,7.9499939 18.2748,18.0681679 v 41.195423 c 0,15.899988 -19.7368,23.849982 -30.7017,12.286354 l -41.6666,-41.195423 c -11.6958,-10.8409 -3.6549,-30.3545219 12.4269,-30.3545219 z"
         style="fill:#53a5ff;stroke-width:7.26848"
         id="path31" /><path
         class="st1"
         d="m 1080.6345,105.51597 h -29.9707 c -17.5438,0 -31.4326,-14.454537 -32.1636,-31.799978 V 23.125121 c 0,-10.118174 -8.041,-18.0681676 -18.2749,-18.0681676 h -41.66653 c -16.08184,0 -24.12276,19.5136216 -12.42687,30.3545226 l 16.08183,15.899987 21.92978,21.681802 0.73099,0.722727 3.65497,3.613633 59.21043,58.540865 5.1169,5.05909 1.462,1.44545 21.9298,21.6818 13.1578,13.00908 c 11.6959,11.56363 30.7017,3.61364 30.7017,-12.28635 v -41.19542 c 0,-10.11818 -8.0409,-18.06817 -18.2748,-18.06817 z"
         style="fill:#ff0057;stroke-width:7.26848"
         id="path33" /><path
         class="st2"
         d="m 1192.4764,105.51597 h -29.9707 c -17.5438,0 -31.4327,-14.454537 -32.1637,-31.799978 V 23.125121 c 0,-10.118174 -8.0409,-18.0681676 -18.2748,-18.0681676 h -41.6666 c -16.0818,0 -24.1227,19.5136216 -12.4268,30.3545226 l 16.0818,15.899987 21.9298,21.681802 0.731,0.722727 3.6549,3.613633 59.2104,58.540865 5.117,5.05909 1.462,1.44545 21.9297,21.6818 13.1579,13.00908 c 11.6959,11.56363 30.7017,3.61364 30.7017,-12.28635 v -41.19542 c 0,-10.11818 -8.0409,-18.06817 -18.2748,-18.06817 z"
         style="fill:#a34eff;stroke-width:7.26848"
         id="path35" /></g></g></svg>
