<?xml version="1.0" encoding="UTF-8" standalone="no"?>
<!DOCTYPE svg PUBLIC "-//W3C//DTD SVG 1.1//EN" "http://www.w3.org/Graphics/SVG/1.1/DTD/svg11.dtd">
<svg width="100%" height="100%" viewBox="0 0 1509 1474" version="1.1" xmlns="http://www.w3.org/2000/svg" xmlns:xlink="http://www.w3.org/1999/xlink" xml:space="preserve" xmlns:serif="http://www.serif.com/" style="fill-rule:evenodd;clip-rule:evenodd;stroke-linejoin:round;stroke-miterlimit:2;">
    <g transform="matrix(1,0,0,1,-398.743,-0.202328)">
        <path d="M1081.72,1472.86C754.833,1455.28 477.153,1217.14 413.005,899.92C378.735,728.567 407.733,548.426 494.728,405.192C501.757,393.769 507.909,382.345 507.909,379.709C507.909,377.073 502.636,368.286 496.485,358.62C460.457,305.017 414.763,190.781 402.46,124.876C391.916,68.637 404.218,23.822 434.095,8.004C455.185,-2.54 496.485,-2.54 533.392,8.883C592.267,27.337 674.868,68.637 739.895,113.453L774.165,137.178L805.8,123.119C961.336,51.062 1140.6,37.003 1308.44,83.576C1362.92,98.514 1433.22,127.512 1473.64,152.117L1492.09,163.54L1526.36,140.693C1593.15,96.757 1673.99,61.607 1746.92,44.911C1828.65,26.458 1876.98,37.881 1898.07,80.061C1905.98,95.878 1906.85,102.908 1906.85,141.572C1906.85,167.055 1904.22,196.054 1899.82,212.75C1883.13,286.563 1845.34,372.679 1799.65,441.221L1774.16,479.006L1781.19,492.187C1794.38,517.67 1815.47,584.454 1824.25,630.149C1872.58,867.407 1798.77,1103.79 1625.66,1269.87C1499.12,1391.13 1344.46,1458.8 1166.08,1471.1C1136.2,1472.86 1110.72,1474.61 1108.08,1473.73C1106.33,1474.61 1094.03,1473.73 1081.72,1472.86ZM1211.78,1442.1C1253.95,1436.83 1328.65,1418.37 1369.95,1402.56C1537.79,1338.41 1672.23,1216.26 1746.92,1059.85C1783.83,982.521 1802.29,916.616 1811.07,827.864C1819.86,740.869 1804.04,623.119 1773.29,539.639L1764.5,517.67L1754.83,529.094C1739.89,546.669 1722.32,553.699 1688.05,555.456C1665.2,556.335 1649.38,555.456 1625.66,549.305C1521.97,522.943 1436.73,448.25 1405.1,355.105C1391.92,316.44 1390.16,263.716 1400.7,235.597C1408.61,216.264 1427.94,196.054 1443.76,192.539C1461.34,189.024 1471.88,183.751 1469.24,179.358C1465.73,173.207 1400.7,141.572 1358.52,125.755C1099.3,29.094 799.649,94.999 612.478,290.957C526.362,381.467 468.366,489.551 442.004,609.059C414.763,732.96 420.035,844.56 458.699,967.583C529.877,1190.78 713.533,1364.77 942.882,1424.53C963.972,1429.8 996.485,1436.83 1014.06,1439.46C1054.48,1445.61 1167.84,1447.37 1211.78,1442.1ZM1070.3,1366.53C824.253,1346.32 633.568,1201.33 539.543,963.189C521.09,915.737 502.636,847.196 495.606,797.987C482.425,704.841 516.696,563.365 579.965,453.523C619.508,384.103 687.17,307.653 748.682,261.08C818.102,209.235 906.854,167.934 1002.64,143.33C1065.03,127.512 1079.96,126.634 1043.06,141.572C931.459,187.266 847.979,242.627 775.923,316.44C678.383,418.373 630.931,539.639 640.598,662.662C644.112,703.962 644.991,704.841 666.081,696.054C703.866,680.236 765.378,674.085 805.8,683.751C891.037,703.962 977.153,775.14 1054.48,891.133C1108.08,970.219 1164.32,1005.37 1239.89,1005.37C1403.34,1005.37 1587.87,819.955 1633.57,609.059C1635.33,599.393 1637.96,589.727 1639.72,580.061C1641.48,572.152 1643.23,572.152 1665.2,573.909C1678.38,574.788 1691.56,577.424 1695.08,579.182C1701.23,582.697 1712.65,616.967 1723.2,665.298C1727.59,686.388 1729.35,712.75 1729.35,772.504C1729.35,841.045 1728.47,856.862 1721.44,889.375C1709.14,945.614 1696.84,981.642 1669.6,1036.12C1611.6,1154.75 1514.06,1249.66 1391.04,1307.65C1319.86,1341.05 1254.83,1358.62 1173.99,1365.65C1126.54,1370.92 1120.39,1370.92 1070.3,1366.53ZM1718.81,505.368C1741.65,493.945 1756.59,478.127 1789.1,430.676C1877.86,297.987 1914.76,116.967 1861.16,70.395C1821.62,36.124 1729.35,48.426 1616.87,103.786C1543.94,139.815 1472.76,191.66 1449.91,225.931C1398.07,304.138 1461.34,438.584 1577.33,495.702C1626.54,521.185 1681.02,524.7 1718.81,505.368ZM1632.69,490.43C1586.12,479.006 1531.63,444.736 1514.94,414.859C1487.7,367.407 1514.94,335.772 1641.48,266.352C1811.07,173.207 1831.28,159.147 1841.83,128.391C1845.34,117.846 1850.62,109.938 1853.25,109.938C1860.28,109.938 1868.19,144.208 1865.55,164.419C1859.4,213.628 1826.01,315.562 1797.01,373.558C1776.8,413.98 1753.08,448.25 1730.23,469.34C1700.35,496.581 1677.5,500.975 1632.69,490.43ZM533.392,346.317C537.786,340.166 541.301,334.015 541.301,333.136C541.301,331.379 536.028,322.591 529.877,313.804C512.302,288.321 483.304,225.052 468.366,180.236C445.518,111.695 442.004,66.88 458.699,61.607C472.759,57.214 551.845,104.665 639.719,168.813L680.141,198.69L709.139,179.358C724.956,168.813 738.137,159.147 737.258,157.389C736.38,152.996 695.958,121.361 652.9,92.363C575.571,40.518 530.756,22.943 484.183,26.458C420.914,30.851 410.369,92.363 451.67,215.386C462.214,247.02 500,326.985 514.06,348.953C521.09,359.498 523.726,359.498 533.392,346.317ZM1823.37,482.521C1822.5,479.006 1822.5,474.612 1825.13,472.855C1831.28,466.704 1842.71,471.098 1843.59,479.006C1844.46,486.036 1844.46,486.036 1840.95,479.006C1838.31,472.855 1837.43,472.855 1837.43,477.249C1837.43,486.036 1826.01,490.43 1823.37,482.521ZM1828.65,476.37C1827.77,473.734 1826.89,474.612 1826.01,479.006C1826.01,483.4 1826.89,485.157 1827.77,484.279C1828.65,483.4 1829.53,479.006 1828.65,476.37Z" style="fill:rgb(181,1,15);fill-rule:nonzero;"/>
    </g>
</svg>
