<?xml version="1.0" encoding="UTF-8" standalone="no"?>
<!DOCTYPE svg PUBLIC "-//W3C//DTD SVG 1.1//EN" "http://www.w3.org/Graphics/SVG/1.1/DTD/svg11.dtd">
<svg width="100%" height="100%" viewBox="0 0 800 689" version="1.1" xmlns="http://www.w3.org/2000/svg" xmlns:xlink="http://www.w3.org/1999/xlink" xml:space="preserve" xmlns:serif="http://www.serif.com/" style="fill-rule:evenodd;clip-rule:evenodd;stroke-linejoin:round;stroke-miterlimit:2;">
    <path d="M455.07,0.82C456.35,1.88 457.35,1.99 458.96,2.19C459.01,2.95 459.08,3.71 459.14,4.46C460.03,5.7 459.98,7.04 460.25,8.47C461.47,10.47 460.46,12.77 461.9,14.54C462.02,17.18 461.98,19.82 462.1,22.46C462.73,23.25 463.04,24.08 463,24.94C463.11,28.64 462.89,32.36 463,36.06C462.96,36.92 463.27,37.75 463.9,38.54C464.02,41.18 463.98,43.82 464.1,46.46C465.45,48.15 464.67,50.52 465.65,52.51C465.99,53.51 466.32,54.51 466.66,55.5C467,56.49 467.35,57.46 467.73,58.43C468.51,60.09 469.11,61.74 469.61,63.51C470.97,65.64 472.76,67.3 474.48,69.13C475.2,69.05 475.91,68.96 476.63,68.85C478.53,66.66 480,64.03 481.32,61.45C481.9,59.74 482.52,58.07 483.27,56.43C483.65,55.46 484.01,54.49 484.35,53.51C484.68,52.5 484.99,51.49 485.28,50.47C485.79,49.15 486.26,47.81 486.79,46.5C486.93,45.84 487.07,45.19 487.21,44.53C487.8,43.38 488.14,42.12 488.24,40.75C488.98,41.07 489.73,41.39 490.47,41.71C491.77,42 492.9,42.22 493.9,43.17C493.52,44.29 493.07,45.39 492.64,46.49C491.91,47.94 491.98,49.42 491.97,51C492.03,57.86 491.99,64.72 492,71.58C492.81,72.37 493.62,73.16 494.42,73.96C495.43,74.01 496.45,74.06 497.46,74.13C498.42,74.71 499.49,75.06 500.69,75.18C501.01,74.29 501.34,73.4 501.67,72.5C502.01,71.48 502.38,70.47 502.78,69.47C502.93,68.82 503.08,68.18 503.23,67.53C503.98,65.91 504.04,64.12 504.74,62.48C505.01,61.05 504.99,59.71 505.83,58.47C505.95,57.49 506.06,56.51 506.17,55.53C507.05,53.93 506.98,52.1 507.78,50.47C507.92,49.82 508.07,49.16 508.21,48.5C508.74,47.2 509.21,45.87 509.7,44.55C510.49,42.93 511.16,41.33 512.37,39.95C513.13,40 513.85,40.3 514.54,40.86C515.22,40.92 515.91,40.99 516.6,41.05C518.32,42.77 519.54,44.61 521.98,45.35C522.18,47.58 521.35,50.76 522.9,52.54C523.13,56.72 522.9,60.88 523,65.06C522.96,65.92 523.26,66.75 523.9,67.54C524.02,70.18 523.98,72.82 524.1,75.46C525.96,78.18 524.15,81.74 526.17,84.76C526.93,85.07 527.69,85.37 528.45,85.69C529.11,86.03 529.77,86.37 530.43,86.72C531.1,87.06 531.77,87.4 532.44,87.75C533.63,87.93 535.41,89.2 536.46,88.35C539.26,87.2 540.04,84.93 541.38,82.48C541.86,81.2 542.03,79.87 542.25,78.53C543.9,76.08 542.03,72.6 543.9,70.46C543.98,68.78 544.01,67.1 544.02,65.42C544.83,64.62 545.63,63.82 546.43,63.01C547.28,63 548.12,63 548.97,62.99L549.02,64.98L551.2,65.04C551.12,66.37 550.76,67.53 550.1,68.54C549.94,72.5 549.94,76.5 550.1,80.46C552.05,82.56 549.95,86.45 551.91,88.54C552.02,90.9 551.9,93.28 552.08,95.63C552.85,96.28 553.65,96.9 554.47,97.49C556.1,98.06 557.76,98.02 559.46,98C560.42,97.1 561.42,96.32 562.57,95.67C563.86,94.58 565.08,93.46 566.62,92.72C570.41,89.19 574.19,85.41 577.72,81.62C578.46,80.07 579.57,78.84 580.72,77.58C581.73,75.92 582.79,74.29 583.73,72.58C584.98,70.56 586.27,68.59 587.33,66.46C587.91,64.75 588.53,63.06 589.25,61.4C589.9,59.73 590.53,58.06 591.3,56.44C592.27,54.6 591.5,52.18 593.4,51.23C594.09,51.02 594.78,50.84 595.48,50.66C596.46,50.34 597.46,50.06 598.47,49.83C599.35,50.75 600.25,51.65 601.16,52.52C600.97,53.57 600.67,54.57 600.25,55.53C600.01,56.93 599.97,58.28 599.22,59.53C599.07,60.18 598.92,60.82 598.78,61.47C598.01,63.1 597.99,64.9 597.23,66.53C597.08,67.18 596.92,67.82 596.77,68.47C596.01,70.1 595.99,71.91 595.22,73.53C595.08,74.18 594.93,74.83 594.79,75.48C594.38,76.47 593.99,77.48 593.62,78.48C593.12,80.19 592.97,81.99 592.17,83.53C592.06,84.51 591.95,85.49 591.84,86.47C590.18,88.59 591.85,91.58 590.1,93.54C589.89,99.54 590.04,105.56 590.01,111.57C591.17,112.7 592.31,113.84 593.44,115.01C594.11,114.99 594.79,114.96 595.47,114.94C596.44,114.09 597.44,113.31 598.58,112.69C600.31,111.79 601.93,110.71 603.63,109.75C607.89,106.04 611.51,101.35 615.97,97.95C617.68,96.72 618.12,97.61 619.82,98.18C620.57,100.13 621.52,101.44 620.47,103.53C618.72,105.86 617.12,108.05 614.36,109.27C613.65,109.96 612.95,110.65 612.27,111.36C610.72,114.4 607.85,116.15 606.63,119.52C605.66,121.48 606.05,123.37 606.07,125.49C606.49,126.26 606.9,127.03 607.3,127.81C608.39,128.25 609.48,128.84 610.63,129.06C611.28,128.25 611.84,127.37 612.3,126.41C613.25,124.04 615.03,122.46 616.71,120.61C617.66,118.6 619.24,117.24 620.71,115.62C621.58,113.77 622.99,112.43 624.39,110.99C625.44,111 626.5,111.01 627.55,111.01C628.42,111.86 629.29,112.68 630.17,113.5C630,114.59 629.67,115.6 629.18,116.54C629.01,118.25 629.08,119.88 628.38,121.49C627.44,123.27 626.51,124.98 625.16,126.5C624.99,127.93 625.03,129.27 624.2,130.53C624.07,131.19 623.94,131.85 623.81,132.51C623.26,133.83 622.74,135.17 622.18,136.49C622.06,137.15 621.93,137.81 621.8,138.47C620.46,140.32 620.88,142.49 621.52,144.52C622.43,145.71 623.37,146.88 624.31,148.04C626.6,147.85 629.6,148.57 631.53,147.19C632.2,147.08 632.87,146.97 633.54,146.86C634.21,146.47 634.89,146.08 635.57,145.7C637.19,144.9 638.81,144.1 640.42,143.28C641.09,142.95 641.76,142.61 642.43,142.28C643.1,141.96 643.78,141.63 644.45,141.31C645.12,140.92 645.79,140.53 646.46,140.14C647.13,140.04 647.8,139.93 648.47,139.83C649.17,139.27 649.88,138.99 650.61,138.99C652.4,140.31 651.93,141.6 652.07,143.55C650.16,145.3 648.75,147.16 646.38,148.29C644.73,149.76 643.44,151.36 641.36,152.27C640.65,152.95 639.95,153.65 639.27,154.36C638.74,155.57 637.92,156.55 637.05,157.53C637.02,158.91 637,160.28 637,161.65C638.49,162.06 639.44,162.96 640.53,164C642.38,163.93 643.95,164.37 645.53,163.16C646.51,163.05 647.49,162.94 648.47,162.83C650.01,162.03 651.81,161.88 653.52,161.38C654.53,161.01 655.53,160.61 656.52,160.21C657.18,160.07 657.84,159.94 658.5,159.81C659.8,159.27 661.11,158.78 662.39,158.23C663.75,157.65 665.11,157.11 666.53,156.68C668.24,156.09 669.93,155.48 671.61,154.8C672.54,154.28 673.47,153.76 674.41,153.25C675.08,152.93 675.76,152.61 676.44,152.29C677.1,151.96 677.77,151.62 678.43,151.28C679.1,150.95 679.76,150.61 680.42,150.27C682.89,149.11 685.33,148 687.48,146.3C688.85,145.44 690.19,144.54 691.58,143.72C692.19,143.24 692.81,142.76 693.42,142.28C694.81,141.46 696.15,140.55 697.52,139.7C698.49,139.02 699.46,138.35 700.44,137.69C702.04,139.51 703.7,141.12 704.85,143.29C704.18,144.42 703.4,145.49 702.72,146.62C700.97,148.6 699.03,150.4 697.28,152.37C694.61,156.97 689.64,160.22 686.28,164.38C684.81,167.52 681.45,169.63 679.28,172.37C678.55,173.93 677.43,175.16 676.28,176.42C675.27,178.08 674.2,179.71 673.28,181.42C672.45,182.82 671.54,184.16 670.67,185.54C670.2,186.88 669.73,188.22 669.16,189.52C669.09,190.23 669.03,190.93 668.96,191.63C668.32,192.21 667.67,192.79 667.02,193.37C666.99,194.4 666.94,195.43 666.88,196.46C665.81,197.75 666.05,199.1 665.93,200.65C666.8,201.06 667.67,201.47 668.53,201.9C671.5,202.04 674.48,202.06 677.46,201.9C679.45,200.13 682.52,201.86 684.54,200.12C686.18,200.03 687.82,199.97 689.46,199.88C690.99,198.68 692.58,199.08 694.46,198.83C696.19,197.57 697.96,198.1 700.01,197.95C700,198.85 699.99,199.74 699.98,200.64C696.96,202.03 694.88,204.61 691.58,205.72C690.91,206.06 690.24,206.39 689.58,206.73C688.53,207.24 687.48,207.76 686.42,208.27C685.76,208.6 685.09,208.93 684.41,209.26C683.47,209.76 682.53,210.26 681.59,210.76C680.9,211.04 680.2,211.33 679.51,211.62C677.83,212.67 676.4,213.99 674.99,215.38C675.19,217.94 674.35,221.31 675.79,223.53C675.93,224.18 676.08,224.83 676.22,225.47C676.93,227.1 677.14,228.77 677.62,230.47C678.63,232.45 679.57,234.31 681.32,235.76C682.97,236.39 684.13,237.57 685.42,238.72C686.82,239.56 688.19,240.46 689.63,241.25C691.77,243.2 693.8,245.23 695.74,247.37C696.55,248.8 697.45,250.17 698.26,251.6C699.11,253.43 700.36,254.92 701.67,256.44C702.51,257.9 703.57,259.17 704.68,260.43C705.32,261.47 706,262.48 706.68,263.49C707.54,264.84 708.45,266.16 709.31,267.51C710.5,269.09 711.46,270.77 712.35,272.53C712.69,273.52 713.02,274.51 713.34,275.5C713.84,277.23 714.45,279.04 714.62,280.84C713.9,282.87 712.06,284.42 710.62,286.01C709.41,286 708.2,286 706.98,286C706.99,287.82 707.01,289.64 707.1,291.46C709.27,295 707,300.51 708.48,304.54C710.14,307.01 713.01,307.9 714.74,310.36C715.68,312.29 717.27,313.71 718.3,315.6C719.1,316.54 719.91,317.47 720.73,318.4C721.56,319.81 722.45,321.18 723.26,322.59C724.77,325.2 726.47,327.66 727.74,330.41C728.37,331.76 729.03,333.09 729.71,334.42C730.05,335.1 730.38,335.77 730.72,336.45C731.02,337.45 731.35,338.45 731.71,339.43C732.5,341.07 733.1,342.74 733.65,344.47C734.53,345.83 735.47,347.16 736.35,348.53C736.8,349.83 737.23,351.13 737.72,352.42C738.47,354.09 739.12,355.8 739.81,357.5C739.94,358.16 740.07,358.82 740.21,359.48C740.61,360.47 741.01,361.47 741.38,362.48C741.88,364.19 742.03,365.99 742.83,367.53C742.94,368.51 743.05,369.49 743.17,370.47C744.56,372.4 743.43,374.66 744.87,376.54C745.11,378.51 744.55,381 745.89,382.54C745.95,383.69 746,384.84 746.04,386C748.41,386.09 751.31,385.57 753.47,386.64C754.13,386.98 754.8,387.32 755.47,387.65C757.77,388.93 759.04,390.25 760.38,392.51C760.91,394.24 761.5,395.93 762.23,397.59C763.16,399.17 763.9,400.75 764.27,402.56C764.61,403.23 764.95,403.89 765.28,404.56C765.62,405.23 765.95,405.9 766.28,406.57C766.62,407.24 766.96,407.9 767.3,408.57C767.96,409.91 768.61,411.25 769.22,412.61C770.03,414.17 770.94,415.56 772.23,416.76C774.61,419.01 776.76,421.72 779.51,423.38C780.2,423.67 780.89,423.97 781.58,424.27C783.77,425.24 785.22,427.11 787.54,425.14C788.23,425.08 788.93,425.02 789.62,424.97C790.55,423.98 791.47,422.99 792.39,422L795.94,422C796.01,422.82 796.08,423.64 796.15,424.46C796.6,425.44 797.01,426.45 797.36,427.47C798.04,428.48 798.04,429.49 797.37,430.49C796.11,432.86 794.61,435.08 793.24,437.39C791.49,442.4 786.2,445.94 782.62,449.73C781.18,450.53 779.84,451.47 778.46,452.37C777.48,452.7 776.49,453.03 775.51,453.35C773.82,453.92 771.96,453.97 770.46,454.89C762.22,455.07 753.78,455.07 745.54,454.89C744.06,453.99 742.17,453.89 740.49,453.38C739.11,452.88 737.75,452.34 736.39,451.79C733.75,450.46 731.36,449.38 729.57,446.91C725.51,451.1 721.22,455.08 717.28,459.38C716.25,461.66 714.46,463.02 712.76,464.76C707.75,469.75 702.75,474.75 697.76,479.76C695.98,481.47 694.69,483.29 692.35,484.25C690.91,485.81 689.19,486.09 690.58,488.48C691.51,489.81 692.44,491.14 693.33,492.5C694.01,493.52 694.68,494.54 695.3,495.6C696.1,496.53 696.9,497.46 697.69,498.41C698.74,500.27 700.29,501.73 701.29,503.62C703.75,506.38 706.41,508.98 709.14,511.47C709.02,514.69 707.51,515.91 704.51,514.38C702.43,513.23 700.42,511.97 698.4,510.73C697.47,509.91 696.54,509.1 695.59,508.31C693.73,507.26 692.26,505.72 690.39,504.7C688.81,503.25 687.34,501.74 685.48,500.64C684.81,500.31 684.14,499.98 683.47,499.64C681.87,498.89 680.25,499 678.53,498.83C677.83,498.26 677.12,497.98 676.39,497.99C674.25,499.36 674.77,502.52 675.63,504.51C676.11,505.9 676.67,507.24 677.27,508.58C677.65,509.55 678,510.53 678.34,511.51C678.78,512.84 679.18,514.18 679.61,515.51C680.83,517.23 682.17,518.84 683.49,520.48C683.89,521.8 683.99,523.14 684.08,524.51C683.25,525.35 682.43,526.19 681.62,527.05C680.61,526.4 679.6,525.75 678.59,525.11C677.9,525.01 677.21,524.91 676.51,524.81C675.2,524.25 673.85,523.81 672.49,523.38C671.1,522.46 669.84,521.39 668.56,520.33C667.41,519.67 666.42,518.89 665.45,517.99C664.42,517.98 663.4,518.01 662.37,518.08C660.94,519.75 659.83,521.72 658.73,523.61C657.89,524.5 657.02,525.38 656.24,526.33C656.82,527.71 656.99,528.95 657.01,530.44C655.56,531.89 655.89,532.78 656.59,534.48C657.53,535.82 658.46,537.16 659.28,538.58C660.2,540.3 661.27,541.92 662.28,543.58C663.43,544.84 664.54,546.07 665.28,547.62C670.58,553.38 676.42,558.63 681.72,564.38C683.27,567.56 686.59,569.86 689,572.41L689,576.98C687.18,576.99 685.36,577.01 683.54,577.1C682.62,577.7 681.56,578.06 680.37,578.17C679.75,575.54 677.48,574.03 675.62,572.26C673.57,571.03 671.6,569.71 669.42,568.72C668.47,568.23 667.54,567.72 666.61,567.19C665.22,566.59 663.85,566.08 662.34,565.81C661.76,565.23 661.19,564.64 660.61,564.05C659.92,563.98 659.23,563.91 658.54,563.84C656.94,562.95 655.11,563.02 653.47,562.23C652.82,562.08 652.18,561.93 651.53,561.78C650.53,561.37 649.51,561.01 648.48,560.7C647.14,560.22 645.81,559.74 644.5,559.2C643.84,559.07 643.18,558.93 642.52,558.79C641.53,558.39 640.53,558 639.52,557.63C637.63,556.69 635.42,556.7 633.52,557.62C632.88,558 632.23,558.38 631.59,558.76C630.9,559.05 630.2,559.33 629.51,559.61C627.24,560.98 625.72,563.13 623.38,564.38C622.32,566.43 620.61,567.8 619.1,569.48C618.8,570.63 620.31,572.3 620.72,573.42C621.04,574.1 621.37,574.77 621.69,575.44C623.16,578.58 625.36,581.23 626.71,584.42C627.82,586.9 629.42,589.05 630.73,591.41C631.54,592.82 632.44,594.15 633.3,595.52C633.99,596.51 634.68,597.49 635.35,598.49C636.03,599.52 636.69,600.56 637.27,601.64C638.16,602.59 639.07,603.52 639.99,604.44C640,605.82 640,607.19 640,608.57C638.85,609.68 637.71,610.81 636.58,611.95C635.9,612.01 635.22,612.08 634.54,612.15C632.73,613.57 630.49,613.11 628.48,612.48C626.47,611.07 624.68,609.73 623.73,607.37C621.9,605.27 619.89,603.88 618.71,601.38C617.24,599.76 615.66,598.41 614.71,596.39C613.58,595.12 612.42,593.88 611.29,592.61C609.26,588.79 605.17,586.23 602.49,582.81C601.06,583.11 599.72,583.63 598.38,584.2C596.36,585.28 594.34,586.3 592.51,587.69C591.16,588.55 589.84,589.45 588.49,590.31C587.23,591.22 585.96,592.02 584.58,592.74C583.18,593.53 581.84,594.43 580.48,595.3C578.9,596.57 577.26,597.46 575.4,598.25C574.28,598.83 573.18,599.4 572.17,600.16C572.73,601.94 573.02,603.87 573.87,605.54C573.97,607.18 574.03,608.82 574.12,610.46C576.01,612.61 573.99,616.39 575.88,618.54C575.97,620.18 576.03,621.82 576.13,623.46C577,624.96 577.11,626.83 577.62,628.52C577.99,629.53 578.38,630.53 578.79,631.52C578.93,632.17 579.08,632.82 579.22,633.47C579.92,635.09 580.14,636.77 580.63,638.46C581.72,640.42 582.71,642.42 583.73,644.42C584.56,646.15 585.42,647.86 586.36,649.54C586.87,650.81 587.03,652.13 587.25,653.47C588.14,654.91 587.99,656.39 588.1,658L585.42,658C582.08,654.04 577.3,650.83 574.72,646.38C570.72,642.03 566.39,637.97 562.25,633.75C560.35,631.73 557.81,629.9 556.73,627.36C556.05,626.65 555.35,625.95 554.64,625.27C552.17,624.2 550.76,622.11 548.63,620.28C547.53,619.7 546.52,619 545.51,618.27C544.08,617.9 542.76,617.37 541.43,616.72C539.86,615.82 538.27,616.02 536.53,615.83C534.9,614.63 533.05,614.58 531.46,615.89C530.29,615.95 529.12,616 527.95,616.04C528.11,618.05 527.53,619.95 528.9,621.54C529,623.85 529,626.15 529.1,628.46C531.01,630.56 529.01,634.29 530.84,636.53C530.95,637.51 531.05,638.49 531.16,639.47C532.99,641.71 530.99,645.43 532.9,647.54C533.02,650.25 533.29,652.93 532.52,655.55C531.16,657.53 529.1,658.5 527.39,660.12C526.42,659.9 525.47,659.66 524.52,659.39C521.96,658.14 520.03,656.84 518.17,654.66C517.97,653.59 517.68,652.55 517.3,651.55C516.52,649.9 515.87,648.2 515.2,646.5C515.06,645.85 514.92,645.19 514.78,644.53C514.37,643.53 514.01,642.52 513.7,641.48C513.22,640.14 512.74,638.81 512.2,637.5C512.07,636.83 511.93,636.17 511.8,635.5C511.26,634.19 510.79,632.85 510.28,631.53C509.99,630.52 509.68,629.51 509.35,628.5C508.87,627.11 508.35,625.74 507.84,624.36C507.19,623.27 506.58,622.19 505.83,621.17C504.05,621.68 502.23,622.12 500.48,622.74C499.04,623.02 497.69,622.96 496.46,623.88C495.4,623.94 494.33,623.99 493.26,624.04C492.95,624.86 492.64,625.67 492.32,626.49C491.99,627.52 491.62,628.53 491.22,629.53C491.08,630.18 490.93,630.84 490.79,631.5C490.26,632.81 489.78,634.14 489.3,635.48C488.99,636.51 488.63,637.53 488.22,638.53C488.07,639.18 487.92,639.82 487.77,640.47C486.98,642.1 487.05,643.93 486.17,645.53C486.06,646.51 485.95,647.49 485.83,648.47C484.98,649.71 485.01,651.05 484.75,652.47C483.64,654.26 484.08,656.3 483.87,658.46C481.85,660.85 484.17,665.21 482.1,667.54C481.85,672.85 482.14,678.17 481.92,683.49C481.5,684.26 481.1,685.03 480.71,685.81C479.62,686.23 478.54,686.85 477.39,687.04C474.97,685.18 476.78,682.79 475.21,680.47C475.07,679.82 474.92,679.18 474.78,678.53C474.06,676.9 473.87,675.2 473.36,673.49C473.02,672.49 472.67,671.5 472.32,670.5C472,669.5 471.68,668.49 471.35,667.49C471,666.47 470.62,665.47 470.22,664.47C470.07,663.83 469.93,663.18 469.78,662.53C469.31,661.54 468.99,660.47 468.83,659.34C468.23,658.76 467.64,658.19 467.04,657.61C466.98,656.91 466.92,656.21 466.85,655.51C466.28,654.22 465.78,652.9 465.24,651.59C464.39,649.54 463.62,647.45 462.74,645.41C462.23,644.13 461.78,642.83 461.31,641.53C460.89,640.11 460.35,638.75 459.76,637.39C459.24,636.14 458.76,634.86 458.24,633.6C457.65,632.25 457.11,630.89 456.69,629.47C456.38,628.73 456.06,628 455.75,627.26C454.64,626.76 453.54,626.23 452.45,625.68C448.79,624.21 443.96,625.34 440.02,625C440.01,626.82 439.99,628.64 439.9,630.46C438.94,631.68 439.03,633.02 438.75,634.47C437.53,636.47 438.54,638.77 437.1,640.54C436.7,644.46 437.58,648.74 436.48,652.51C435.73,653.5 434.97,654.49 434.21,655.47C433.97,656.48 433.71,657.5 433.45,658.51C432.28,659.94 430.46,663.21 428.39,663.02C426.73,661.74 427.05,660.39 426.78,658.53C425.51,656.55 426.53,654.3 425.13,652.46C424.89,650.49 425.45,648.01 424.12,646.46C424.03,644.82 423.97,643.18 423.88,641.54C422.01,639.4 423.97,635.74 422.17,633.46C421.93,631.61 422.29,630.04 421.16,628.47C421.05,627.48 420.95,626.49 420.85,625.5C420.46,624.7 420.07,623.88 419.69,623.07C418.97,622.99 418.25,622.92 417.53,622.84C415.64,621.47 413.42,622.51 411.47,621.2C409.68,621.03 407.97,620.94 406.3,620.23C405.55,620.9 404.84,621.6 404.15,622.33C403.94,623.4 403.71,624.45 403.46,625.51C402.73,626.5 401.99,627.48 401.24,628.46C400.88,629.89 400.37,631.25 399.81,632.62C399.28,633.54 398.76,634.47 398.25,635.41C397.62,636.75 396.96,638.09 396.29,639.42C395.96,640.1 395.62,640.77 395.28,641.44C394.76,643.64 393.76,645.6 392.75,647.59C392.25,648.53 391.75,649.47 391.27,650.42C390.91,651.88 390.37,653.24 389.76,654.61C389.09,656.27 388.47,657.94 387.7,659.56C387.1,661.2 386.93,662.93 386.22,664.53C386.08,665.18 385.93,665.82 385.79,666.47C384.55,668.4 385.45,670.59 384.22,672.53C383.95,673.71 384.29,675.48 383.28,676.28C382.61,677.49 380.54,676.95 379.37,676.97C377.83,675.16 377.53,673.02 374.82,672.66C374.94,671.46 375.3,670.39 375.9,669.46C376.07,662.54 376.06,655.46 375.9,648.54C373.82,646.21 376.16,641.83 374.12,639.46C374.03,637.82 373.97,636.18 373.88,634.54C372.68,633.01 373.08,631.42 372.83,629.53C371.47,627.61 372.53,625.38 371.17,623.47C371.05,622.49 370.94,621.51 370.83,620.53C370.01,618.95 369.91,617.2 369.33,615.5C369.03,614.5 368.72,613.49 368.42,612.49C367.08,609.84 364.98,608.91 362.48,607.62C361.19,607.15 359.86,606.97 358.52,606.73C356.88,606.1 355.19,605.84 353.49,605.39C352.11,604.88 350.75,604.33 349.4,603.77C348.72,603.43 348.04,603.1 347.37,602.77C346.86,604.05 346.31,605.32 345.75,606.58C344.85,608.16 344.16,609.76 343.63,611.49C343.33,612.52 343.04,613.56 342.77,614.6C342.23,615.55 341.69,616.5 341.14,617.44C341.03,618.12 340.92,618.79 340.8,619.47C340.38,620.46 340,621.48 339.68,622.51C339.22,623.84 338.79,625.17 338.3,626.48C337.99,627.48 337.68,628.47 337.35,629.47C336.51,631.08 335.82,632.65 334.63,634.05C333.87,634.02 333.15,633.7 332.46,633.1C330.48,633.01 328.5,632.97 326.52,632.9C325.69,632.48 324.85,632.07 324.01,631.67C324.02,627.29 323.91,622.91 324.1,618.54C326.04,616.44 323.96,612.58 325.89,610.46C326.18,608.27 325.4,605.21 326.9,603.46C327.02,601.11 327.14,598.72 326.92,596.37C325.54,594.55 323.61,595.17 321.52,594.39C319.7,593.43 317.96,592.51 316.47,591.04C315.12,591.02 313.77,591 312.42,591C309.45,594.2 306.18,597.11 303.28,600.38C302.54,601.92 301.43,603.15 300.31,604.43C299.68,605.47 299.01,606.48 298.34,607.5C297.68,608.51 297,609.5 296.31,610.48C294.97,612.46 293.68,614.4 292.75,616.61C290.96,619.56 289.08,622.38 287.73,625.58C286.56,627.85 285.43,630.15 284.28,632.42C283.95,633.1 283.62,633.77 283.29,634.44C281.98,636.87 281.76,639.3 278.37,639.19C277.42,637.97 276.47,636.75 275.53,635.52C274.88,634.36 275,633.34 275.89,632.46C275.98,630.82 276.03,629.18 276.12,627.54C277.61,625.66 276.39,623.34 277.88,621.46C277.97,619.82 278.03,618.18 278.12,616.54C280.02,614.39 277.97,610.57 279.9,608.46C280,606.15 280,603.85 280.1,601.54C280.74,600.75 281.03,599.92 281,599.06C281.1,595.22 280.88,591.38 281.1,587.54C282.29,586.15 281.97,584.7 282.06,583C281.93,581.02 282.44,579.07 281.12,577.46C281.04,575.76 281.06,574.06 280.91,572.37C278.21,570.7 276.12,568.25 273.39,566.7C271.55,565.03 269.94,563.26 267.59,562.27C266.18,561.47 264.85,560.56 263.48,559.7C262.49,559 261.51,558.32 260.49,557.67C259.53,557.02 258.57,556.36 257.59,555.73C255.86,557.65 254.02,559.46 252.28,561.37C251.03,564.37 247.99,565.62 246.71,568.62C245.24,570.18 243.76,571.7 242.59,573.52C241.76,575.47 240.99,577.43 240.31,579.45C239.35,581.62 238.28,583.3 236.68,585.06C234.54,585.01 232.54,585.16 230.47,584.49C229.64,583.89 228.83,583.27 228.04,582.62C227.85,581.08 227.85,579.81 228.76,578.48C228.99,577.07 229.03,575.73 229.78,574.47C229.93,573.82 230.08,573.18 230.22,572.53C230.66,571.53 231,570.49 231.24,569.4C231.77,568.45 232.31,567.5 232.87,566.56C232.97,565.87 233.07,565.19 233.18,564.5C233.72,563.21 234.22,561.89 234.76,560.59C235.6,558.54 236.37,556.46 237.28,554.43C237.65,553.46 238,552.49 238.34,551.5C238.68,550.51 239.01,549.51 239.34,548.51C240.41,546.47 239.93,543.69 240,541.42C237.48,539.28 235.38,536.13 232.38,534.72C230.31,532.91 228.4,530.94 226.55,528.91C225.07,529.02 223.75,528.91 222.47,529.81C221.8,529.93 221.13,530.04 220.46,530.14C219.79,530.53 219.11,530.91 218.43,531.29C217.48,531.77 216.53,532.24 215.58,532.71C213.76,533.54 212.09,534.45 210.52,535.7C209.15,536.56 207.81,537.46 206.42,538.29C205.16,539.43 203.93,540.55 202.38,541.28C198.26,545.14 194.14,549.26 190.28,553.38C189.55,554.93 188.43,556.16 187.28,557.42C186.43,558.82 185.54,560.2 184.76,561.64C184.06,562.35 183.35,563.04 182.64,563.73C180.86,564.44 179.72,565.7 178.5,567.12C176.89,566.98 176.14,566.97 175.04,565.62C174.83,564.13 174.96,562.88 175.6,561.51C176.01,560.88 176.41,560.25 176.81,559.62C177.48,557.94 178.07,556.24 178.65,554.53C180.01,552.57 181.3,550.61 182.29,548.43C182.76,547.48 183.24,546.53 183.73,545.58C184.06,544.9 184.39,544.23 184.72,543.55C185.1,541.75 185.85,540.17 186.76,538.59C187.49,536.93 188.09,535.23 188.71,533.53C189.01,532.51 189.32,531.5 189.65,530.49C189.99,529.51 190.35,528.54 190.73,527.57C191.63,525.54 192.4,523.46 193.25,521.41C193.91,519.74 194.55,518.06 195.24,516.4C195.78,515.11 196.27,513.8 196.81,512.5C196.94,511.84 197.07,511.19 197.2,510.53C198.52,508.64 197.85,505.78 198.1,503.54C199.38,501.83 199.32,501.21 198.17,499.46C198.01,497.75 198.08,496.12 197.38,494.52C196.12,491.87 194.74,490.02 192.62,488C189.72,488.18 186.21,487.43 183.53,488.65C180.76,490.08 178.03,491.48 175.49,493.32C174.48,494.02 173.45,494.69 172.38,495.28C168.65,498.74 164.99,502.42 161.53,506.14C157.79,506.26 156.93,503.2 158.88,500.46C158.94,499.42 159,498.38 159.05,497.35C161.14,496.72 162.37,495.22 163.73,493.63C164.45,492.07 165.58,490.86 166.68,489.57C167.51,488.09 168.57,486.82 169.72,485.58C170.56,484.18 171.45,482.82 172.26,481.41C173.59,479.06 175.18,476.9 176.28,474.42C176.77,473.48 177.27,472.54 177.78,471.61C178.63,469.64 179.8,468.46 178.18,466.47C178.07,465.8 177.97,465.13 177.86,464.46C177.47,463.79 177.07,463.12 176.69,462.45C176.37,461.77 176.05,461.09 175.74,460.41C175.25,459.47 174.76,458.53 174.26,457.59C173.94,456.91 173.62,456.23 173.29,455.55C172.88,454.13 172.36,452.75 171.8,451.38C170.9,449.81 170.07,448.2 169.28,446.57C168.92,445.11 168.37,443.77 167.72,442.42C167.35,441.45 167,440.48 166.68,439.49C166.34,438.61 166.01,437.72 165.69,436.82C164.62,437.05 163.54,437.27 162.47,437.51C160.79,438.56 160.06,439.63 159.22,441.39C159,442.49 158.66,443.54 158.2,444.53C158.08,445.21 157.97,445.88 157.86,446.56C157.31,447.5 156.77,448.45 156.24,449.4C155.97,450.44 155.67,451.48 155.35,452.51C155.02,453.51 154.68,454.51 154.34,455.5C154,456.49 153.65,457.46 153.28,458.43C152.52,460.08 151.89,461.76 151.29,463.47C150.99,464.48 150.69,465.48 150.37,466.48C149.24,468.58 147.95,470.57 146.74,472.63C144.15,475.44 141.43,478.14 138.63,480.75C137.2,481.55 135.83,482.44 134.41,483.26C131.81,484.78 129.31,486.44 126.61,487.79C124.54,488.59 122.46,489.37 120.43,490.27C119.46,490.65 118.49,491.01 117.51,491.38C115.8,491.88 114.02,492.02 112.47,492.83C111.49,492.94 110.51,493.05 109.53,493.16C107.92,494.42 105.55,493.9 103.54,494.13C101.14,495.81 97.14,494.72 94.3,494.99C93.93,494.1 93.54,493.22 93.14,492.35C93.53,491.66 93.92,490.96 94.31,490.27C95.4,489.76 96.48,489.23 97.54,488.67C98.88,487.95 100.25,488.01 101.72,487.95C102.69,486.85 103.59,485.72 104.35,484.46C104.8,483.49 105.25,482.53 105.71,481.57C106.25,480.53 106.79,479.49 107.35,478.46C108.69,474.53 108.79,469.23 107.13,465.46C106.92,463.3 107.36,461.26 106.25,459.47C105.99,458.05 106.02,456.71 105.16,455.47C105.05,454.49 104.95,453.51 104.84,452.53C103.99,451.29 104.01,449.95 103.74,448.52C103.04,446.88 102.98,445.09 102.23,443.47C102.08,442.82 101.92,442.18 101.77,441.53C101.06,439.9 100.87,438.19 100.36,436.49C100.02,435.49 99.68,434.49 99.33,433.5C99,432.52 98.65,431.55 98.27,430.58C97.62,429.23 97.08,427.89 96.74,426.42C96.25,425.47 95.76,424.53 95.27,423.58C94.98,422.56 94.65,421.56 94.29,420.57C93.63,419.23 93.08,417.9 92.71,416.45C92.39,415.77 92.06,415.09 91.74,414.41C91.24,413.47 90.75,412.53 90.25,411.59C89.75,410.53 89.24,409.48 88.74,408.42C88.4,407.76 88.05,407.1 87.71,406.44C87.38,405.77 87.04,405.09 86.71,404.42C86.04,403.09 85.38,401.76 84.74,400.41C83.36,397.22 81.1,394.59 79.75,391.39C78.64,389.43 77.34,387.58 76.3,385.58C75.68,384.53 75,383.52 74.31,382.51C73.44,381.15 72.54,379.82 71.72,378.42C70.79,376.71 69.72,375.07 68.73,373.4C67.91,372.47 67.1,371.54 66.3,370.6C65.52,369.08 64.43,367.83 63.28,366.58C62.44,365.18 61.55,363.81 60.73,362.4C59.91,361.47 59.1,360.54 58.3,359.6C57.26,357.73 55.72,356.26 54.7,354.39C53.58,353.11 52.42,351.88 51.29,350.61C49.5,347.09 45.73,344.74 43.28,341.62C41.93,338.72 38.89,336.61 36.75,334.25C33.82,331.56 31.19,327.89 27.62,326.22C26.55,325.73 25.5,325.21 24.46,324.67C23.19,324.11 21.87,323.97 20.52,323.76C18.85,322.67 17.1,322.61 15.47,323.82C13.78,323.98 12.14,323.98 10.52,324.55C9.18,325.52 7.83,326.48 6.49,327.44C5.5,327.97 4.49,327.99 3.47,327.48C1.6,326.14 0.81,325.89 0.88,323.37C3.16,322.69 4.48,320.84 6.56,319.67C7.85,318.57 9.09,317.47 10.62,316.71C12.23,315.25 13.61,313.69 15.59,312.7C18.23,311.26 20.66,309.51 23.41,308.26C24.76,307.62 26.1,306.96 27.42,306.29C28.1,305.95 28.77,305.62 29.44,305.28C30.89,304.92 32.23,304.36 33.58,303.73C34.55,303.35 35.52,302.98 36.49,302.62C38.2,302.12 39.98,301.98 41.53,301.17C42.51,301.06 43.49,300.95 44.47,300.84C46.58,299.33 49.95,300.24 52.46,299.91C54.71,298.17 58.75,299.23 61.46,299.1C63.61,300.97 67.08,299.11 69.53,300.75C70.87,300.97 72.2,301.15 73.49,301.61C75.21,302.55 76.91,303.5 78.48,304.69C79.84,305.57 81.18,306.47 82.58,307.26C83.96,307.98 85.23,308.78 86.49,309.69C87.84,310.55 89.17,311.45 90.51,312.32C91.6,313.12 92.69,313.86 93.95,314.36L94.04,315.65C95.85,316.22 97.04,317.5 98.41,318.72C99.82,319.56 101.19,320.45 102.6,321.27C103.53,322.09 104.46,322.9 105.4,323.7C107.27,324.74 108.74,326.28 110.61,327.3C112.25,328.75 113.59,330.34 115.61,331.29C116.88,332.42 118.12,333.58 119.39,334.71C121.89,335.9 123.27,337.9 125.37,339.73C128.23,340.99 129.76,343.81 132.48,345.43C133.49,345.72 134.49,346.02 135.49,346.31C137.54,347.4 140.4,347.31 142.48,346.37C145.82,344.81 148.24,343.08 149.77,339.6C150.1,338.93 150.43,338.26 150.77,337.6C151.48,335.93 152.09,334.23 152.71,332.53C153.01,331.51 153.32,330.5 153.65,329.49C153.99,328.52 154.35,327.55 154.72,326.58C155.39,325.24 155.93,323.93 156.22,322.45C155.34,321.73 154.46,321.02 153.57,320.31C151.47,319.07 149.83,317.3 147.59,316.27C146.17,315.46 144.84,314.54 143.46,313.66C141.75,313.09 140.06,312.48 138.41,311.75C137.13,311.23 135.83,310.77 134.53,310.31C132.78,309.86 131.16,309.14 129.56,308.31C128.24,307.62 126.91,306.95 125.58,306.29C124.24,305.45 120.28,304.46 121.02,302.39C122.39,300.44 123.94,301.1 126,300.94C128.02,301.07 129.88,300.57 131.54,301.86C132.85,301.96 134.16,302.04 135.46,302.14C137.37,303.6 139.69,302.39 141.54,303.9C143.85,304 146.15,304 148.46,304.1C150.16,305.38 150.78,305.31 152.54,304.18C154.22,304.03 155.89,303.97 157.53,303.5C158.35,302.91 159.15,302.28 159.92,301.63C160.12,299.22 159.99,296.78 160.01,294.37C159.21,293.67 158.4,292.98 157.59,292.3C156.09,291.51 154.84,290.42 153.57,289.33C152.1,288.49 150.83,287.43 149.57,286.32C148.53,285.68 147.52,285 146.51,284.32C145.16,283.46 143.84,282.55 142.49,281.68C141.23,280.78 139.95,279.98 138.59,279.26C136.91,278.28 135.31,277.2 133.58,276.31C132.08,275.51 130.83,274.42 129.58,273.29C127.29,271.82 125,270.94 123.56,268.53C123.27,267.52 122.99,266.51 122.7,265.51C121.93,264.51 121.93,263.5 122.69,262.48C123.24,259.7 123.71,258.95 126.66,258.87C127.24,258.25 127.81,257.62 128.39,256.99C130.65,257.14 133.63,256.43 135.53,257.81C136.2,257.92 136.87,258.04 137.54,258.15C138.21,258.53 138.89,258.91 139.58,259.29C140.52,259.77 141.47,260.25 142.42,260.73C143.09,261.06 143.77,261.38 144.44,261.71C145.11,262.05 145.77,262.38 146.44,262.72C148.21,263.13 149.83,263.85 151.44,264.66C152.11,265.06 152.79,265.46 153.46,265.86C154.13,265.97 154.8,266.08 155.47,266.2C157.11,267.08 158.98,266.88 160.54,267.89C163.35,268.05 166.13,268.01 168.94,268C169.01,267.18 169.08,266.36 169.15,265.53C169.6,264.55 170.01,263.54 170.39,262.52C170.87,260.82 171.03,259.01 171.83,257.47C171.94,256.49 172.05,255.51 172.17,254.53C173.56,252.52 172.42,250.17 174.01,248.18C172.05,247.59 170.43,246.27 168.59,245.27C166.3,243.84 164.03,242.42 161.59,241.26C160.91,240.94 160.23,240.62 159.56,240.3C158.9,239.94 158.25,239.58 157.6,239.22C155.91,238.53 154.19,237.89 152.51,237.2C151.84,237.06 151.17,236.93 150.5,236.8C149,236.17 147.12,235.83 145.99,234.63C145.63,233.42 146.93,232.03 148.06,232.02C150.18,231.9 152.34,231.98 154.46,232.1C156.58,234.04 160.44,231.96 162.54,233.9C166.79,234.09 171.07,233.97 175.32,234C173.96,232.56 172.59,231.2 171.71,229.39C170.58,228.12 169.42,226.88 168.29,225.61C167.11,223.12 165.13,221.7 163.25,219.75C158.69,215.29 154.31,210.61 149.62,206.28C146.15,204.77 144.86,201.25 141.39,199.71C140.11,198.58 138.87,197.41 137.62,196.26C135.71,195.17 133.75,194.06 132.07,192.63C132.08,190.47 131.15,187.35 133.38,186.1C136.27,186.01 139.77,185.48 142.47,186.65C146.3,188.4 149.6,190.97 153.42,192.71C156.57,194.15 159.24,196.34 162.41,197.74C163.09,198.06 163.77,198.38 164.45,198.71C165.88,199.11 167.25,199.64 168.61,200.23C169.89,200.78 171.2,201.27 172.5,201.8C173.16,201.94 173.81,202.08 174.47,202.22C176.12,203.06 177.98,202.89 179.54,203.89C182.84,204.06 186.16,204.06 189.46,203.89C191.02,202.89 192.88,203.06 194.53,202.22C195.18,202.08 195.84,201.94 196.49,201.81C197.35,201.42 198.22,201.04 199.09,200.68C199,199.24 198.98,197.86 198.4,196.51C197.22,194.44 195.96,192.42 194.74,190.38C192.48,188.11 190.3,185.1 187.38,183.72C185.52,182.07 183.8,180.3 182,178.58L182,175C183.86,175 185.72,175 187.58,175.01C188.17,175.58 188.77,176.16 189.37,176.73C191.42,177.97 193.4,179.27 195.57,180.3C196.52,180.77 197.48,181.24 198.43,181.72C199.08,182.07 199.74,182.42 200.4,182.78C202.06,183.46 203.74,184.09 205.41,184.75C207.37,185.59 209.36,186.33 211.35,187.1C210.79,184.74 208.82,183.44 207.29,181.62C204.28,176.69 198.96,173.12 195.28,168.62C192.29,163.69 186.96,160.12 183.28,155.62C181.73,152.44 178.41,150.14 176,147.59L176,143.4C177.34,142.14 178.66,140.86 180,139.6C180,138.73 180,137.85 180.01,136.98C182.13,137.12 184.77,136.49 186.53,137.81C187.2,137.92 187.87,138.03 188.54,138.14C189.21,138.53 189.89,138.92 190.57,139.31C191.53,139.76 192.49,140.21 193.46,140.64C195.34,141.73 196.8,143.25 198.39,144.7C200.27,145.72 201.73,147.28 203.61,148.3C204.89,149.42 206.12,150.58 207.38,151.71C208.45,152.32 209.48,152.99 210.49,153.68C211.84,154.55 213.16,155.46 214.51,156.32C215.52,157 216.53,157.68 217.58,158.3C218.19,158.77 218.81,159.24 219.42,159.72C222.04,161.46 224.74,162.92 227.53,164.36C228.81,164.87 230.13,165.03 231.48,165.25C232.81,166.14 234.07,166.15 235.61,165.96C236.75,164.5 237.74,162.94 238.88,161.48C238.98,160.83 239.08,160.18 239.18,159.53C240.56,157.38 240.32,152.8 239.34,150.49C239.01,149.49 238.67,148.5 238.34,147.5C237.84,145.78 237.12,144.16 236.33,142.55C235.27,140.42 233.98,138.44 232.73,136.41C231.9,134.56 230.64,133.08 229.31,131.57C228.68,130.53 228,129.52 227.31,128.52C226.43,127.15 225.53,125.8 224.74,124.38C223.27,122.78 221.73,121.24 220.28,119.62C218.8,116.48 215.45,114.36 213.28,111.63C212.56,109.93 211.35,108.77 210.02,107.55C210.01,106.17 210,104.8 210,103.43C210.81,102.63 211.62,101.82 212.43,101L215.58,101C222.04,107.68 228.74,114.13 235.23,120.78C236.22,121.83 237.31,122.62 238.57,123.32C239.98,124.49 241.15,125.78 242.95,126.35L243.05,127.64C244.93,128.54 246.63,129.7 248.36,130.84C249.73,131.36 251.11,131.88 252.51,132.33C253.5,132.67 254.49,133.02 255.49,133.35C256.77,133.87 258.12,134.03 259.48,134.24C261.14,135.33 262.77,135.33 264.43,134.27C265.8,133.59 267.11,133.06 268.62,132.8C269.42,132.07 270.22,131.33 271.02,130.6C270.93,128.57 271.38,126.3 270.28,124.57C269.57,123.19 269.05,121.89 268.82,120.34C268.23,119.76 267.64,119.19 267.05,118.61C266.98,117.92 266.91,117.23 266.84,116.54C266.03,114.98 265.88,113.26 265.4,111.52C264.25,109.44 262.98,107.44 261.71,105.43C261.2,104.47 260.68,103.5 260.15,102.54C260.04,101.87 259.94,101.2 259.82,100.53C259.27,99.83 258.99,99.12 258.99,98.4C260.31,96.56 261.62,96.91 263.62,97.04C265.42,100.31 268.55,102.41 270.29,105.61C271.42,106.88 272.58,108.12 273.71,109.39C274.97,111.96 277.07,113.94 279.56,115.32C281.69,117.41 284.21,118.63 286.76,120.09C287.66,118.89 288.57,117.71 289.47,116.51C290.24,114.03 290.43,110.89 289.37,108.48C289.01,107.51 288.64,106.55 288.27,105.58C287.66,104.24 287.1,102.9 286.65,101.5C286.32,100.5 285.99,99.51 285.65,98.51C284.74,96.66 285.04,94.68 284.86,92.54C284,91.01 283.9,89.19 283.36,87.49C283.02,86.49 282.67,85.5 282.32,84.5C282.01,83.5 281.68,82.5 281.35,81.5C280.9,80.1 280.34,78.75 279.73,77.42C279.35,76.45 279,75.48 278.66,74.5C278.32,73.51 277.98,72.51 277.64,71.51C277.08,69.82 277.02,67.95 276.11,66.46C275.95,63.64 275.99,60.84 276,58.02C277.82,58.01 279.64,57.99 281.46,57.9C284.01,56.13 286.21,56.53 287.29,59.59C287.98,61.01 288.79,62.25 289.76,63.49C290.03,64.49 290.31,65.48 290.59,66.47C292.25,68.71 293.55,70.89 294.74,73.41C295.06,74.09 295.38,74.76 295.71,75.44C296.05,76.1 296.4,76.76 296.74,77.42C297.24,78.48 297.75,79.53 298.25,80.59C298.75,81.53 299.25,82.47 299.74,83.41C300.06,84.09 300.38,84.77 300.7,85.44C301.54,87.24 302.46,88.92 303.7,90.48C304.57,91.85 305.47,93.2 306.26,94.63C308.32,96.87 310.53,98.96 312.57,101.23C313.92,100.39 315.24,99.52 316.63,98.75C317.35,98.05 318.06,97.35 318.76,96.64C319.55,95.19 320.44,93.81 321.25,92.37C321.82,91.78 322.38,91.18 322.95,90.59C323.01,89.9 323.08,89.22 323.14,88.54C324.18,87.49 324.17,86.46 323.1,85.46C322.84,83.24 323.55,80.32 322.17,78.46C321.97,76.69 322.2,75.07 321.25,73.47C320.99,72.05 321.02,70.71 320.17,69.47C320.05,68.49 319.94,67.51 319.83,66.53C319.02,64.97 318.89,63.2 318.36,61.49C318.02,60.49 317.67,59.5 317.32,58.5C317.01,57.5 316.68,56.49 316.33,55.5C316.01,54.5 315.67,53.5 315.33,52.5C315.01,51.5 314.67,50.5 314.33,49.5C314.01,48.5 313.67,47.5 313.33,46.5C313.01,45.49 312.67,44.49 312.32,43.5C312,42.5 311.68,41.49 311.35,40.49C311,39.47 310.62,38.47 310.22,37.47C310.07,36.82 309.93,36.18 309.78,35.53C309.39,34.53 309,33.53 308.64,32.53C307.13,29.89 308.69,30 310.48,28.53C311.5,28.29 312.51,28.06 313.53,27.83C314.59,29.02 315.66,30.2 316.71,31.4C317.32,32.46 317.99,33.48 318.68,34.49C319.55,35.84 320.45,37.16 321.32,38.51C322.22,39.77 323.02,41.04 323.73,42.42C324.98,44.45 326.29,46.4 327.29,48.58C328.51,51.35 330.24,53.79 331.74,56.41C332.55,57.82 333.44,59.18 334.28,60.58C335.43,61.82 336.49,63.09 337.32,64.57C338.42,65.86 339.55,67.07 340.28,68.63C341.55,70.09 342.93,71.45 344.37,72.75C345.81,73.55 347.19,74.44 348.61,75.26C349.2,75.78 349.79,76.29 350.39,76.8C351.49,77 352.54,77.32 353.53,77.78C354.18,77.93 354.82,78.07 355.47,78.21C357.78,79.68 361.29,78.79 363.95,78.99C364.01,78.17 364.07,77.36 364.14,76.54C365.9,73.63 364.71,68.88 364.9,65.54C363.54,64.02 364.12,61.5 363.87,59.54C362.14,56.98 363.3,52.68 363.05,49.68C363.88,50.07 364.7,50.46 365.51,50.86C366.24,50.92 366.98,50.99 367.71,51.06C368.06,51.87 368.42,52.68 368.78,53.49C368.97,54.87 369.11,56.22 369.65,57.51C369.98,58.51 370.32,59.51 370.66,60.5C371,61.49 371.35,62.46 371.73,63.43C372.49,65.07 373.1,66.74 373.65,68.46C374.52,69.83 375.44,71.15 376.33,72.51C377.01,73.52 377.68,74.54 378.29,75.59C378.98,76.4 379.67,77.21 380.37,78.01C382.89,78 385.42,78 387.94,78C388,77.18 388.07,76.36 388.14,75.54C389.54,73.86 388.87,71.08 389.04,69C388.85,66.94 389.56,64.08 388.1,62.46C388,60.15 388,57.85 387.9,55.54C385.96,53.43 388.05,49.56 386.1,47.46C385.97,41.78 385.89,36.05 386.08,30.38C387.11,29.49 388.24,28.76 389.35,27.98C391.1,29.07 392.81,30.23 394.53,31.36C395.33,31.66 396.14,31.96 396.95,32.25C397.01,32.99 397.08,33.73 397.15,34.46C398.02,35.7 397.99,37.05 398.26,38.48C398.91,40.12 399.16,41.82 399.62,43.52C399.99,44.53 400.39,45.53 400.79,46.52C400.93,47.19 401.06,47.85 401.19,48.51C402.29,50.4 403.04,52.4 403.69,54.48C404.01,55.47 404.35,56.46 404.71,57.43C405.47,59.1 406.13,60.8 406.81,62.49C406.94,63.16 407.06,63.84 407.19,64.51C407.88,66.2 408.54,67.91 409.26,69.59C409.85,71 410.13,72.95 411.36,73.92C413.59,73.98 416.68,74.59 418.54,73.14C419.36,73.07 420.18,73 421,72.94C420.96,68.48 421.1,64 420.9,59.54C418.99,57.44 420.98,53.74 419.17,51.46C418.95,49.65 419.25,48.06 418.2,46.47C418.07,45.81 417.94,45.16 417.81,44.5C417.43,43.68 417.06,42.86 416.7,42.04C418.71,42.01 420.72,42 422.73,42C423.04,42.83 423.36,43.66 423.68,44.49C424.01,45.52 424.38,46.53 424.79,47.53C424.92,48.18 425.06,48.84 425.2,49.5C425.73,50.8 426.22,52.11 426.76,53.4C427.48,55.06 428.08,56.75 428.66,58.46C429.72,60.09 430.82,61.68 431.71,63.41C432.82,65.31 433.87,68 436.53,66.49C437.8,65.65 438.65,64.82 439.42,63.51C439.69,62.68 439.96,61.86 440.22,61.03L441.72,60.96C442.06,60.16 442.4,59.37 442.75,58.58C443.46,56.9 444.12,55.2 444.8,53.51C444.94,52.85 445.08,52.19 445.22,51.53C446.03,49.9 445.95,48.07 446.83,46.47C446.94,45.49 447.05,44.51 447.16,43.53C448.42,41.92 447.9,39.55 448.13,37.54C449.7,35.48 448.75,32.03 449.09,29.54C450.73,27.54 449.74,24.01 450.09,21.54C452.02,19.45 450.02,15.74 451.83,13.46C452.02,11.69 451.8,10.07 452.74,8.47C452.97,7.12 453.15,5.78 453.61,4.48C454.07,3.25 454.55,2.03 455.07,0.82Z" style="fill-rule:nonzero;"/>
    <path d="M456.33,31.96C457.21,32.97 456.82,34.74 456.89,35.99C456.43,46.04 458.16,56.33 461.1,65.93C462.46,70.53 465.55,74.17 469.96,76.09C479.16,80.81 491.12,79.46 499.94,84.28C496.17,98.77 492.36,113.69 480.82,124.08C481.31,124.68 481.81,125.28 482.3,125.88C488.39,122.22 493.21,118.06 497.15,112.11C504.99,100.97 508.51,86.67 511.6,73.6C512.55,69.12 513.87,64.87 514.33,60.32L514.99,60.37C513.88,64.6 513.9,68.85 513.62,73.17C512.79,82.18 513.28,91.01 513.86,100C513.75,105.19 514.13,110.04 514.8,115.18C514.91,122.65 515.26,130.09 515.79,137.55C515.75,139.24 518.15,139.89 519.32,140.73C521.19,140.25 523.1,139.98 525.03,139.75C525.42,135.06 523.9,130.66 524.07,126C524.15,120.65 523.41,115.36 523.34,110.01C523.18,104.58 523.96,99.32 524.1,93.91C531.8,97.59 539.47,101.44 547.37,104.67C552.3,106.76 557.41,107.38 562.66,108.02C572.7,100.34 582.17,91.25 587.99,79.89C584.42,90.39 580.81,103.06 583.05,114.13C581.16,113 579.21,111.61 577.12,110.88C575.21,110.39 573.78,111.95 572.29,112.86C574.71,115.46 577.16,117.95 580.21,119.82C584.66,122.86 589.71,124.69 594.07,127.85C597.81,130.25 601.53,132.66 604.99,135.45C603.47,137.77 601.47,139.57 599.58,141.55C591.26,150.65 580.4,156.72 569.88,162.83C568.19,163.78 567.96,164.51 567.64,166.4C580.26,164.93 591.93,157.72 601.42,149.59C607.31,145.48 610.65,139.93 615.11,134.53C607.35,154.53 601.56,174.32 602.57,196.03C602.57,197.41 603.06,198.51 604.04,199.33C605.71,198.62 606.19,197.31 606.62,195.68C610.05,180.87 612.3,164.77 618.19,150.71C624.8,157.83 629.07,166.07 636.76,172.28C639.68,175.19 645.36,174.12 649.14,174.01C660.14,172 670.74,165.92 680.53,160.71C675.68,165.8 670.51,170.58 665.93,175.97C662.51,180.78 659.03,186.68 658.62,192.68C657.09,191.55 655.75,190.37 654.58,188.87C652.91,188.82 651.25,188.8 649.59,188.79C650.33,191.99 651.87,194.78 653.2,197.74C658.71,210.23 663.65,222.71 666.86,236.02C669.55,243.83 670.73,252.3 671.14,260.54C672.54,271.16 670.42,281.37 670.86,292C670.33,306.94 670.42,320.96 677.21,334.66C675.37,334.95 673.75,334.85 672.32,336.23C669.63,338.73 666.77,340.68 664.61,343.56C657.83,352.02 653.54,361.68 645.67,369.69C643.07,372.11 639.94,374.03 637.05,376.09C639.38,370 640.71,363.5 641.1,357C640.89,352.98 640.13,348.78 638.96,344.92C641.07,339.31 643.8,334.94 647.88,330.55C648.08,326.51 651.05,324.39 652.51,320.49C658.43,306.07 657.49,289.57 652.89,274.91C656.55,275.93 659.55,277.51 663.36,276.03C658.4,266.71 652.57,257.95 647,249C640.6,239.81 633.94,230.78 627.22,221.82C625.98,220.06 624.69,218.4 625.18,216.11C626.13,212.3 630.05,209.72 631.13,206.12L630.24,204.44C621.3,210.37 612.31,216.18 603.83,222.78C598.73,226.11 595.06,230.51 590.72,234.71C587.64,237.68 585.22,241.19 582.25,244.26C578.33,248.41 575.89,253.17 573.13,258.1C569.23,265.57 567.25,273.31 568.05,281.78C571.1,280.7 573.62,278.85 576.87,278.32C577.49,285.62 578.43,292.87 580.16,300C574.89,300.4 570.31,298.7 565.92,301.96C565.98,302.88 566.04,303.8 566.1,304.73C577.05,306.69 588.22,309.2 598.55,313.42C605.43,316.6 611.96,320.46 618.15,324.84C625.23,330.48 628.86,338.59 630.6,347.3C631.31,351.7 632.48,355.53 631.67,360.01C630.78,367.52 629.4,374.89 627.24,382.13C622.24,397.61 614.09,411.41 604.24,424.27C598.69,430.45 593.33,436.82 588.2,443.36C588.57,443.97 588.94,444.59 589.31,445.21C593.21,444.67 596.49,443.11 599.62,440.78C601.09,438.48 603.55,437.3 605.09,435.06C608.34,430.88 610.7,426.12 614.23,422.19C617.68,418.07 619.44,413.3 623.66,409.68C625.61,407.76 627.97,407.46 630.51,406.86C632.86,411.53 635.11,416.21 636.72,421.19C640.07,430.67 641.75,440.64 645.08,450.11C638.85,456.87 636.37,464.85 633.36,473.31C632.67,478.46 630.53,482.55 633.22,487.53C639.29,482.12 639.34,474.27 643.86,467.87C646.03,464.79 650.15,462.68 653.93,463.2C656.94,464.99 659.72,466.91 663.2,467.75C681.77,471.82 703.09,460.89 710.08,443.08C711.38,440.11 711.1,437.04 712.06,433.99C714.23,427.9 713.57,420.74 711.44,414.71C709.11,407.1 706.12,399.56 708.59,391.54C710.57,387.84 713.13,384.57 714.63,380.6C716.27,376.26 717.69,371.65 718.19,367.03C718.2,360.21 719.09,353.82 715.23,347.76C712.14,342.34 707.14,338.94 701.58,336.39C698.92,335.17 696.24,335.01 693.82,333.39C696.35,329 697.75,323.85 701.29,320.29C704.93,315.8 710.79,318.81 712.67,323.31C721.21,340.79 730.49,359.38 733.2,378.84C734.28,384.04 733.58,389.65 733.81,395C734.01,402.2 731.66,408.28 729.88,414.98C727.55,430.44 718.78,444.93 708.16,456.16C700.19,464.16 692.34,472.41 683.72,479.71C678.34,484.83 673.19,490.19 667.92,495.43C665.1,489.25 665.28,480.04 660.23,475.41C659.36,475.91 658.5,476.4 657.63,476.89C658.14,486.16 662.26,495.85 665.53,504.44C666.55,507.16 668.1,509.51 669.55,512.02C665.98,510.47 662.65,508.49 659.15,506.84C651.89,503.73 645.93,499.52 637.88,498.38C637.43,499.27 636.97,500.17 636.52,501.07C637.97,505.58 641.51,505.04 645.08,506.92C648.19,508.64 649.39,513.34 650.33,516.53C651.11,519.13 649.8,521.11 648.88,523.46C647.55,523.97 646.23,524.49 644.92,525.03C644.72,526.26 644.95,528.05 644.08,529.02C634.52,540.69 626.01,552.07 613.86,561.25C613.23,558.05 612.38,555.08 610.9,552.16C607.05,543.99 604.9,535.18 600.93,527.08C598.43,520.51 595.81,514.03 592.33,507.91C593.61,519.38 595.97,530.63 599.33,541.67C600.7,546.95 603.42,551.66 605.14,556.84C610.88,572.21 618.61,586.69 627.51,600.44C628.54,602.01 629.51,603.61 630.28,605.32C628.07,603.72 627.23,601.49 625.8,599.26C622.45,593.82 618.51,588.49 614.35,583.64C610.09,579.17 607,574.6 602,570.98C598.93,568.67 596.52,565.82 593.69,563.28C586.42,557.14 578.77,551.49 570.97,546.05C567.92,543.38 562.86,543.77 559.03,542.72C558.54,543.51 558.06,544.3 557.58,545.1C560.03,546.92 562.13,548.88 565.11,549.85C569.71,551.43 574.03,554.11 577.08,557.95C582.16,563.93 584.62,572.38 585.79,580.01C586.14,581.91 584.15,582.85 582.95,583.89C577.5,587.99 571.53,589.49 565.58,592.56C556.3,597.42 546.55,601.43 536.51,604.41C533.38,605.22 530.26,605.98 527.21,607.04C525.87,601.92 525.29,596.72 524.77,591.47C523.62,584.76 524.29,577.91 524.07,571C523.89,566.68 524.84,562.57 525.19,558.29C523.2,557.15 521.42,555.96 519.06,555.77C517.42,560.45 518.14,565.16 517.22,570.02C516.71,576.86 516.61,584.21 517.43,591.02C518.72,611.78 522.53,632.54 525.87,653.07C522.51,643.62 519.43,634.04 516.61,624.42C510.59,605.87 504.44,588.19 492.56,572.43C488.86,567.9 485.6,563.25 481.01,559.54C479.86,560.67 478.72,561.8 477.59,562.94C478.98,565.9 481.36,567.27 483.73,569.3C485.38,570.75 484.99,572.56 485.2,574.54C490.23,580.78 494.87,587.85 497.53,595.45C499.78,601.44 500.15,607.41 499.88,613.75C496.94,614.24 494.02,614.72 491.03,614.83C483.01,615.37 475.02,616.95 466.98,616.98C462.29,617.31 457.72,617.95 453,617.59C449.06,617.25 445.13,616.83 441.18,616.6C443.89,602.77 446.24,588.85 448.98,575.03C449.58,571.92 448.29,569.62 446.89,567C445.49,567.54 444.03,568 442.71,568.71C441.37,570.61 441.18,573.47 440.59,575.7C435.88,597.04 432.62,618.62 431.48,640.45C430.13,610.76 418.94,581.68 404.69,555.89C403.67,556.94 402.65,557.98 401.63,559.03C403.49,562.02 404.29,565.28 405.45,568.56C407.88,575.59 409.55,582.81 410.42,590.19C411.66,597.52 410.68,604.5 409.77,611.76C389.43,607.5 369.9,601.24 350.25,594.44C349.86,593.64 349.86,592.92 350.24,592.3C356.05,579.65 361.92,566.86 369.1,554.93C369.1,553.01 367.86,551.66 366.4,550.61C366.27,553.43 363.83,555.13 362.17,557.15C358.93,560.48 356.53,564.34 354.26,568.37C346.34,581.18 341.75,595.44 336.25,609.31C334.38,612.94 332.81,616.68 331.01,620.34C333.36,609.62 334,598.84 335.37,588C336.24,579.46 335.64,570.96 334.3,562.51C333.55,551.58 330.97,541.04 327.61,530.65C326.59,531.24 324.77,531.42 324.99,532.98C324.73,536.78 325.8,540.23 325.95,543.96C325.94,550.5 327.47,556.64 326.22,563.19C325.95,570.77 322.67,577.64 317.48,583.09C315.94,581.53 314.7,580.04 312.46,579.52C303.73,577.06 296.38,572.19 289.25,566.72C283.53,561.46 277.22,557.38 270.73,553.23C270,552.92 269.84,552.27 270.24,551.29C274.1,539.65 282.77,529.79 291.99,521.98C293.4,520.71 294.35,519.25 293.98,517.26C292.52,514.91 290.18,516.22 288.42,517.39C286.09,519.27 283.33,520.26 280.85,521.85C276.1,526.32 272.01,531.86 266.84,535.85C262.44,539.72 258.91,544.59 254.73,548.72C251.23,552.52 247.91,556.57 244.65,560.57C242.49,563.09 241.22,566.14 238.93,568.54C240.52,563.97 242.24,559.44 243.96,554.91C251.17,535.1 257.02,515.11 260.29,494.24C261.21,490.18 261.7,486.69 259.51,482.92C258.41,483.34 257.3,483.76 256.2,484.19C255.45,494.02 252.75,503.96 249.14,513.13C246.73,519.29 243.49,524.98 240.58,530.9C230.97,523.38 222.29,514.91 214.51,505.51C209.53,498.71 204.7,491.8 199.68,485.02C202.91,480.3 206.02,475.13 210.22,471.22C216.17,464.77 224.03,459.82 231.79,455.82C233.51,454.88 235.51,454.18 237.04,452.94C237.23,451.69 235.56,450.81 234.86,449.93C233.9,449.97 232.94,450.01 231.99,450.05C223.32,455.44 213.74,458.01 204.68,462.23C211.71,451.12 219.89,442.83 223.96,430C224.7,426.92 222.62,423.95 220.82,421.66C217.28,426.89 213.95,432.26 210.57,437.59C207.53,442.83 204.66,448.07 200.87,452.83C197.26,458.25 193.76,463.77 190.26,469.27C184.05,454.69 174.33,443.37 171.73,427.44C174.54,427.77 177.37,427.85 179.96,428.98C184.49,430.89 188.85,434.03 193.5,435.54C194.62,435.88 196.52,436.56 196.87,434.9C197.22,433.51 197.02,431.93 196.97,430.51C190.57,426.37 184.52,422.64 176.73,421.8C182,413.48 188.77,406.82 190.74,396.79C190.95,394.56 191.88,391.47 189.63,390.01C187.9,389.66 187.94,390.91 187.1,392.04C183.16,398.75 181,407.04 176.21,413.18C174.51,415.39 172.31,416.93 169.95,418.35C168.28,415.02 169.43,410.85 168.54,407.19C168.27,404.92 167.03,403.39 165.68,401.66C163.89,403.56 162.28,405.24 162.01,407.97C161.22,414.05 164.27,419.23 164,425.05C164.05,425.91 163.71,426.53 162.97,426.91C160.31,428.54 156.2,427.48 154.12,430.21C152.84,434.17 152.63,438.41 151.4,442.4C148.53,452 143.2,460.99 135.99,467.96C130.78,472.2 125.39,476.07 119.13,478.63C119.39,472.5 118.68,466.18 117.06,460.26C119.86,458.03 123.34,456.45 125.86,453.94C128.01,450.88 130.24,448.23 132.94,445.65C133.1,444.63 133.25,443.61 133.39,442.59C127.99,447.15 123.21,452.23 117.19,456.07C115.75,450.75 114.08,445.5 112.59,440.19C112.27,438.8 111.71,436.75 112.48,435.45C116.08,429.76 122.76,429.19 125.48,422.62C119.71,423.86 115.35,429.86 109.61,431.08C108.02,427.48 106.24,424.14 105.91,420.13C110.53,418.46 116.49,416.51 119.78,412.67C119.75,412.04 119.54,411.37 119.14,410.64C113.43,413.14 109.19,416.73 102.61,415.8C99.88,409.3 96.55,403.05 93.17,396.88C91.6,393.96 89.73,391.5 88.86,388.25C94.38,388.08 102.31,388.58 105.99,383.55C99.21,384.53 93.13,385.4 86.3,383.68C83.37,382.46 83.14,379.93 82.94,377.13C90.2,377.12 97.48,377.24 104.74,377.01C102.36,375.43 99.99,374.02 97.05,373.9C91.39,373.77 85.71,373.88 80.04,373.86C77.06,368.64 73.86,363.56 70.18,358.8C66.99,355 63.17,351.32 60.76,346.95C70.54,345.85 81.04,345.69 90.79,346.98C91.24,346.33 91.69,345.68 92.14,345.03C80.95,339.67 68.09,346.05 56.38,341.58C52.26,339.75 49.68,336.32 47.6,332.45C53.78,331.1 59.97,329.77 66.16,328.42C68.6,327.83 70.89,327.84 72.78,325.95C68.86,325.58 64.93,325.64 61,325.8C55.16,326.21 49.25,327.84 43.39,327.86C40.46,323.7 36.93,320.13 33.35,316.55C33.67,315.84 33.99,315.13 34.31,314.42C41.4,309.51 49.58,308.39 58.01,308.4C61.89,308.74 65.76,309.14 69.64,309.47C74.74,310.74 79.76,312.9 83.97,316.07C88.57,319.07 92.94,322.29 97.11,325.86C103.69,331.97 110.41,337.89 116.74,344.27C121.56,348.31 126.39,352.88 131.89,355.94C136.44,356.18 141.58,356.51 145.85,354.8C150.55,353.3 154.32,350.47 158.07,347.36C156.82,354.9 157.69,360.31 161.19,367.02C161.78,366.58 162.37,366.13 162.95,365.69C163.4,359.11 164.16,352.61 164.03,346C164.09,341.7 163.71,337.23 164.35,332.99C165.13,328.13 165.1,323.46 166.58,318.58C167.99,315.73 170.38,313.24 172.45,310.86C177.73,311.36 182.56,314 186.19,317.8C187.54,319.82 188.18,321.6 190.81,322.22C193.62,322.97 194.61,323.96 196.27,326.28C197.44,324.88 198.52,324.21 197.86,322.19C194.32,315.04 189.75,308.52 184.26,302.74C170.32,288.13 151,277.32 134.38,265.91C150.7,272.04 165.31,278.98 183.03,281.03C186.37,281.26 189.66,281.89 192.99,282C197.03,282.14 200.87,281.26 204.98,281.02C207.99,281.07 209.89,279.34 212.4,277.96C211.65,277.26 210.87,276.61 210.06,275.99C205.75,274.83 200.55,275.17 196.17,274.86C189.68,273.98 183.22,273.35 176.84,271.8C180.4,261.05 182.09,249.89 185.03,239C182.76,230.46 177.67,223.62 171.77,217.23C167.55,212.85 162.86,208.6 159.28,203.68C167.64,206.68 175.19,210.41 184.05,212.22C190.81,213.81 197.86,213.41 204.03,210.06C205.73,209.18 206.92,207.95 208.95,208.04C214.8,207.89 221.27,206.43 226.56,209.75C234.97,210.24 237.47,219.08 243.63,223.3C245.03,220.9 246.78,219.33 245.81,216.3C241.33,204.09 232.43,196.85 225.56,186.45C224.02,184.31 222.15,182.56 220.27,180.73C214.9,175.42 209.53,170.14 204.18,164.81C197.83,159.83 192.44,153.64 186.65,148.01C187.38,147.64 188.11,147.27 188.85,146.9C193.94,150.23 199.01,153.59 204.16,156.82C219.26,167.3 234.78,179.74 252.33,185.78C257.9,187.6 263.88,189.21 269.78,189.08C270.9,187.76 272.25,187.15 272.05,185.19C269.67,184.11 267.29,184.07 264.74,183.28C256.22,180.58 248.4,175.59 240.12,172.56C243.59,168.51 247.7,166.39 248.71,160.78C250.69,151.13 244.82,142.46 240.4,134.41C244.6,136.94 248.75,139.55 252.98,142.01C258.47,145.3 266.04,144.49 271.5,141.53C280.39,136.82 287.39,127.49 294.88,121.82C297.17,130.86 300.84,140.7 301.02,150C301.24,153.23 299.75,157.03 302.67,159.38C304.47,161.24 305.8,158.82 307.03,157.66C306.9,153.1 307.16,148.54 306.93,143.99C306.2,137.34 305.09,130.79 303.63,124.26C299.27,106.48 291.7,90.3 285.89,73.27C286.61,74.16 287.29,75.09 287.92,76.04C296.83,90.7 303.29,105.85 312.79,120.18C314.54,122.78 316.46,125.24 318.17,127.86C320.36,131.3 323.31,133.75 326.24,136.76C330.2,140.73 334.89,143.43 339.75,146.11C340.19,145.24 340.64,144.36 341.08,143.49C337.28,139.68 333.14,136.42 329.88,132.09C324.67,125.23 320.33,117.67 315.51,110.52C318.94,108.85 322.25,107.77 325.21,105.24C329.21,101.71 331.72,96.86 332.59,91.61C333.79,87.08 332.33,82.18 331.38,77.65C329.28,70.08 326.4,62.7 323.98,55.22C327.02,59.45 328.64,64.22 331.2,68.69C333.21,72.42 336.34,75.68 339.21,78.8C347.36,86.63 358.01,88.9 369,88.65C375.74,88.14 382.39,87.58 388.97,85.91C389.04,89.04 388.83,91.92 388.28,95C387.66,102.32 386.87,109.91 384.82,116.99C384.26,119.04 383.31,121.02 382.95,123.11C382.81,125.55 382.99,128.02 383.13,130.46C387.98,123.74 391.88,116.09 393.85,108C396.66,97.05 396.82,85.26 396.13,74.03C396.4,68.26 395.1,62.72 395.04,56.98C394.93,54.04 393.77,51.69 394.36,48.93C396.34,56.68 398.4,64.47 400.92,72.07C404.99,81.4 407.29,91.47 411.01,100.94C415.09,110.25 417.77,119.48 425.8,126.31C426.2,125.24 426.55,124.16 426.86,123.07C425.43,117.97 424.01,112.88 422.02,107.97C418.87,99.54 414.77,90.15 414.99,81.05C424.71,81.68 434.43,79.74 442.92,74.91C446.12,73.27 448.08,69.71 449.79,66.67C454.94,55.64 455.19,43.85 456.33,31.96Z" style="fill:rgb(247,231,127);fill-rule:nonzero;"/>
    <path d="M448.74,100.18C451.45,123.29 456.44,146.6 465.22,168.21C464.08,168.46 462.5,169.83 461.76,168.28C454.84,159.38 451.62,147.02 449.7,136.09C448.84,132.15 448.98,128.32 447.48,124.51C446.52,129.03 445.41,133.44 444.77,138C443.72,144.6 442.83,151.94 440.11,158.11C438.54,161.87 435.47,164.34 434.64,168.47C434,171.05 432.94,171.68 430.6,172.75C431.5,167.78 433.1,162.95 434.22,158.02C439,139.32 442.79,120.42 446.36,101.46C446.54,99.96 447.33,99.53 448.74,100.18Z" style="fill-rule:nonzero;"/>
    <path d="M350.16,112.29C354.29,117.84 358.05,123.71 361.16,129.89C368.27,142.25 375.14,155.86 383.81,167.15C385.88,170.06 388.62,172 388.68,175.81C386.06,175.87 384.3,175.59 382.34,173.73C371.01,164.14 366.8,149.27 360.02,136.63C359.71,141.77 361.14,146.67 361.18,151.82C362.54,159.24 361.81,166.51 362.02,174C362.29,178.95 360.73,183.25 359.81,188.02C358.88,188.39 357.94,188.74 357.01,189.09C356.98,185.3 358.35,181.82 358.03,178C357.78,172.37 358.52,166.48 357.46,160.95C355.38,145.16 350.47,130.16 348.49,114.23C349.03,113.57 349.59,112.93 350.16,112.29Z" style="fill-rule:nonzero;"/>
    <path d="M555.1,123.22C556.16,125.45 556.63,127.33 555.71,129.72C550.5,145.05 547.58,160.9 546.08,176.99C545.98,185.36 544.92,193.44 545.81,201.85C544.65,202.75 543.69,202.97 542.27,203.22C541.42,199.5 540.64,195.8 540.17,192.01C538.84,178.03 542.99,162.96 544.03,149.46C541.04,153.34 538.77,157.8 535.66,161.56C531.52,166.01 528.57,170.94 523.48,174.5C519.96,177.32 516.02,178.91 511.65,179.96C515.27,176.1 519.21,172.71 522.35,168.41C527.39,162.31 531.31,155.43 536.44,149.41C540.32,143.97 544.24,138.59 548.67,133.57C551.19,130.69 551.54,124.86 555.1,123.22Z" style="fill-rule:nonzero;"/>
    <path d="M489.78,165.17C490.3,170.06 490.09,175.11 489.41,179.99C488.61,186.19 490.13,192.81 492.73,198.44C494.09,201.52 494.78,204.55 495.01,207.9C493.4,207.93 491.79,207.94 490.18,207.94C487.91,200.69 486.03,192.71 484.76,185.22C481.85,191.84 477.68,196.97 472.64,202.07C470.75,202.02 468.85,202 466.96,201.99C466.83,200.85 466.87,199.69 467.09,198.51C470.24,197.34 472.66,195.26 474.74,192.67C480.8,184.26 484.13,174.9 487.15,165.09C487.33,163.58 489.6,163.59 489.78,165.17Z" style="fill-rule:nonzero;"/>
    <path d="M274.6,164.38C284.18,172.12 292.72,180.97 302.56,188.45C306.83,192.48 311.83,195.41 317.09,197.96C320.25,199.73 324.31,198.9 327.88,198.95C328.9,200.18 330.28,200.67 329.96,202.51C326.37,204.35 322.19,204.27 318.29,203.76C308.72,201.39 299.89,195.3 292.73,188.68C297.81,199.92 306.16,212.38 309.01,225.01C309.95,228.02 308.46,232.57 305.13,233.33C305.18,229.86 305.47,225.93 304.31,222.63C302.39,216.59 299.43,210.88 296.84,205.11C290.33,194.01 281.1,184.15 275.47,172.54C274.52,169.86 272.33,166.96 274.6,164.38Z" style="fill-rule:nonzero;"/>
    <path d="M411.14,173C412.02,173.01 412.89,173.02 413.76,173.03C417.39,181.27 419.04,190.25 422.4,198.55C424.44,203.95 427.64,208.6 431.18,213.11C427.67,212.25 424.47,212.07 422.05,209.01C417.65,202.97 417.52,194.9 413.28,188.55C411.37,196.07 409.77,203.47 406.67,210.65C406.17,211.83 405.33,212.28 404.17,211.98C402.43,210.79 403.19,208.93 402.93,207.07L400.84,206.94C403.13,203.52 404.45,199.74 406.02,195.97C409,188.63 410.89,180.94 411.14,173Z" style="fill-rule:nonzero;"/>
    <path d="M344.84,197.44C346.73,197.7 349,196.96 350.19,198.82C354.75,204.61 357.66,211.89 364.13,215.83C368.08,218.94 372.69,217.49 375.76,221.57C374.72,222.63 373.67,223.68 372.64,224.74C364.34,221.32 358.03,215.61 351.32,209.87C351.85,215.26 351.85,220.63 352.9,225.96C353.03,230.52 353.16,235.22 352.8,239.77C350.57,241.87 349.62,237.81 348.3,236.53C347.68,230.64 348.49,224.83 347.29,218.99C346.99,211.74 345.63,204.64 344.84,197.44Z" style="fill-rule:nonzero;"/>
    <path d="M565.66,203.63C566.05,204.5 566.44,205.37 566.83,206.24C560.83,216.96 557.36,228.83 553.66,240.48C552.93,242.69 552.29,244.92 551.78,247.19C550.91,246.38 548.1,245.44 548.83,243.98C550.71,236.13 553.65,228.61 555.13,220.64C552.68,222.35 550.49,224.56 547.93,226.08C544.32,227.05 540.68,228.18 537.03,228.95C535.08,228.9 531.5,229.67 530.19,227.94C531.34,224.64 534.36,225.39 537.09,224.24C542.03,222.42 546.68,219.64 551.39,217.28C557.5,214.36 559.58,207.24 565.66,203.63Z" style="fill-rule:nonzero;"/>
    <path d="M614.94,224.77C616.72,224.38 617.99,224.23 619.22,225.8C625.17,233.3 632.1,240.47 637.73,248.26C641.28,253.54 644.3,259.1 647.1,264.8C641.75,262.64 636.63,262.79 630.99,262.11C626.35,261.63 621.79,262.12 617.19,262.74C603.49,263.43 589.97,266.69 576.35,267.89C579.92,262.83 583.05,257.42 585.98,251.97C589.01,245.97 593.2,240.71 598.08,236.12C600.19,234.17 602.66,232.7 604.78,230.76C607.69,228.19 610.98,225.37 614.94,224.77Z" style="fill:rgb(247,231,127);fill-rule:nonzero;"/>
    <path d="M394.2,226.76C399.52,232.16 402.81,240.16 405.11,247.29C400.65,244.52 398.79,240.32 396.39,235.89C395.98,236.25 395.56,236.6 395.14,236.96C393.67,244.45 391.33,251.78 389.69,259.25C388.89,258.67 388.1,258.08 387.31,257.49C388.12,250.5 390.56,244.05 392.28,237.29C393.27,233.72 392.79,230.21 394.2,226.76Z" style="fill-rule:nonzero;"/>
    <path d="M493.83,229.71C493.81,236.87 496.11,243.9 496.02,251.03C495.86,252.59 495.73,255.73 493.38,254.57C492.66,248.55 492.08,242.46 490.87,236.51C485.78,241.66 479.15,244.43 474.57,249.93C474,249.5 473.44,249.06 472.87,248.63C476.95,242.31 482.83,239.25 488.24,234.26C490.15,232.55 491.33,230.55 493.83,229.71Z" style="fill-rule:nonzero;"/>
    <path d="M281.97,230.97C292.01,235.29 299.79,245.39 309.59,250.27C311.19,251.08 312.76,251.92 314.31,252.82C316.44,253.18 318.54,253.66 320.63,254.18C321.74,254.96 322.86,255.71 324,256.44C323.93,257.25 323.86,258.06 323.79,258.87C321.99,258.92 320.04,259.17 318.27,258.76C311.43,256.87 305.45,253.52 299.27,250.46C300.85,254.75 303.6,258.41 305.22,262.68C307.5,268.52 309.31,274.99 308.98,281.31C307.67,280.73 305.88,280.23 305.01,279.02C303.14,276.36 303.27,273.38 302.76,270.33C300.77,263.65 295.84,257.18 292.73,251.44C290.53,247.87 288.21,244.39 286.37,240.61C285,237.56 281.49,236.72 279.83,233.72C280.45,232.86 280.97,231.38 281.97,230.97Z" style="fill-rule:nonzero;"/>
    <path d="M213.37,242.03C220.96,245.25 228.64,248.14 236.49,250.68C241.63,252.81 246.44,255.07 252,256.08C257.61,257.1 263.3,259.71 268.99,260.06C273.75,260.52 276.82,257.28 281.33,260.25C281.08,260.98 280.81,261.71 280.51,262.43C276.63,264.15 272.27,265.21 268,265.02C258.15,265.55 247.73,262.07 238.13,259.91C243.3,263.71 248.03,267.94 252.06,272.96C257.5,280.26 261.71,289.51 262.08,298.69C261.48,299.04 260.88,299.39 260.29,299.75C255.03,281.79 240.38,267.97 225.73,257.22C220.4,254.04 213.83,249.71 212.37,243.23L213.37,242.03Z" style="fill-rule:nonzero;"/>
    <path d="M679.18,245C681.3,247.18 683.89,248.79 686.04,250.9C687.7,252.97 689.38,254.89 691.25,256.76C695.34,261.42 698.99,266.68 702.34,271.89C694.97,271.25 687.72,269.41 680.39,268.52C679.02,260.69 679.19,252.9 679.18,245Z" style="fill:rgb(247,231,127);fill-rule:nonzero;"/>
    <path d="M436.62,245.86C439.59,250.65 443.02,256.45 443.13,262.21C441.73,262.22 440.89,261.64 440.62,260.45C439.52,257.4 438.48,254.68 436.18,252.29C434.02,255.21 432.42,258.44 430.55,261.54C429.45,263.55 428.98,263.41 426.76,263.55C429.27,257.63 431.55,250.08 436.62,245.86Z" style="fill-rule:nonzero;"/>
    <path d="M533.04,269.83C533.34,271.51 533.13,273.08 532.75,274.73C531.57,279.62 532.12,284.01 528.8,288.21C526.8,284.62 529.44,279.56 529.32,275.55C523.71,278.35 521.23,283.28 514.52,283.62C517.65,276.93 526.87,273.23 533.04,269.83Z" style="fill-rule:nonzero;"/>
    <path d="M637.03,269.96C640.32,269.71 642.58,272.76 643.73,275.46C645.18,279.04 647.22,283.1 647.02,287C646.97,291.34 647.07,295.68 646.98,300.02C645.45,311.62 642,322.77 632.43,330.25C629.9,323.13 624.52,318.8 618.94,314.09C610.12,308 600.88,305.83 591.06,301.89C588.09,293.16 585.94,284.58 587.28,275.3C587.79,274.76 588.39,274.39 589.08,274.19C593.92,272.64 598.75,271.86 603.83,271.85C610.88,270.93 617.91,270.91 625,271.03C629.11,271.19 632.9,269.61 637.03,269.96Z" style="fill:white;fill-rule:nonzero;"/>
    <path d="M678.8,276.14C681.28,276.46 683.47,277.18 686.01,277.13C688.53,277.21 690.57,276.4 692.69,278.18C695.68,280.56 695.8,285.59 696.85,289.02C698.77,294.26 697.85,300.47 697.94,306.04C697.12,311.02 695.76,316.54 692.64,320.61C690.63,323.36 688.02,325.42 685.16,327.22C683.4,319.56 683.05,311.58 681.03,304.01C683.89,305.39 685.8,304.57 688.61,303.89C692.75,301.78 695.53,297.74 695.05,292.98C695.13,289.66 693.25,287.24 690.87,285.18C687.94,282.4 682.97,282.4 679.45,283.91C679.17,281.33 678.87,278.73 678.8,276.14Z" style="fill:white;fill-rule:nonzero;"/>
    <path d="M626.25,280.27C628.1,279.82 630.14,279.92 632.03,280.03C637.01,280.96 640.21,285.17 640.88,290.05C641.07,296.58 635.58,302.07 629.05,301.88C625.26,301.29 621.86,299.44 620.05,295.94C618.57,293.45 618.9,290.68 619.1,287.88C619.98,284.42 622.9,281.45 626.25,280.27Z" style="fill-rule:nonzero;"/>
    <path d="M416.12,283.8C420.92,284.03 424.6,286.28 428.93,288.04C430.29,288.65 431.86,289.17 433.02,290.12C433.26,292.34 430.41,291.91 428.99,292.08C426.37,290.34 424.15,288.42 421.02,287.64C420.98,291.03 421,294.42 421,297.8C420.04,297.46 419.07,297.12 418.1,296.79C415.67,292.51 418.28,287.93 416.12,283.8Z" style="fill-rule:nonzero;"/>
    <path d="M358.24,285.95C358.85,286.29 359.45,286.62 360.06,286.94C363.97,287.13 367.89,286.85 371.8,286.93C372.68,288.37 372.98,289.5 373.2,291.16C369.32,290.58 365.69,289.62 361.7,290.01C362.47,295.25 367.27,298.31 367.85,303.82C362.02,300.78 359.9,295.27 357.45,289.57C356.6,287.78 357.27,287.43 358.24,285.95Z" style="fill-rule:nonzero;"/>
    <path d="M482.01,286.11C485.59,287.29 489.1,288.86 489.23,293.19C486.28,293.27 485.79,291.15 483.83,289.5C481.29,289.87 482.27,292.71 481.56,294.57C481.12,296.08 480.51,299.67 478.22,298.87C477.87,295.38 477.64,291.38 478.95,288.06C479.47,286.77 480.47,285.59 482.01,286.11Z" style="fill-rule:nonzero;"/>
    <path d="M323.15,289.9C323.54,291.2 323.88,292.51 324.21,293.82C320.19,294.2 316.17,294.88 312.29,296.02C314.87,299.8 318.17,301.99 319.82,306.38C319.95,307.56 320.7,310.4 318.92,310.49C315.47,304.45 310.7,299.57 306.02,294.49C306.05,293.68 306.08,292.87 306.11,292.07C309.41,291.96 312.73,292.13 316.02,291.92C318.44,291.58 320.82,290.63 323.15,289.9Z" style="fill-rule:nonzero;"/>
    <path d="M235.85,302.48L236.97,304.4C234.74,309.96 230.42,312.38 225.89,315.81C222.98,317.71 219.75,319.06 216.83,320.97C221.08,322.96 225.53,324.55 229.92,326.21C231.25,326.76 232.98,327.12 233.92,328.25C234.07,330.11 234,332.01 233.99,333.88C226.84,328.36 218.37,325.74 209.52,324.53C207.78,324.1 204.4,323.97 205.01,321.36C207,319.58 209.56,318.33 211.75,316.78C219.1,311.1 227.3,306.11 235.85,302.48Z" style="fill-rule:nonzero;"/>
    <path d="M288.52,305.51C287.93,307.08 287.43,308.98 286.26,310.23C284.4,312.43 281.15,313.47 278.57,314.62C273.42,317.03 267.17,316.51 261.59,318.26C264.54,321.07 268.18,321.18 271.57,323.29C276.85,326.54 281.8,329.15 282.66,335.98C281.56,335.99 280.46,335.99 279.37,336C277.84,334.03 276.48,332.12 274.55,330.5C269.02,325.58 260.59,323.48 253.61,321.42C251.08,320.56 247.51,320.2 245.78,318.03C255.09,311.76 268.55,310.46 279.52,309.94C282.43,308.13 285.09,306.21 288.52,305.51Z" style="fill-rule:nonzero;"/>
    <path d="M387.99,316.46C389.09,316.69 390.2,316.92 391.3,317.17C389.82,319.51 388.11,321.49 387.61,324.32C385.98,323.63 385.11,322.48 384.1,321.09C385.25,319.42 386.48,317.84 387.99,316.46Z" style="fill-rule:nonzero;"/>
    <path d="M427.07,322.89C427.09,325.41 426.7,327.34 425.84,329.69C425.26,330.15 424.68,330.61 424.1,331.08C422.58,329.02 422.8,326.81 423.17,324.42C424.22,322.66 425.29,323.09 427.07,322.89Z" style="fill-rule:nonzero;"/>
    <path d="M465.35,323.08C466.78,323.05 468.22,323.02 469.65,323C469.13,325.91 466.51,327.41 465.5,330.2C464.61,329.71 463.73,329.21 462.84,328.71C462.93,327.94 463.03,327.16 463.14,326.39C463.85,325.27 464.6,324.18 465.35,323.08Z" style="fill-rule:nonzero;"/>
    <path d="M502.5,332.19C504.27,331.64 504.85,332.06 506.02,333.42C506.16,334.87 505.09,335.3 504.17,336.19C501.67,338.05 499.23,339.96 496.02,340.19C496.01,338.8 496,337.4 496,336.01C496.88,336.01 497.76,336 498.64,336C499.86,334.7 501.1,333.3 502.5,332.19Z" style="fill-rule:nonzero;"/>
    <path d="M546.99,335.95C546.68,339.53 548.46,344.57 544.25,346.36C544.02,342.69 542.49,338.75 543.14,335.17C544.47,332.78 545.97,334.3 546.99,335.95Z" style="fill-rule:nonzero;"/>
    <path d="M355.93,339.69C355.97,340.8 356,341.91 356.03,343.02C354.41,345.2 352.76,347.35 351.01,349.43C351.01,350.22 351,351 351,351.79C354.5,353.02 358.88,353.2 359.58,357.69C354.31,357.73 349.98,355.94 345.88,352.77C349.99,348.67 350.97,343.14 355.93,339.69Z" style="fill-rule:nonzero;"/>
    <path d="M688.06,341.15C693.74,341.72 700.04,343.91 704.6,347.42C709.77,351.35 711.74,358.78 710.84,364.99C709.28,374.05 704.59,382.66 698.19,389.22C695.98,390.17 693.76,390.66 691.83,392.21C686.45,391.97 681.62,393.01 677.01,389.84C676.76,387.29 676.43,384.85 676.99,382.3C678.76,381.33 680.46,380.31 681.91,378.89C685.83,374.82 689.57,371.03 691.58,365.61C692.16,364.48 692.04,363.27 691.24,361.96C686.65,367.68 681.91,372.66 675.87,376.89C671.39,380.93 666.1,382.53 660.55,384.51C656.78,385.78 652.93,386.17 649.01,386.63C644.86,387.15 640.97,385.93 636.73,385.93C640.05,383.39 644.14,380.94 646.48,377.44C648.64,374.63 651.39,372.38 653.44,369.46C660.36,360.81 665.13,351.8 672.77,343.74C676.91,341.05 683.28,341.28 688.06,341.15Z" style="fill:rgb(247,231,127);fill-rule:nonzero;"/>
    <path d="M204.17,342.94C204.44,347.69 201.14,350.08 198.26,353.27C194.66,356.9 190.36,358.47 186.19,361.17C190.95,362.73 195.48,363.21 200.47,363.09C203.97,365.19 208.26,366.12 211.45,368.62C213.22,369.97 213.22,371.71 213.58,373.74C211.44,374.16 209.41,374.94 207.31,375.48C206,374.9 205.77,372.34 204.06,371.96C200.66,370.71 197.31,369.33 193.91,368.07C189.51,366.44 185.37,366.76 180.79,366.22C176.53,365.68 170.54,369.65 166.74,367.23C164.91,366.43 165.99,364.79 165.88,363.19C178.01,359.86 188.91,353.54 198.55,345.56C200.49,344.21 201.51,342.29 204.17,342.94Z" style="fill-rule:nonzero;"/>
    <path d="M397.82,350.76C398.47,352.01 398.94,353.19 399.25,354.58C396.37,357.26 392.14,358.74 389.86,361.91C391.45,366.75 400.09,364.06 400.24,370.13C395.84,369.93 391.69,368.38 387.98,366.05C386.83,365.17 385.53,364.89 385.92,363.13C388.33,357.87 393.7,354.54 397.82,350.76Z" style="fill-rule:nonzero;"/>
    <path d="M311.12,352.92C311.44,358.32 307.01,359.37 303.83,362.7C308.11,364.93 312.68,366.62 317.19,368.33C317,369.12 316.8,369.92 316.58,370.7C315.51,371.17 314.07,370.26 312.97,370.05C307.81,368.5 302.67,367.05 297.76,364.76C301.63,360.1 306.33,356.54 311.12,352.92Z" style="fill-rule:nonzero;"/>
    <path d="M570.84,353.75C576.09,356.73 583.02,359.46 586.71,364.35C587.21,365.19 588.47,366.65 587.87,367.63C582.9,371.83 576.03,373.94 569.6,374.23C572.53,368.34 578.69,370.72 583.34,366.26C578.78,362.43 574.49,358.74 568.9,356.43C568.95,355.32 569.15,352.8 570.84,353.75Z" style="fill-rule:nonzero;"/>
    <path d="M248.69,356.85C249.5,357.62 250.29,358.42 251.06,359.23C250.49,370.06 244.63,378.75 237.04,386.04C230.72,391.74 223.65,398.29 219.66,405.91C227.29,403.08 234.9,400.21 242.52,397.34C247.18,395.46 252.94,396.18 258,395.84C262.91,395.64 266.91,396.25 271.38,398.3C267.94,401.9 263.65,402.09 258.96,402.05C250.31,402.97 241.46,405.21 233.01,407.21C228.74,408.26 224.53,408.68 220.46,410.45C215.05,412.68 209.86,413.6 204,413.54L204,410.33C214.16,400.02 225,390.41 234.72,379.7C237.79,375.46 241.2,371.43 244.04,367.02C246.21,363.73 246.03,359.91 248.69,356.85Z" style="fill-rule:nonzero;"/>
    <path d="M437.13,358.85C437.15,361.61 436.49,363.22 435.15,365.55C436.01,366.67 437.13,367.2 437.06,368.76C434.74,370.38 433.26,369.43 430.91,368.58C431.52,365.81 432.19,362.99 433.28,360.36C434.13,358.48 435.45,359.11 437.13,358.85Z" style="fill-rule:nonzero;"/>
    <path d="M477.97,365.48C479.79,367.12 480.34,369.17 481.2,371.36C483.22,369.31 485.2,367.3 487.67,365.78C487.98,366.39 488.29,367.01 488.61,367.63C486.37,370.34 484.47,373.67 481.71,375.75C480.79,376.34 479.52,377.39 478.4,376.79C477.9,372.79 475.93,369.18 477.97,365.48Z" style="fill-rule:nonzero;"/>
    <path d="M339.82,380.13C339.06,381.72 338.22,383.16 337.08,384.51C337.03,385.41 336.98,386.31 336.93,387.21C336.08,387.05 335.25,386.85 334.42,386.63C331.97,385.31 332.79,382.14 334.89,380.86C336.65,379.2 337.56,379.74 339.82,380.13Z" style="fill-rule:nonzero;"/>
    <path d="M291.47,385.94C291.92,387.2 292.36,388.46 292.83,389.71C289.71,394.31 286.42,398.8 283.22,403.35C281.77,405.58 279.92,407.05 279.88,409.91C287.66,410.05 295.05,409.67 302.23,413.32C301.78,414.28 301.32,415.23 300.86,416.18C297.86,416.06 294.94,415.59 291.98,415.13C287.1,414.47 282.76,415.66 277.96,416.04C274.92,416.32 271.92,417.07 268.96,417.76C268.99,416.67 269.02,415.58 269.04,414.49C276.91,407.52 282.96,398.08 287.85,388.86C288.57,387.18 289.98,386.73 291.47,385.94Z" style="fill-rule:nonzero;"/>
    <path d="M516.01,385.91C516.96,386 517.91,386.1 518.86,386.21C519.6,392.44 517.69,398.19 517.64,404.44C512.26,404.03 504.67,399.49 505.11,393.3C508.44,395.65 511,398.65 514.83,400.34C516.94,396.13 515.68,390.55 516.01,385.91Z" style="fill-rule:nonzero;"/>
    <path d="M414.06,387.94C415.42,388.46 416.76,389.03 418.1,389.59C416.11,393.25 412.96,396.43 409.15,398.16C404.67,400.46 398.91,400.49 393.95,400.44C383.72,400.12 374.09,397.13 364.01,395.98C356.98,395.17 350.45,398.8 345.69,403.69C341.53,407.53 339.26,413.25 335.91,417.97C331.84,423.3 328.72,429.25 324.68,434.61C322.13,437.9 320.36,441.45 317.38,444.39C313.4,448.43 309.37,452.9 304.68,456.08C306.91,458.47 309.06,459.59 312.15,460.62C320.46,458.33 320.59,445.63 327.93,442.76C324.97,448.01 322.33,453.48 319.12,458.57C319.22,459.55 319.35,460.51 319.51,461.48C321.64,461.78 323.78,461.94 325.9,462.38C330.55,455.1 335.97,448.5 341.14,441.61C339.1,450.16 333.66,455.05 329.92,462.63C330.88,462.99 331.84,463.35 332.8,463.71C336.69,459.33 339.24,454.3 342.38,449.41C344.44,445.86 346.84,442.77 348.34,439.04L349.29,439.06C345.77,447.61 340.58,455.17 338.12,464.21C341.63,464.53 346.64,466.08 349.51,463.49C354.7,459.64 356,452.05 359.9,447.37C358.87,453.28 355.44,458.2 354.79,464.13C357.98,462.64 360.94,460.97 363.28,458.28C369.03,452.01 372.13,442.38 376.49,435.33C375.78,444.01 370.72,449.46 367.94,457.47C373.73,453.88 377.92,447.36 381.8,441.87C385.66,435.24 390.38,429.24 396.41,424.46C399.05,422.55 401.81,421.33 404.21,419.23C410.28,414.12 415.92,409.35 423.83,407.41C425.06,408.69 427.7,410.22 428.04,412.01C426.13,414.63 421.6,414.03 418.85,415.82C407.23,421.8 396.78,430.78 389.9,441.96C385,448.97 379.9,455.81 374.14,462.13C367.83,468.26 359.9,473.64 350.89,474.21C351.72,481.13 353.69,487.89 354.26,494.83C359.1,491.67 361.03,485.12 365.3,481.23C366.97,479.78 368.89,479.32 370.97,478.76C370.98,479.69 370.98,480.61 370.98,481.54C369.28,482.66 367.63,483.77 366.32,485.35C360.67,491.91 356.62,499.33 350.2,505.27C349.75,502.12 348.89,499.21 348.98,496C349.14,488.9 348.83,480.3 345.08,474.05C343.18,474 341.32,473.84 339.47,473.43C323.75,470.86 307.67,466.03 294.09,457.52C294.04,456.13 294,454.73 293.96,453.33C298.05,449.95 302.31,446.77 306.48,443.49C309.36,441.39 311.67,438.68 314.61,436.63C316.41,435.49 317.19,432.97 318.09,431.1C322.25,421.7 324.4,411.15 331.11,403.08C333.28,400.15 336.3,398.41 338.78,395.77C341.16,393.3 344.67,391.87 347.97,391.21C355.96,390.05 363.97,390.9 372,390C381.74,390.66 391.15,392.72 400.99,392.1C405.91,392.29 409.9,390.25 414.06,387.94Z" style="fill-rule:nonzero;"/>
    <path d="M165.76,390.97C166.23,394.27 166.13,396.26 164.69,399.28C163.73,398.78 162.77,398.28 161.82,397.78C162.03,394.42 162.08,392.01 165.76,390.97Z" style="fill-rule:nonzero;"/>
    <path d="M644.29,393.25C653.25,392.2 661.82,393.56 670.56,395.45C674.59,396.96 677.28,400.48 678.5,404.52C680.37,410.24 679.82,416.15 681.33,421.97C682.2,420.66 683.12,419.71 683.06,418.02C683.45,413.97 682.95,410.01 682.97,405.97C682.69,400.33 690.86,395.45 695.2,399.78C700.09,403.43 701.93,409.75 703.64,415.34C705.15,420.34 704.34,424.94 703.99,430.02C702.84,438.82 699.85,447.1 693.2,453.26C690.56,455.7 686.88,456.37 683.56,457.52C677.53,459.52 669.99,460.4 663.97,458.11C659.18,454.81 655.56,449.19 652.8,444.15C645.15,428.22 643.45,412.28 637.82,395.45C639.94,394.67 642.1,393.81 644.29,393.25Z" style="fill:rgb(247,231,127);fill-rule:nonzero;"/>
    <path d="M744.51,399.1C749.68,400.33 754.41,404.22 757.35,408.58C762.94,416.11 766.34,426.43 773.2,432.81C775.48,435.13 778.27,436.55 781.22,437.84C778.51,439.03 774.66,443.24 771.64,441.36C767.93,438.74 765.63,434.3 761.97,431.48C761.98,432.56 762.04,433.63 762.15,434.7C763.98,438.33 767.1,441.3 769.34,444.7C768.02,444.75 766.7,444.8 765.39,444.85C762.79,442.45 761.22,440.37 759.95,437.04C758.7,434.74 757.88,431.05 754.82,430.71C755.64,436.02 758.22,441.15 761.23,445.54C756.96,445.5 751.66,446.57 748,443.92C744,441.1 743.82,434.51 739.78,432.13C739.51,435.74 740.59,438.92 741.66,442.29C738.71,441.05 736.06,439.63 734.01,437.1C735.21,434.82 736.5,432.64 737.23,430.14C740.47,420.05 743,409.59 744.51,399.1Z" style="fill:rgb(247,231,127);fill-rule:nonzero;"/>
    <path d="M584.19,399.43C585.3,399.7 586.41,399.98 587.52,400.26C586.37,402.75 584.7,404.53 584.58,407.33C583.03,406.57 581.38,405.8 580.87,403.98C581.76,402.35 583.05,400.88 584.19,399.43Z" style="fill-rule:nonzero;"/>
    <path d="M551.88,406.93C552.27,415.52 554.44,423.99 554.76,432.6C553.95,433.49 553.03,434.29 552,435C550.82,432.17 549.84,429.58 547.18,427.8C543.84,425.56 540.58,423.5 537.8,420.53C538.14,418.67 538.55,416.73 540.88,416.74C543.6,418.63 545.32,421.68 548.16,423.53C549.96,419.94 548.6,414.83 548.58,410.94C548.74,408.69 550.37,408.2 551.88,406.93Z" style="fill-rule:nonzero;"/>
    <path d="M448.7,407.93C449.65,408 450.61,408.08 451.56,408.17C454.48,410.4 456.68,413.2 459.32,415.71C461.18,413.14 461.79,408.6 465,407.62C465.12,409.3 465.12,410.95 465.02,412.62C462.84,415.44 460.67,418.23 458.92,421.34C455.6,416.83 451.48,412.8 448.7,407.93Z" style="fill-rule:nonzero;"/>
    <path d="M279.26,424.87C281.8,425.71 283.16,427.19 282.64,429.98C281.75,441.29 275.53,449.17 268.67,457.61C265.46,460.75 263.25,464.53 260.68,468.16C264.76,466.94 268.93,466.35 272.94,464.84C279.1,462.72 285.25,459.75 291.53,458.1C293.33,459.62 294.83,461.35 296.31,463.18C295,462.93 293.72,462.62 292.47,462.22C277.88,466.98 263.69,473.09 249.97,479.96C247.36,481.23 245.07,482.76 242.13,483.23C242.01,482.19 241.88,481.15 241.76,480.12C246.78,475.03 251.88,469.93 256.26,464.28C261.08,458.62 264.92,452.3 269.48,446.45C272.34,442.16 274.31,437.31 276.86,432.82C278.38,430.29 277.72,427.4 279.26,424.87Z" style="fill-rule:nonzero;"/>
    <path d="M510.71,433.85C511.16,434.91 511.56,435.99 511.91,437.08C509.99,441.06 507.71,444.64 506.79,449.05C505.51,453.71 505.92,458.62 506.36,463.38C501.34,460.94 501.81,455.98 497.79,452.2C494.32,448.01 488.57,444.36 486.75,439.17C488.09,439.1 489.43,439.03 490.76,438.97C494.73,441.76 497.78,445.45 501.46,448.56C504.66,444.24 502.45,437.89 506.72,434.67C507.58,433.65 509.49,434 510.71,433.85Z" style="fill-rule:nonzero;"/>
    <path d="M418.11,434.69C418.39,439.09 415.81,441.21 412.91,443.92C409.62,446.54 410.93,450.74 407.18,452.89C406.5,452.52 405.83,452.16 405.15,451.79C404.55,447.51 403.87,443.27 403.5,438.96L406.79,438.96C407.22,440.78 407.72,442.58 408.24,444.38C412.41,442.41 412.56,436.11 418.11,434.69Z" style="fill-rule:nonzero;"/>
    <path d="M445.18,450.86C446.48,451.88 447.58,453.06 448.71,454.25C446.17,461.67 441.5,467.23 439.79,474.9C439.79,475.66 439.27,476.05 438.23,476.05C435.18,473.23 437.01,467.42 434.91,464.11C433.1,461.11 431.04,458.44 430,455.03C430.43,454.25 430.85,453.48 431.28,452.71C435.9,455.3 436.54,460.12 439.7,464.38C441.91,460.01 441.78,454.24 445.18,450.86Z" style="fill-rule:nonzero;"/>
    <path d="M553.02,457.28C554.25,457.05 555.49,456.83 556.72,456.6C559.11,467.43 560.06,478.5 562.64,489.28C563.89,495.51 567.66,499.81 567.12,506.4C563.34,504.35 560.73,501.25 557.68,498.32C551.41,492.27 546.18,485.14 540.25,478.75C536.56,474.67 531.33,471.78 526.58,469.03C525.83,469.02 525.09,469.01 524.35,469C526.06,467.34 526.95,465.34 529.4,464.83C532.66,467.56 536.36,469.61 539.54,472.46C546.06,478.13 551.91,485.6 559.03,490.82C557.28,484.95 555.86,479.04 554.95,472.98C553.93,467.78 553.91,462.5 553.02,457.28Z" style="fill-rule:nonzero;"/>
    <path d="M607.79,464.83C614.02,482.58 621.89,499.98 630.13,516.89C631.15,519.06 630.73,521.9 630.88,524.25C626.44,520.98 621.97,517.85 618.12,513.86C613.27,509.66 608.68,505.38 604.21,500.78C596.68,495.11 587.62,488.41 577.88,487.89C578.17,486.34 577.28,483.91 579.14,483.29C590.45,484.23 599.65,491.54 609.61,496.27C613.05,497.68 614.55,501.07 618.04,502.37C613.71,491.88 607.5,482.24 603.03,471.77C603.68,470.5 604.24,469.22 604.61,467.84C605.4,465.19 604.76,464.88 607.79,464.83Z" style="fill-rule:nonzero;"/>
    <path d="M403.81,480.07C406.16,488.21 408.52,496.58 411.71,504.41C412.44,498.34 415.67,493.03 420.34,489.15C420.91,489.55 421.48,489.95 422.05,490.35C422.91,495.36 420.12,497.79 417.79,501.68C415.65,506.11 413.97,510.95 412.73,515.71C412.09,516.21 411.46,516.71 410.82,517.21C409.22,515.49 407.54,514.27 407.23,511.76C406.35,505.09 405.36,498.54 402.77,492.27C401.04,489.92 399.71,487.34 397.84,485.09C396.92,483.81 395.83,482.92 395.94,481.2C398.15,479.87 401.29,480.71 403.81,480.07Z" style="fill-rule:nonzero;"/>
    <path d="M312.69,480.88C315.09,489.54 315.84,498.33 314.23,507.22C313.91,512.77 312.27,518.11 311.93,523.64C314.26,520.63 315.97,517.4 318.73,514.72C324.83,508.51 331.48,502.34 339.14,498.11C340.55,497.95 342.04,498.79 343.39,499.13C337.72,502.62 332.09,506.64 327.66,511.65C320,519.72 314.23,530.38 306.22,538.27C304.62,539.79 303.47,538.68 301.93,537.83C304.89,527.93 306.89,517.66 308.68,507.49C309.44,499.12 310.81,491.11 309.55,482.66C309.91,480.48 311.04,481.19 312.69,480.88Z" style="fill-rule:nonzero;"/>
    <path d="M486.02,481.62C486.35,488.34 483.74,495.27 483.97,502C484.13,505.99 483.49,510.14 484.77,513.82C483.48,515.02 482.05,515.09 480.4,515.4C477.92,511.01 474.6,507.28 471.85,503.1C469.73,499.74 466.46,497.16 463.79,494.16C461.91,491.95 459.09,491.61 457.08,489.69C456.95,488.72 456.89,487.74 456.87,486.76C467.55,488.92 471.4,498.07 479.95,502.53C480.49,496.78 478.84,489.68 481.4,484.43C482.36,482.42 484.09,482.21 486.02,481.62Z" style="fill-rule:nonzero;"/>
    <path d="M538.89,500.75C539.03,505.22 539.95,509.58 540.09,514.04C542.3,534.18 547.08,553.22 550.81,573.07C551.13,575.54 552.48,578.38 551.76,580.82C550.07,580.76 549.58,579.58 548.64,578.41C545.02,573.18 541.65,567.8 538.83,562.1C536.76,557.96 533.75,554.49 531.52,550.46C526.91,542.59 521.39,535.42 515.37,528.59C511.03,524.36 506.52,520.87 503.91,515.19C505.58,514.53 507.18,514.03 508.97,513.83C518.11,525.36 528.96,535.23 537.82,547.2C539.14,549.11 539.92,551.48 542.01,552.59C538.99,539.6 537.11,526.27 535.58,513.03C535.13,510.33 534.49,507.65 533.9,504.97C535.41,502.73 535.77,500.91 538.89,500.75Z" style="fill-rule:nonzero;"/>
    <path d="M204.26,511.08C207.8,512.5 211.85,514.76 213.76,518.2C215.09,520.37 215.43,522.72 215.61,525.21C213.38,525.99 211.24,526.9 209.3,528.27C203.32,532.46 197.92,537.29 192.77,542.45C196.25,536.21 199.12,529.68 200.95,522.76C201.44,520.8 202.24,518.99 203.14,517.18C203.31,515.09 203.5,513.05 204.26,511.08Z" style="fill:rgb(247,231,127);fill-rule:nonzero;"/>
    <path d="M369.15,519.26C371.66,518.19 372.85,519.91 374.65,521.32C377.36,523.93 379.52,527.24 380.23,530.98C382.6,541.15 385.79,551.29 387.26,561.64C393.26,549.92 396.45,535.47 404.43,524.91C406.14,526.52 407.08,527.95 407.91,530.15C405.25,534.19 403.28,538.62 400.77,542.76C395.44,554.7 392.06,566.69 387.53,579.28C385.09,578.94 384.43,577.35 383.09,575.57C381.77,562.18 379.53,548.84 376.28,535.77C375.15,530.49 371.12,525.72 368.86,520.84L369.15,519.26Z" style="fill-rule:nonzero;"/>
    <path d="M439.2,528.4C441.32,528.99 443.91,529.97 445.15,531.9C453.91,544.57 460.12,558.9 463.56,573.91C464.22,572.32 464.78,570.76 464.9,569.03C465.49,563 466.86,557.07 467.17,551.02C467.62,544.82 468.62,538.45 470.64,532.56C471.6,529.9 473.34,529.83 475.74,529.28C474.87,532.12 475.5,534.04 475.75,536.8C473.51,545.4 471.9,554.13 471.09,562.99C471.04,570.42 469.74,577.4 470.64,584.86C470.74,585.96 471.48,586.82 472.03,587.74C468.63,588.96 469.47,591.79 468.79,594.66C467.61,596.58 466.06,597.05 463.92,597.39C462.51,593.06 461.97,588.49 460.74,584.09C457.83,573.26 454.44,562.36 449.83,552.13C447.14,545.95 443.9,540.08 441.08,533.97C440.4,532.32 435.92,529.64 439.2,528.4Z" style="fill-rule:nonzero;"/>
    <path d="M649.42,537.36C653.28,544.93 657.65,551.75 663.05,558.32C656.35,554.68 649.32,550.52 642,548.28C643.5,543.98 645.94,540.3 649.42,537.36Z" style="fill:rgb(247,231,127);fill-rule:nonzero;"/>
    <path d="M288.5,581.95C293.44,583.17 297.33,584.68 300.91,588.44C300.68,590.01 300.63,591.31 299.43,592.49C293.47,598.78 290.29,606.04 285.92,613.38C288.32,603.18 288.84,592.4 288.5,581.95Z" style="fill:rgb(247,231,127);fill-rule:nonzero;"/>
    <path d="M562.88,606.1C565.2,615.9 567.71,626.46 572.84,635.22C569.81,632.18 566.86,629.17 564.28,625.73C560.36,621.48 556.19,617.43 552.07,613.37C555.3,610.18 558.58,607.71 562.88,606.1Z" style="fill:rgb(247,231,127);fill-rule:nonzero;"/>
    <path d="M390.9,622.6C390.56,626.6 388.99,630.04 387.98,633.87C386.1,640.77 384.69,648.16 382.22,654.88C382.12,649.69 382.82,644.89 381.65,639.78C381.23,634.35 379.82,629.23 380.33,623.73C379.94,623.02 379.55,622.3 379.15,621.58C383.39,618.96 386.03,622.59 390.9,622.6Z" style="fill:rgb(247,231,127);fill-rule:nonzero;"/>
    <path d="M479.02,627.24C480.7,628.72 482.59,629.6 482.56,632.16C482.21,636.66 479.75,640.62 479.44,645.27C479.26,650.86 475.43,654.44 476.48,660.4C474.14,653.54 471.96,646.61 469.49,639.8C467.96,636.34 466.12,633.08 464.95,629.46C465.98,629.36 467.02,629.25 468.05,629.11C471.51,626.49 474.98,627.43 479.02,627.24Z" style="fill:rgb(247,231,127);fill-rule:nonzero;"/>
</svg>
