<?xml version="1.0" encoding="UTF-8" standalone="no"?>
<!DOCTYPE svg PUBLIC "-//W3C//DTD SVG 1.1//EN" "http://www.w3.org/Graphics/SVG/1.1/DTD/svg11.dtd">
<svg width="100%" height="100%" viewBox="0 0 284 284" version="1.1" xmlns="http://www.w3.org/2000/svg" xmlns:xlink="http://www.w3.org/1999/xlink" xml:space="preserve" xmlns:serif="http://www.serif.com/" style="fill-rule:evenodd;clip-rule:evenodd;stroke-linejoin:round;stroke-miterlimit:2;">
    <g transform="matrix(1,0,0,1,-70.867,-70.867)">
        <g>
            <path d="M354.331,212.595C354.331,290.874 290.881,354.33 212.602,354.33C134.323,354.33 70.867,290.874 70.867,212.595C70.867,134.321 134.324,70.867 212.602,70.867C290.881,70.867 354.331,134.32 354.331,212.595Z" style="fill:rgb(233,84,32);fill-rule:nonzero;"/>
        </g>
        <path d="M139.043,212.595C139.043,222.659 130.884,230.82 120.813,230.82C110.754,230.82 102.595,222.66 102.595,212.595C102.595,202.535 110.754,194.376 120.813,194.376C130.884,194.376 139.043,202.535 139.043,212.595ZM242.717,301.201C247.75,309.91 258.89,312.897 267.606,307.871C276.321,302.838 279.307,291.692 274.275,282.976C269.243,274.261 258.102,271.281 249.387,276.313C240.671,281.346 237.685,292.486 242.717,301.201ZM274.274,142.219C279.306,133.502 276.326,122.359 267.605,117.332C258.895,112.3 247.75,115.286 242.716,123.999C237.684,132.714 240.67,143.856 249.386,148.888C258.102,153.92 269.248,150.934 274.274,142.219ZM212.602,160.632C239.755,160.632 262.036,181.446 264.363,207.996L290.735,207.58C289.483,187.853 280.926,170.111 267.74,157.029C260.76,159.722 252.661,159.356 245.674,155.319C238.682,151.282 234.315,144.448 233.16,137.044C226.606,135.264 219.712,134.311 212.602,134.311C200.131,134.311 188.343,137.227 177.875,142.414L190.707,165.457C197.357,162.367 204.784,160.632 212.602,160.632ZM160.633,212.595C160.633,195.018 169.367,179.474 182.73,170.075L169.19,147.441C153.506,157.915 141.823,173.892 136.894,192.624C142.727,197.321 146.464,204.521 146.464,212.596C146.464,220.676 142.726,227.876 136.894,232.574C141.823,251.305 153.506,267.282 169.19,277.762L182.73,255.128C169.367,245.722 160.633,230.184 160.633,212.595ZM212.602,264.568C204.785,264.568 197.358,262.834 190.707,259.738L177.875,282.781C188.343,287.972 200.13,290.885 212.602,290.885C219.711,290.885 226.606,289.939 233.16,288.156C234.314,280.747 238.681,273.913 245.674,269.883C252.661,265.846 260.76,265.479 267.74,268.172C280.927,255.084 289.483,237.342 290.735,217.615L264.363,217.206C262.035,243.749 239.755,264.568 212.602,264.568Z" style="fill:white;fill-rule:nonzero;"/>
    </g>
</svg>
