<?xml version="1.0" encoding="UTF-8" standalone="no"?>
<svg xmlns="http://www.w3.org/2000/svg" version="1.1" width="200" height="200" viewBox="-100 -100 200 200">
  <defs>
    <mask id="m">
      <path d="M -100 0 a 100 100 180 0 1 200 0 a 100 100 180 0 1 -200 0 m 70 0 a 30 30 180 0 0 60 0 a 30 30 180 0 0 -60 0 z" fill="white"/>
    </mask>
    <g id="l">
      <path d="M 0 -100 a 100 100 180 0 1 0 200 l 0 -40 a 60 60 180 0 0 0 -120 z" fill="#b5b5b5"/>
      <path d="M 0 -100 a 100 100 180 0 0 0 200 l 0 -40 a 60 60 180 0 1 0 -120 z" fill="#797979"/>
      <path d="M 0 -60 a 60 60 180 0 1 0 120 l 0 -30 a 30 30 180 0 0 0 -60 z" fill="#797979"/>
      <path d="M 0 -60 a 60 60 180 0 0 0 120 l 0 -30 a 30 30 180 0 1 0 -60 z" fill="#424242"/>
      <path d="M 0 0 l 45 -100 l -90 0 z" fill="#ffffff"/>
      <path d="M 0 0 l 45 100 l -90 0 z" fill="#5f5f5f"/>
    </g>
  </defs>
  <use href="#l" mask="url(#m)"/>
</svg>
