<?xml version="1.0" encoding="UTF-8" standalone="no"?>
<!DOCTYPE svg PUBLIC "-//W3C//DTD SVG 1.1//EN" "http://www.w3.org/Graphics/SVG/1.1/DTD/svg11.dtd">
<svg width="100%" height="100%" viewBox="0 0 1204 757" version="1.1" xmlns="http://www.w3.org/2000/svg" xmlns:xlink="http://www.w3.org/1999/xlink" xml:space="preserve" xmlns:serif="http://www.serif.com/" style="fill-rule:evenodd;clip-rule:evenodd;stroke-linejoin:round;stroke-miterlimit:2;">
    <g transform="matrix(1,0,0,1,-754.564,-1197.45)">
        <g transform="matrix(11.63,0,0,11.63,-720.717,1547.12)">
            <g id="g2516">
                <g id="path3584" transform="matrix(1,0,0,1,-1.13365,-45.1985)">
                    <path d="M153.78,67.326C153.78,60.203 148.006,54.428 140.883,54.428C133.763,54.428 127.991,60.198 127.985,67.317L127.985,67.316L127.985,77.298C127.989,78.914 129.3,80.223 130.918,80.223L130.932,80.222L130.932,80.223L140.888,80.223C148.009,80.22 153.78,74.447 153.78,67.326" style="fill:rgb(7,43,97);fill-rule:nonzero;"/>
                </g>
                <g id="path2497" transform="matrix(0.193263,0,0,0.193263,-0.760714,-2.30494)">
                    <path d="M750.011,77.485C732.712,77.485 718.697,91.5 718.697,108.799L718.697,125.411L702.085,125.411C684.786,125.411 670.771,139.305 670.771,156.603C670.771,173.902 684.786,187.917 702.085,187.917C719.383,187.917 733.399,173.902 733.399,156.603L733.399,139.99L750.011,139.99C767.309,139.99 781.325,126.097 781.325,108.799C781.325,91.5 767.309,77.485 750.011,77.485ZM750.011,92.186C759.143,92.186 766.624,99.666 766.624,108.799C766.624,117.929 759.143,125.411 750.011,125.411L735.8,125.411C734.509,125.411 733.399,124.299 733.399,123.01L733.399,108.799C733.415,99.678 740.892,92.186 750.011,92.186ZM702.085,139.99L716.272,139.99C717.561,139.99 718.697,140.98 718.697,142.269L718.697,156.603C718.683,165.721 711.205,173.216 702.085,173.216C692.955,173.216 685.472,165.733 685.472,156.603C685.472,147.472 692.955,139.99 702.085,139.99Z" style="fill:rgb(10,87,164);fill-rule:nonzero;"/>
                </g>
                <g id="path3588" transform="matrix(1,0,0,1,-0.500608,-44.8485)">
                    <path d="M138.616,66.747L138.616,63.539C138.616,60.195 141.326,57.485 144.67,57.485C145.177,57.485 145.537,57.542 146.007,57.665C146.691,57.845 147.25,58.405 147.251,59.059C147.251,59.848 146.678,60.421 145.822,60.421C145.414,60.421 145.267,60.343 144.669,60.343C142.907,60.343 141.478,61.771 141.475,63.533L141.475,66.296C141.475,66.545 141.676,66.747 141.926,66.747L144.025,66.747C144.807,66.747 145.438,67.372 145.439,68.156C145.439,68.941 144.807,69.565 144.025,69.565L141.475,69.565L141.475,72.787C141.475,76.13 138.764,78.84 135.421,78.84C134.914,78.84 134.554,78.783 134.084,78.66C133.4,78.481 132.84,77.92 132.84,77.267C132.84,76.478 133.413,75.904 134.269,75.904C134.676,75.904 134.824,75.982 135.421,75.982C137.184,75.982 138.614,74.555 138.616,72.792L138.616,70.016C138.616,69.767 138.414,69.565 138.165,69.565L136.066,69.565C135.284,69.565 134.652,68.941 134.652,68.157C134.652,67.368 135.291,66.747 136.081,66.747L138.616,66.747" style="fill:white;fill-rule:nonzero;"/>
                </g>
            </g>
        </g>
        <g transform="matrix(0.3,0,0,0.3,1234.45,1197.45)">
            <g>
                <g>
                    <path d="M788.1,340.9C782.3,345.4 679.9,403.1 679.9,531.4C679.9,679.8 810.2,732.3 814.1,733.6C813.5,736.8 793.4,805.5 745.4,875.5C702.6,937.1 657.9,998.6 589.9,998.6C521.9,998.6 504.4,959.1 425.9,959.1C349.4,959.1 322.2,999.9 260,999.9C197.8,999.9 154.4,942.9 104.5,872.9C46.7,790.7 0,663 0,541.8C0,347.4 126.4,244.3 250.8,244.3C316.9,244.3 372,287.7 413.5,287.7C453,287.7 514.6,241.7 589.8,241.7C618.3,241.7 720.7,244.3 788.1,340.9ZM554.1,159.4C585.2,122.5 607.2,71.3 607.2,20.1C607.2,13 606.6,5.8 605.3,-0C554.7,1.9 494.5,33.7 458.2,75.8C429.7,108.2 403.1,159.4 403.1,211.3C403.1,219.1 404.4,226.9 405,229.4C408.2,230 413.4,230.7 418.6,230.7C464,230.7 521.1,200.3 554.1,159.4Z" style="fill:white;fill-rule:nonzero;"/>
                </g>
            </g>
        </g>
        <g transform="matrix(3.40909,0,0,3.40909,754.564,1197.45)">
            <g>
                <path d="M0,12.402L35.687,7.542L35.703,41.965L0.033,42.168L0,12.402ZM35.67,45.931L35.698,80.384L0.028,75.48L0.026,45.7L35.67,45.931ZM39.996,6.906L87.314,0L87.314,41.527L39.996,41.903L39.996,6.906ZM87.325,46.255L87.314,87.595L39.996,80.917L39.93,46.178L87.325,46.255Z" style="fill:rgb(0,173,239);fill-rule:nonzero;"/>
            </g>
        </g>
        <g transform="matrix(1,0,0,1,1587.7,1126.58)">
            <g transform="matrix(1.05834,0,0,1.05834,-4.13406,-4.13406)">
                <path d="M354.331,212.595C354.331,290.874 290.881,354.33 212.602,354.33C134.323,354.33 70.867,290.874 70.867,212.595C70.867,134.321 134.324,70.867 212.602,70.867C290.881,70.867 354.331,134.32 354.331,212.595Z" style="fill:rgb(233,84,32);fill-rule:nonzero;"/>
            </g>
            <g transform="matrix(1.05834,0,0,1.05834,-4.13406,-4.13406)">
                <path d="M139.043,212.595C139.043,222.659 130.884,230.82 120.813,230.82C110.754,230.82 102.595,222.66 102.595,212.595C102.595,202.535 110.754,194.376 120.813,194.376C130.884,194.376 139.043,202.535 139.043,212.595ZM242.717,301.201C247.75,309.91 258.89,312.897 267.606,307.871C276.321,302.838 279.307,291.692 274.275,282.976C269.243,274.261 258.102,271.281 249.387,276.313C240.671,281.346 237.685,292.486 242.717,301.201ZM274.274,142.219C279.306,133.502 276.326,122.359 267.605,117.332C258.895,112.3 247.75,115.286 242.716,123.999C237.684,132.714 240.67,143.856 249.386,148.888C258.102,153.92 269.248,150.934 274.274,142.219ZM212.602,160.632C239.755,160.632 262.036,181.446 264.363,207.996L290.735,207.58C289.483,187.853 280.926,170.111 267.74,157.029C260.76,159.722 252.661,159.356 245.674,155.319C238.682,151.282 234.315,144.448 233.16,137.044C226.606,135.264 219.712,134.311 212.602,134.311C200.131,134.311 188.343,137.227 177.875,142.414L190.707,165.457C197.357,162.367 204.784,160.632 212.602,160.632ZM160.633,212.595C160.633,195.018 169.367,179.474 182.73,170.075L169.19,147.441C153.506,157.915 141.823,173.892 136.894,192.624C142.727,197.321 146.464,204.521 146.464,212.596C146.464,220.676 142.726,227.876 136.894,232.574C141.823,251.305 153.506,267.282 169.19,277.762L182.73,255.128C169.367,245.722 160.633,230.184 160.633,212.595ZM212.602,264.568C204.785,264.568 197.358,262.834 190.707,259.738L177.875,282.781C188.343,287.972 200.13,290.885 212.602,290.885C219.711,290.885 226.606,289.939 233.16,288.156C234.314,280.747 238.681,273.913 245.674,269.883C252.661,265.846 260.76,265.479 267.74,268.172C280.927,255.084 289.483,237.342 290.735,217.615L264.363,217.206C262.035,243.749 239.755,264.568 212.602,264.568Z" style="fill:white;fill-rule:nonzero;"/>
            </g>
        </g>
        <g transform="matrix(4.61538,0,0,4.61538,1207.7,1658.1)">
            <g>
                <path d="M32.253,0.21C29.404,7.194 27.674,11.769 24.503,18.546C26.447,20.607 28.837,22.999 32.714,25.71C28.546,23.995 25.705,22.278 23.581,20.491C19.522,28.961 13.158,41.022 0.253,64.21C10.393,58.356 18.255,54.744 25.581,53.366C25.267,52.015 25.1,50.547 25.112,49.022L25.12,48.702C25.281,42.204 28.662,37.207 32.667,37.546C36.671,37.885 39.789,43.43 39.628,49.929C39.597,51.153 39.455,52.329 39.214,53.421C46.461,54.839 54.248,58.434 64.253,64.21C62.28,60.578 60.513,57.305 58.831,54.186C56.182,52.133 53.42,49.462 47.784,46.569C51.658,47.576 54.434,48.74 56.596,50.038C39.498,18.203 38.116,13.97 32.253,0.21Z" style="fill:rgb(23,147,209);fill-rule:nonzero;"/>
                <path id="path2522" d="M50.266,38.249C36.394,19.422 33.179,4.247 32.364,0.624C39.764,17.691 39.713,17.901 50.266,38.249Z" style="fill:white;fill-opacity:0.16;fill-rule:nonzero;"/>
                <path d="M32.378,0.46C32.018,1.344 31.678,2.207 31.346,3.022C30.982,3.917 30.628,4.779 30.284,5.616C29.94,6.454 29.591,7.247 29.253,8.054C28.914,8.86 28.599,9.658 28.253,10.46C27.907,11.262 27.527,12.073 27.159,12.897C26.791,13.722 26.407,14.555 26.003,15.429C25.599,16.302 25.175,17.23 24.721,18.179C24.66,18.307 24.597,18.455 24.534,18.585C26.473,20.639 28.864,23.012 32.721,25.71C28.554,23.995 25.721,22.278 23.596,20.491C23.486,20.717 23.398,20.916 23.284,21.147C22.864,22.018 22.413,22.88 21.94,23.835C21.827,24.059 21.744,24.262 21.628,24.491C21.127,25.495 20.602,26.534 20.034,27.647C19.921,27.867 19.806,28.049 19.69,28.272C19.347,28.939 18.25,31.042 17.128,33.179C16.473,34.427 15.959,35.449 15.221,36.835C15.012,37.233 14.582,38.03 14.471,38.241C22.596,33.668 31.362,27.025 47.284,32.71C46.487,31.2 45.722,29.791 45.034,28.46C44.346,27.128 43.722,25.889 43.128,24.71C42.534,23.531 41.985,22.419 41.471,21.366C40.958,20.313 40.482,19.319 40.034,18.366C39.586,17.413 39.149,16.496 38.753,15.616C38.356,14.737 37.987,13.886 37.628,13.054C37.269,12.221 36.933,11.396 36.596,10.585C36.26,9.774 35.924,8.995 35.596,8.179C35.454,7.823 35.333,7.445 35.19,7.085C34.302,5 33.431,2.933 32.378,0.46Z" style="fill:url(#_Linear1);fill-rule:nonzero;"/>
            </g>
        </g>
        <g transform="matrix(1.33367,0,0,1.33367,1638.48,1634.37)">
            <circle id="path907" cx="128" cy="128" r="98" style="fill:white;"/>
            <path id="path820-3-6" d="M128,16C66.559,16 16,66.559 16,128C16,189.441 66.559,240 128,240C189.441,240 240,189.441 240,128C240,66.559 189.441,16 128,16ZM128,30C128,30 128.001,30 128.001,30C181.762,30 226,74.239 226,128L226,128C226,181.761 181.762,226 128.001,226C128.001,226 128,226 128,226C99.72,225.953 72.802,213.668 54.237,192.335C61.298,187.228 72.877,188.532 87.109,190.139C94.044,190.949 101.942,191.855 110.117,192.037C132.941,192.182 157.524,187.967 172.676,181.339C182.479,177.079 188.735,174.243 192.654,170.678C194.064,169.51 194.796,167.614 195.558,165.574L196.093,164.225C196.727,162.571 197.657,159.086 198.067,157.176C198.231,156.334 198.424,155.511 197.728,154.973C197.092,154.481 195.63,155.363 195.63,155.363C188.976,159.367 172.344,166.952 156.793,167.276C137.486,167.665 98.367,147.732 94.314,145.626C91.602,139.167 88.89,132.705 86.138,126.262C114.125,144.702 137.34,154.896 155.11,156.468C174.892,158.23 190.311,147.436 197.004,142.945C197.88,142.363 198.755,141.711 199.559,141.084L199.563,141.084C199.706,140.972 200.042,140.676 199.998,140.404C198.889,133.47 188.559,99.846 180.74,91.759C178.585,89.557 176.86,87.384 173.367,85.34C145.082,68.858 77.977,58.91 74.834,58.455C74.834,58.455 74.517,58.39 74.299,58.603C74.129,58.769 74.095,59.089 74.095,59.089C74.095,59.089 73.838,72.992 73.798,74.546C71.264,73.695 62.803,70.952 50.85,67.758C69.374,43.988 97.864,30.045 128,30ZM148.426,86.851C148.902,86.843 149.38,86.848 149.86,86.863C165.677,87.429 178.107,100.781 177.564,116.581C177.266,124.246 174.058,131.36 168.467,136.562C162.859,141.829 155.56,144.537 147.855,144.278C132.055,143.696 119.64,130.371 120.169,114.557C120.454,106.892 123.661,99.778 129.266,94.56C134.523,89.652 141.281,86.966 148.426,86.851L148.426,86.851ZM148.615,95.309C143.621,95.371 138.922,97.25 135.277,100.668C131.389,104.315 129.097,109.256 128.935,114.605C128.563,125.659 137.216,134.956 148.245,135.362C153.608,135.524 158.72,133.627 162.631,129.981C166.536,126.317 168.783,121.378 168.954,116.049C169.326,104.998 160.672,95.711 149.619,95.319C149.283,95.307 148.948,95.305 148.615,95.309L148.615,95.309ZM152.895,105.37C157.806,105.37 161.785,108.013 161.785,111.302C161.785,114.559 157.803,117.216 152.895,117.216C147.983,117.216 144.017,114.559 144.017,111.302C144.017,108.013 147.983,105.37 152.895,105.37Z" style="fill:rgb(115,186,37);fill-rule:nonzero;"/>
        </g>
    </g>
    <defs>
        <linearGradient id="_Linear1" x1="0" y1="0" x2="1" y2="0" gradientUnits="userSpaceOnUse" gradientTransform="matrix(-8.6984,19.871,-19.871,-8.6984,32.3994,10.6321)"><stop offset="0" style="stop-color:white;stop-opacity:0"/><stop offset="1" style="stop-color:white;stop-opacity:0.27"/></linearGradient>
    </defs>
</svg>
