<?xml version="1.0" encoding="UTF-8" standalone="no"?>
<!DOCTYPE svg PUBLIC "-//W3C//DTD SVG 1.1//EN" "http://www.w3.org/Graphics/SVG/1.1/DTD/svg11.dtd">
<svg width="100%" height="100%" viewBox="0 0 2200 195" version="1.1" xmlns="http://www.w3.org/2000/svg" xmlns:xlink="http://www.w3.org/1999/xlink" xml:space="preserve" xmlns:serif="http://www.serif.com/" style="fill-rule:evenodd;clip-rule:evenodd;stroke-linejoin:round;stroke-miterlimit:2;">
    <g transform="matrix(1,0,0,1,4.71597e-05,7.75909)">
        <g transform="matrix(1,0,0,1,-54.9523,-161.18)">
            <path d="M168.38,169.85C159.981,164.076 149.021,161.182 135.5,161.182L83.154,161.182C79.009,161.182 76.719,163.255 76.284,167.396L55.019,300.876C54.798,302.187 55.126,303.386 56,304.476C56.869,305.569 57.962,306.112 59.271,306.112L84.135,306.112C88.496,306.112 90.893,304.044 91.333,299.896L97.221,263.911C97.436,262.167 98.203,260.749 99.512,259.657C100.82,258.567 102.456,257.853 104.419,257.527C106.382,257.203 108.233,257.04 109.981,257.04C111.724,257.04 113.795,257.15 116.198,257.367C118.595,257.585 120.123,257.691 120.778,257.691C139.534,257.691 154.256,252.406 164.945,241.825C175.629,231.248 180.977,216.581 180.977,197.821C180.977,184.953 176.775,175.629 168.38,169.846L168.38,169.85ZM141.39,209.93C140.296,217.565 137.464,222.579 132.884,224.979C128.303,227.382 121.76,228.576 113.255,228.576L102.458,228.904L108.021,193.897C108.455,191.5 109.872,190.3 112.273,190.3L118.491,190.3C127.211,190.3 133.54,191.557 137.466,194.061C141.39,196.571 142.699,201.863 141.39,209.93Z" style="fill:rgb(0,48,135);fill-rule:nonzero;"/>
        </g>
        <g transform="matrix(1,0,0,1,-54.9523,-161.18)">
            <path d="M720.79,161.18L696.582,161.18C694.177,161.18 692.761,162.38 692.329,164.779L671.062,300.879L670.734,301.533C670.734,302.629 671.171,303.66 672.045,304.642C672.913,305.621 674.008,306.113 675.316,306.113L696.911,306.113C701.049,306.113 703.34,304.045 703.782,299.898L725.047,166.088L725.047,165.763C725.045,162.71 723.623,161.183 720.79,161.183L720.79,161.18Z" style="fill:rgb(0,156,222);fill-rule:nonzero;"/>
        </g>
        <g transform="matrix(1,0,0,1,-54.9523,-161.18)">
            <path d="M428.31,213.86C428.31,212.772 427.872,211.734 427.004,210.754C426.129,209.773 425.147,209.28 424.059,209.28L398.868,209.28C396.464,209.28 394.502,210.376 392.978,212.551L358.299,263.591L343.905,214.516C342.809,211.028 340.412,209.28 336.707,209.28L312.167,209.28C311.074,209.28 310.092,209.772 309.225,210.754C308.35,211.734 307.916,212.773 307.916,213.86C307.916,214.3 310.043,220.731 314.295,233.163C318.547,245.597 323.128,259.011 328.036,273.407C332.944,287.801 335.504,295.438 335.724,296.305C317.838,320.735 308.898,333.823 308.898,335.565C308.898,338.403 310.315,339.819 313.151,339.819L338.342,339.819C340.741,339.819 342.703,338.731 344.232,336.548L427.659,216.148C428.092,215.715 428.31,214.955 428.31,213.859L428.31,213.86Z" style="fill:rgb(0,48,135);fill-rule:nonzero;"/>
        </g>
        <g transform="matrix(1,0,0,1,-54.9523,-161.18)">
            <path d="M662.89,209.28L638.025,209.28C634.969,209.28 633.121,212.879 632.466,220.077C626.789,211.357 616.435,206.989 601.383,206.989C585.679,206.989 572.318,212.879 561.306,224.657C550.29,236.436 544.785,250.288 544.785,266.208C544.785,279.079 548.546,289.329 556.07,296.96C563.594,304.599 573.681,308.411 586.336,308.411C592.659,308.411 599.093,307.1 605.636,304.485C612.18,301.868 617.301,298.38 621.015,294.016C621.015,294.235 620.793,295.214 620.361,296.958C619.921,298.706 619.706,300.018 619.706,300.884C619.706,304.378 621.12,306.118 623.96,306.118L646.536,306.118C650.674,306.118 653.077,304.05 653.729,299.902L667.144,214.513C667.359,213.204 667.033,212.006 666.163,210.914C665.287,209.827 664.199,209.28 662.89,209.28ZM620.196,273.732C614.634,279.185 607.927,281.911 600.076,281.911C593.748,281.911 588.627,280.169 584.699,276.677C580.771,273.194 578.808,268.395 578.808,262.281C578.808,254.217 581.535,247.397 586.989,241.835C592.435,236.273 599.203,233.492 607.273,233.492C613.375,233.492 618.447,235.292 622.485,238.889C626.517,242.488 628.54,247.452 628.54,253.777C628.539,261.628 625.757,268.282 620.196,273.732Z" style="fill:rgb(0,156,222);fill-rule:nonzero;"/>
        </g>
        <g transform="matrix(1,0,0,1,-54.9523,-161.18)">
            <path d="M291.23,209.28L266.366,209.28C263.308,209.28 261.458,212.879 260.803,220.077C254.914,211.357 244.553,206.989 229.722,206.989C214.018,206.989 200.657,212.879 189.644,224.657C178.628,236.436 173.123,250.288 173.123,266.208C173.123,279.079 176.886,289.329 184.411,296.96C191.936,304.599 202.021,308.411 214.673,308.411C220.777,308.411 227.106,307.1 233.648,304.485C240.191,301.868 245.426,298.38 249.352,294.016C248.477,296.632 248.043,298.923 248.043,300.884C248.043,304.378 249.46,306.118 252.296,306.118L274.87,306.118C279.011,306.118 281.413,304.05 282.068,299.902L295.481,214.513C295.696,213.204 295.369,212.006 294.5,210.914C293.627,209.827 292.538,209.28 291.23,209.28ZM248.535,273.894C242.972,279.245 236.153,281.911 228.088,281.911C221.759,281.911 216.688,280.169 212.874,276.677C209.055,273.194 207.148,268.395 207.148,262.281C207.148,254.217 209.873,247.397 215.328,241.835C220.777,236.273 227.539,233.492 235.612,233.492C241.716,233.492 246.787,235.292 250.826,238.89C254.858,242.489 256.878,247.453 256.878,253.778C256.878,261.847 254.097,268.556 248.535,273.894Z" style="fill:rgb(0,48,135);fill-rule:nonzero;"/>
        </g>
        <g transform="matrix(1,0,0,1,-54.9523,-161.18)">
            <path d="M540.04,169.85C531.642,164.076 520.684,161.182 507.161,161.182L455.141,161.182C450.777,161.182 448.376,163.255 447.944,167.396L426.678,300.876C426.457,302.188 426.784,303.387 427.659,304.477C428.524,305.569 429.621,306.112 430.93,306.112L457.756,306.112C460.373,306.112 462.117,304.696 462.991,301.86L468.881,263.911C469.097,262.167 469.861,260.749 471.171,259.657C472.48,258.567 474.114,257.854 476.079,257.527C478.041,257.203 479.891,257.04 481.641,257.04C483.384,257.04 485.455,257.15 487.855,257.367C490.254,257.585 491.786,257.691 492.435,257.691C511.195,257.691 525.914,252.406 536.603,241.825C547.291,231.248 552.634,216.581 552.634,197.821C552.636,184.954 548.435,175.63 540.04,169.847L540.04,169.85ZM506.506,223.67C501.707,226.941 494.509,228.576 484.914,228.576L474.444,228.904L480.006,193.897C480.438,191.5 481.855,190.3 484.258,190.3L490.145,190.3C494.943,190.3 498.759,190.518 501.599,190.953C504.43,191.393 507.161,192.752 509.778,195.042C512.396,197.333 513.704,200.66 513.704,205.022C513.704,214.182 511.302,220.397 506.506,223.67Z" style="fill:rgb(0,156,222);fill-rule:nonzero;"/>
        </g>
    </g>
    <g transform="matrix(0.388314,0,0,0.388314,750.288,0)">
        <path d="M40,0L740,0C762.092,0 780,17.909 780,40L780,460C780,482.092 762.092,500 740,500L40,500C17.909,500 0,482.092 0,460L0,40C0,17.909 17.909,0 40,0Z" style="fill:rgb(14,69,149);fill-rule:nonzero;"/>
        <path d="M293.2,348.73L326.561,152.97L379.921,152.97L346.536,348.73L293.2,348.73ZM539.31,157.19C528.74,153.224 512.173,148.968 491.488,148.968C438.763,148.968 401.623,175.518 401.308,213.571C401.009,241.701 427.822,257.393 448.06,266.757C468.831,276.352 475.812,282.471 475.714,291.04C475.583,304.161 459.128,310.156 443.792,310.156C422.435,310.156 411.089,307.189 393.565,299.88L386.689,296.77L379.2,340.593C391.663,346.057 414.71,350.791 438.638,351.036C494.728,351.036 531.138,324.79 531.554,284.154C531.753,261.885 517.538,244.938 486.753,230.966C468.103,221.911 456.681,215.867 456.802,206.698C456.802,198.561 466.47,189.859 487.359,189.859C504.808,189.589 517.449,193.394 527.297,197.359L532.078,199.619L539.31,157.19M676.62,152.967L635.388,152.967C622.615,152.967 613.056,156.454 607.447,169.201L528.203,348.601L584.234,348.601C584.234,348.601 593.394,324.478 595.466,319.183C601.591,319.183 656.021,319.267 663.804,319.267C665.4,326.12 670.294,348.601 670.294,348.601L719.808,348.601L676.62,152.961L676.62,152.967ZM611.202,279.377C615.614,268.098 632.462,224.654 632.462,224.654C632.146,225.176 636.841,213.32 639.536,205.97L643.141,222.849C643.141,222.849 653.36,269.578 655.495,279.377L611.202,279.377ZM247.902,152.967L195.662,286.467L190.095,259.337C180.37,228.064 150.07,194.182 116.197,177.219L163.963,348.419L220.419,348.355L304.423,152.965L247.902,152.965" style="fill:white;fill-rule:nonzero;"/>
        <path d="M146.92,152.96L60.879,152.96L60.198,157.033C127.136,173.237 171.428,212.396 189.818,259.443L171.108,169.483C167.878,157.088 158.511,153.389 146.922,152.956" style="fill:rgb(242,174,20);fill-rule:nonzero;"/>
    </g>
    <g transform="matrix(0.388314,0,0,0.388314,1898.91,-0.000388314)">
        <path d="M40,0.001L740,0.001C762.092,0.001 780,17.91 780,40.001L780,460.001C780,482.093 762.092,500.001 740,500.001L40,500.001C17.909,500.001 0,482.093 0,460.001L0,40.001C0,17.91 17.909,0.001 40,0.001Z" style="fill:rgb(37,87,214);fill-rule:nonzero;"/>
        <path d="M0.253,235.69L37.694,235.69L46.136,216.18L65.036,216.18L73.456,235.69L147.124,235.69L147.124,220.775L153.7,235.755L191.943,235.755L198.519,220.553L198.519,235.691L381.599,235.691L381.514,203.665L385.056,203.665C387.535,203.748 388.26,203.967 388.26,207.891L388.26,235.691L482.949,235.691L482.949,228.236C490.588,232.156 502.467,235.691 518.097,235.691L557.933,235.691L566.458,216.181L585.358,216.181L593.695,235.691L670.46,235.691L670.46,217.159L682.086,235.691L743.601,235.691L743.601,113.181L682.721,113.181L682.721,127.649L674.199,113.181L611.728,113.181L611.728,127.649L603.9,113.181L519.52,113.181C505.397,113.181 492.981,115.07 482.951,120.334L482.951,113.181L424.722,113.181L424.722,120.334C418.339,114.908 409.643,113.181 399.972,113.181L187.232,113.181L172.958,144.822L158.299,113.181L91.294,113.181L91.294,127.649L83.932,113.181L26.787,113.181L0.248,171.427L0.248,235.688L0.251,235.688L0.253,235.69ZM236.593,218.02L214.129,218.02L214.046,149.226L182.271,218.019L163.031,218.019L131.173,149.165L131.173,218.019L86.603,218.019L78.183,198.427L32.556,198.427L24.051,218.019L0.25,218.019L39.491,130.182L72.05,130.182L109.319,213.346L109.319,130.182L145.085,130.182L173.763,189.769L200.107,130.182L236.592,130.182L236.593,218.02ZM70.693,180.197L55.695,145.18L40.78,180.197L70.693,180.197ZM325.993,218.018L252.79,218.018L252.79,130.181L325.993,130.181L325.993,148.472L274.704,148.472L274.704,164.305L324.764,164.305L324.764,182.31L274.703,182.31L274.703,199.852L325.992,199.852L325.993,218.018ZM429.153,153.838C429.153,167.842 419.398,175.078 413.714,177.25C418.508,178.998 422.605,182.088 424.554,184.647C427.648,189.016 428.182,192.918 428.182,200.763L428.182,218.018L406.078,218.018L405.995,206.941C405.995,201.656 406.523,194.055 402.537,189.829C399.335,186.739 394.454,186.069 386.564,186.069L363.041,186.069L363.041,218.019L341.127,218.019L341.127,130.181L391.528,130.181C402.727,130.181 410.979,130.464 418.063,134.388C424.996,138.312 429.153,144.04 429.153,153.838ZM401.454,166.88C398.441,168.632 394.881,168.69 390.613,168.69L363.993,168.69L363.993,149.18L390.975,149.18C394.793,149.18 398.779,149.344 401.368,150.764C404.21,152.044 405.969,154.767 405.969,158.529C405.969,162.369 404.295,165.458 401.454,166.88ZM464.298,218.018L441.94,218.018L441.94,130.181L464.298,130.181L464.298,218.018ZM723.858,218.018L692.805,218.018L651.27,152.091L651.27,218.018L606.642,218.018L598.115,198.426L552.594,198.426L544.323,218.018L518.675,218.018C508.026,218.018 494.537,215.761 486.902,208.303C479.201,200.845 475.194,190.743 475.194,174.77C475.194,161.743 477.589,149.834 487.006,140.423C494.091,133.413 505.186,130.181 520.286,130.181L541.501,130.181L541.501,149.002L520.73,149.002C512.733,149.002 508.216,150.142 503.868,154.205C500.133,157.904 497.57,164.895 497.57,174.102C497.57,183.512 499.521,190.298 503.593,194.73C506.966,198.206 513.099,199.26 518.865,199.26L528.707,199.26L559.591,130.184L592.426,130.184L629.528,213.265L629.528,130.185L662.894,130.185L701.413,191.359L701.413,130.185L723.858,130.185L723.858,218.018ZM590.658,180.198L575.493,145.181L560.412,180.198L590.658,180.198ZM779.698,358.278C774.376,365.735 764.004,369.516 749.962,369.516L707.643,369.516L707.643,350.676L749.79,350.676C753.971,350.676 756.896,350.149 758.658,348.501C760.323,347.027 761.263,344.947 761.249,342.772C761.249,340.211 760.185,338.179 758.572,336.961C756.982,335.619 754.668,335.011 750.85,335.011C730.276,334.341 704.606,335.619 704.606,307.817C704.606,295.075 713.049,281.661 736.045,281.661L779.694,281.661L779.694,264.182L739.137,264.182C726.9,264.182 718.008,266.992 711.712,271.356L711.712,264.181L651.727,264.181C642.132,264.181 630.873,266.46 625.548,271.356L625.548,264.181L518.428,264.181L518.428,271.356C509.904,265.464 495.52,264.181 488.879,264.181L418.223,264.181L418.223,271.356C411.478,265.098 396.481,264.181 387.337,264.181L308.26,264.181L290.166,282.945L273.217,264.181L155.087,264.181L155.087,386.771L270.987,386.771L289.633,367.709L307.198,386.771L378.64,386.832L378.64,357.994L385.661,357.994C395.14,358.134 406.321,357.766 416.184,353.682L416.184,386.767L475.112,386.767L475.112,354.815L477.954,354.815C481.582,354.815 481.939,354.959 481.939,358.43L481.939,386.763L660.949,386.763C672.313,386.763 684.193,383.977 690.773,378.918L690.773,386.763L747.553,386.763C759.368,386.763 770.907,385.176 779.687,381.114L779.689,358.274L779.698,358.278ZM424.758,311.123C424.758,335.529 405.753,340.568 386.599,340.568L359.256,340.568L359.256,370.037L316.665,370.037L289.681,340.951L261.639,370.037L174.837,370.037L174.837,282.178L262.972,282.178L289.933,310.977L317.808,282.178L387.829,282.178C405.218,282.178 424.758,286.791 424.758,311.123ZM250.538,351.557L196.66,351.557L196.66,334.077L244.77,334.077L244.77,316.151L196.66,316.151L196.66,300.177L251.599,300.177L275.568,325.781L250.538,351.557ZM337.348,361.617L303.704,325.828L337.348,291.178L337.348,361.617ZM387.105,322.551L358.787,322.551L358.787,300.177L387.359,300.177C395.271,300.177 400.763,303.267 400.763,310.949C400.763,318.548 395.525,322.551 387.105,322.551ZM535.465,282.178L608.603,282.178L608.603,300.348L557.288,300.348L557.288,316.321L607.35,316.321L607.35,334.247L557.288,334.247L557.288,351.727L608.602,351.807L608.602,370.037L535.463,370.037L535.465,282.178ZM507.346,329.207C512.224,330.932 516.211,334.023 518.08,336.582C521.175,340.873 521.622,344.876 521.711,352.619L521.711,370.037L499.709,370.037L499.709,359.045C499.709,353.759 500.24,345.933 496.167,341.847C492.966,338.7 488.084,337.948 480.091,337.948L456.671,337.948L456.671,370.038L434.651,370.038L434.651,282.179L485.245,282.179C496.338,282.179 504.418,282.649 511.611,286.325C518.526,290.329 522.877,295.812 522.877,305.836C522.876,319.858 513.113,327.014 507.346,329.207ZM494.961,318.1C492.029,319.767 488.405,319.911 484.143,319.911L457.521,319.911L457.521,300.179L484.503,300.179C488.405,300.179 492.31,300.259 494.961,301.766C497.801,303.189 499.499,305.912 499.499,309.669C499.499,313.427 497.8,316.455 494.961,318.1ZM692.781,323.697C697.051,327.926 699.335,333.268 699.335,342.31C699.335,361.21 687.013,370.033 664.91,370.033L622.23,370.033L622.23,351.193L664.74,351.193C668.897,351.193 671.844,350.668 673.69,349.018C675.198,347.66 676.279,345.685 676.279,343.289C676.279,340.728 675.109,338.697 673.604,337.478C671.929,336.138 669.618,335.529 665.801,335.529C645.308,334.859 619.644,336.138 619.644,308.337C619.644,295.593 627.999,282.179 650.974,282.179L694.906,282.179L694.906,300.879L654.708,300.879C650.724,300.879 648.133,301.024 645.929,302.466C643.529,303.888 642.639,306 642.639,308.785C642.639,312.099 644.676,314.355 647.434,315.331C649.745,316.101 652.229,316.326 655.96,316.326L667.757,316.632C679.652,316.908 687.818,318.88 692.781,323.697ZM779.736,300.177L739.798,300.177C735.812,300.177 733.16,300.321 730.931,301.764C728.619,303.187 727.729,305.298 727.729,308.086C727.729,311.4 729.68,313.654 732.52,314.63C734.832,315.401 737.315,315.626 740.964,315.626L752.842,315.93C764.825,316.214 772.824,318.188 777.702,323.002C778.593,323.672 779.124,324.424 779.735,325.177L779.735,300.177L779.736,300.177Z" style="fill:white;fill-rule:nonzero;"/>
    </g>
    <g transform="matrix(0.388314,0,0,0.388314,1133.37,8.52651e-14)">
        <path d="M40,0L740,0C762.092,0 780,17.909 780,40L780,460C780,482.092 762.092,500 740,500L40,500C17.909,500 0,482.092 0,460L0,40C0,17.909 17.909,0 40,0Z" style="fill:rgb(22,54,111);fill-rule:nonzero;"/>
        <path d="M449.01,250C449.01,349.143 368.64,429.5 269.5,429.5C170.36,429.5 90,349.139 90,250C90,150.867 170.362,70.5 269.5,70.5C368.637,70.5 449.01,150.87 449.01,250" style="fill:rgb(217,34,42);fill-rule:nonzero;"/>
        <path d="M510.49,70.496C464.11,70.496 421.847,88.092 389.99,116.962C383.5,122.851 377.442,129.199 371.865,135.958L408.131,135.958C413.097,141.995 417.667,148.346 421.816,154.971L358.181,154.971C354.354,161.092 350.901,167.44 347.84,173.979L432.152,173.979C435.045,180.164 437.583,186.509 439.752,192.983L340.24,192.983C338.149,199.218 336.408,205.564 335.023,211.992L444.963,211.992C447.652,224.482 449.007,237.223 449.004,250C449.004,269.934 445.75,289.113 439.75,307.02L340.238,307.02C342.402,313.499 344.938,319.845 347.833,326.03L432.15,326.03C429.086,332.57 425.63,338.919 421.803,345.043L358.178,345.043C362.332,351.672 366.908,358.022 371.863,364.039L408.121,364.039C402.551,370.811 396.491,377.165 389.991,383.051C421.851,411.918 464.109,429.505 510.491,429.505C609.629,429.504 690.001,349.143 690.001,250.005C690.001,150.875 609.631,70.505 510.491,70.505" style="fill:rgb(238,159,45);fill-rule:nonzero;"/>
        <path d="M666.08,350.06C666.08,346.859 668.672,344.259 671.876,344.259C675.08,344.259 677.672,346.859 677.672,350.06C677.672,353.259 675.08,355.859 671.876,355.859C668.674,355.858 666.079,353.261 666.08,350.06ZM671.876,354.468C674.311,354.467 676.283,352.493 676.284,350.06C676.284,347.627 674.312,345.656 671.88,345.656L671.876,345.656C669.447,345.652 667.476,347.619 667.472,350.048L667.472,350.061C667.469,352.493 669.439,354.467 671.871,354.469C671.872,354.468 671.874,354.468 671.876,354.468ZM671.094,352.608L669.905,352.608L669.905,347.514L672.054,347.514C672.504,347.514 672.962,347.514 673.359,347.768C673.772,348.046 674.005,348.538 674.005,349.046C674.005,349.616 673.668,350.15 673.122,350.358L674.059,352.608L672.744,352.608L671.964,350.592L671.094,350.592L671.094,352.608ZM671.093,349.718L671.751,349.718C671.997,349.718 672.255,349.738 672.476,349.618C672.672,349.493 672.772,349.259 672.772,349.034C672.772,348.839 672.652,348.614 672.484,348.518C672.277,348.387 671.948,348.417 671.726,348.417L671.093,348.417L671.093,349.718ZM227.593,269.655C225.548,269.418 224.648,269.354 223.243,269.354C212.198,269.354 206.606,273.143 206.606,280.622C206.606,285.233 209.336,288.168 213.593,288.168C221.531,288.168 227.252,280.608 227.593,269.655ZM241.764,302.651L225.618,302.651L225.989,294.975C221.064,301.042 214.493,303.925 205.564,303.925C195.002,303.925 187.76,295.675 187.76,283.696C187.76,265.672 200.356,255.156 221.977,255.156C224.185,255.156 227.018,255.356 229.918,255.725C230.523,253.284 230.681,252.239 230.681,250.925C230.681,246.017 227.285,244.187 218.181,244.187C208.648,244.079 200.785,246.458 197.556,247.521C197.76,246.291 200.256,230.863 200.256,230.863C209.968,228.017 216.373,226.946 223.581,226.946C240.314,226.946 249.177,234.458 249.161,248.658C249.193,252.463 248.564,257.158 247.581,263.329C245.889,274.06 242.261,297.047 241.764,302.651ZM179.606,302.651L160.118,302.651L171.281,232.654L146.356,302.651L133.076,302.651L131.436,233.054L119.702,302.651L101.46,302.651L116.698,211.597L144.718,211.597L146.418,262.563L163.51,211.597L194.677,211.597L179.606,302.651M534.586,269.655C532.549,269.418 531.644,269.354 530.244,269.354C519.203,269.354 513.61,273.143 513.61,280.622C513.61,285.233 516.336,288.168 520.593,288.168C528.532,288.168 534.257,280.608 534.586,269.655ZM548.769,302.651L532.624,302.651L532.989,294.975C528.064,301.042 521.489,303.925 512.569,303.925C502.003,303.925 494.769,295.675 494.769,283.696C494.769,265.672 507.356,255.156 528.981,255.156C531.189,255.156 534.018,255.356 536.915,255.725C537.519,253.284 537.678,252.239 537.678,250.925C537.678,246.017 534.286,244.187 525.182,244.187C515.649,244.079 507.794,246.458 504.552,247.521C504.757,246.291 507.261,230.863 507.261,230.863C516.974,228.017 523.374,226.946 530.573,226.946C547.314,226.946 556.177,234.458 556.161,248.658C556.193,252.463 555.564,257.158 554.581,263.329C552.899,274.06 549.261,297.047 548.769,302.651ZM328.379,301.526C323.045,303.206 318.887,303.925 314.379,303.925C304.416,303.925 298.979,298.2 298.979,287.658C298.837,284.388 300.412,275.779 301.649,267.921C302.774,261.004 310.099,217.391 310.099,217.391L329.47,217.391L327.208,228.6L338.908,228.6L336.265,246.396L324.523,246.396C322.273,260.479 319.069,278.021 319.032,280.346C319.032,284.163 321.069,285.829 325.702,285.829C327.923,285.829 329.643,285.603 330.957,285.129L328.379,301.526M387.77,300.926C381.116,302.959 374.695,303.943 367.891,303.926C346.208,303.905 334.904,292.58 334.904,270.894C334.904,245.581 349.284,226.947 368.804,226.947C384.774,226.947 394.974,237.38 394.974,253.743C394.974,259.172 394.274,264.472 392.587,271.955L354.012,271.955C352.708,282.697 359.582,287.172 370.849,287.172C377.784,287.172 384.037,285.742 390.991,282.509L387.77,300.926ZM376.883,257.026C376.99,255.483 378.937,243.809 367.87,243.809C361.699,243.809 357.287,248.513 355.49,257.026L376.883,257.026ZM253.463,252.009C253.463,261.376 258.004,267.834 268.304,272.685C276.196,276.394 277.417,277.494 277.417,280.855C277.417,285.472 273.937,287.555 266.225,287.555C260.413,287.555 255.005,286.648 248.767,284.635C248.767,284.635 246.204,300.955 246.087,301.736C250.517,302.702 254.467,303.597 266.367,303.926C286.929,303.926 296.425,296.097 296.425,279.176C296.425,269.001 292.45,263.03 282.688,258.543C274.517,254.793 273.579,253.955 273.579,250.497C273.579,246.493 276.817,244.451 283.117,244.451C286.942,244.451 292.167,244.859 297.117,245.564L299.892,228.389C294.846,227.589 287.196,226.947 282.742,226.947C260.942,226.947 253.396,238.334 253.463,252.009M482.553,228.893C487.966,228.893 493.012,230.313 499.966,233.813L503.153,214.051C500.299,212.931 490.249,206.351 481.737,206.351C468.695,206.351 457.671,212.821 449.917,223.501C438.607,219.755 433.958,227.326 428.258,234.868L423.196,236.047C423.579,233.564 423.926,231.097 423.809,228.601L405.913,228.601C403.468,251.518 399.134,274.731 395.742,297.676L394.858,302.652L414.354,302.652C417.608,281.509 419.392,267.971 420.475,258.81L427.817,254.726C428.913,250.646 432.346,249.268 439.233,249.434C438.307,254.442 437.844,259.524 437.85,264.618C437.85,288.843 450.921,303.926 471.9,303.926C477.304,303.926 481.942,303.214 489.121,301.269L492.552,280.509C486.092,283.689 480.791,285.185 475.991,285.185C464.663,285.185 457.808,276.823 457.808,263.001C457.807,242.951 468.003,228.893 482.553,228.893" style="fill-rule:nonzero;"/>
        <path d="M185.21,297.24L165.719,297.24L176.889,227.252L151.964,297.24L138.682,297.24L137.04,227.652L125.307,297.24L107.064,297.24L122.302,206.198L150.322,206.198L151.11,262.56L170.014,206.198L200.281,206.198L185.21,297.24" style="fill:white;fill-rule:nonzero;"/>
        <path d="M647.52,211.6L643.201,237.908C637.871,230.896 632.147,225.821 624.589,225.821C614.755,225.821 605.805,233.275 599.947,244.246C591.789,242.554 583.35,239.683 583.35,239.683L583.346,239.75C584.004,233.617 584.266,229.875 584.208,228.604L566.308,228.604C563.871,251.521 559.538,274.734 556.151,297.679L555.258,302.655L574.75,302.655C577.383,285.558 579.4,271.362 580.883,260.104C587.542,254.087 590.875,248.837 597.604,249.187C594.625,256.393 592.879,264.691 592.879,273.204C592.879,291.717 602.246,303.929 616.413,303.929C623.554,303.929 629.033,301.467 634.379,295.759L633.467,302.643L651.9,302.643L666.742,211.6L647.52,211.6ZM623.15,285.542C616.516,285.542 613.167,280.633 613.167,270.945C613.167,256.392 619.438,246.07 628.279,246.07C634.974,246.07 638.599,251.174 638.599,260.578C638.6,275.259 632.23,285.542 623.15,285.542Z" style="fill-rule:nonzero;"/>
        <path d="M233.19,264.26C231.148,264.024 230.244,263.96 228.844,263.96C217.798,263.96 212.21,267.748 212.21,275.227C212.21,279.831 214.94,282.774 219.19,282.774C227.135,282.773 232.856,275.215 233.19,264.26ZM247.369,297.244L231.223,297.244L231.59,289.581C226.669,295.635 220.09,298.531 211.169,298.531C200.602,298.531 193.365,290.281 193.365,278.302C193.365,260.27 205.956,249.76 227.581,249.76C229.79,249.76 232.623,249.96 235.519,250.331C236.123,247.889 236.281,246.844 236.281,245.523C236.281,240.615 232.89,238.793 223.785,238.793C214.248,238.685 206.39,241.065 203.156,242.115C203.36,240.889 205.856,225.477 205.856,225.477C215.565,222.619 221.977,221.547 229.177,221.547C245.915,221.547 254.781,229.065 254.765,243.252C254.794,247.072 254.16,251.764 253.181,257.927C251.494,268.652 247.861,291.652 247.369,297.244ZM508.749,208.652L505.557,228.419C498.607,224.923 493.557,223.498 488.15,223.498C473.599,223.498 463.4,237.556 463.4,257.605C463.4,271.426 470.257,279.786 481.583,279.786C486.383,279.786 491.679,278.294 498.137,275.109L494.717,295.859C487.533,297.818 482.901,298.531 477.491,298.531C456.515,298.531 443.441,283.447 443.441,259.222C443.441,226.672 461.5,203.922 487.329,203.922C495.836,203.923 505.891,207.531 508.749,208.652M540.191,264.26C538.15,264.024 537.25,263.96 535.845,263.96C524.803,263.96 519.211,267.748 519.211,275.227C519.211,279.831 521.94,282.774 526.195,282.774C534.132,282.773 539.857,275.215 540.191,264.26ZM554.37,297.244L538.22,297.244L538.59,289.581C533.666,295.635 527.09,298.531 518.17,298.531C507.607,298.531 500.366,290.281 500.366,278.302C500.366,260.27 512.961,249.76 534.578,249.76C536.791,249.76 539.62,249.96 542.519,250.331C543.12,247.889 543.282,246.844 543.282,245.523C543.282,240.615 539.89,238.793 530.786,238.793C521.253,238.685 513.39,241.065 510.157,242.115C510.361,240.889 512.861,225.477 512.861,225.477C522.57,222.619 528.977,221.547 536.177,221.547C552.919,221.547 561.781,229.065 561.76,243.252C561.794,247.072 561.165,251.764 560.181,257.927C558.499,268.652 554.857,291.652 554.37,297.244ZM333.98,296.122C328.642,297.802 324.484,298.531 319.98,298.531C310.017,298.531 304.58,292.805 304.58,282.265C304.442,278.984 306.017,270.384 307.255,262.527C308.375,255.601 315.701,211.994 315.701,211.994L335.068,211.994L332.809,223.206L342.751,223.206L340.105,240.994L330.13,240.994C327.88,255.085 324.667,272.613 324.634,274.943C324.634,278.773 326.676,280.426 331.305,280.426C333.525,280.426 335.243,280.209 336.559,279.734L333.98,296.122M393.372,295.531C386.722,297.564 380.292,298.544 373.492,298.531C351.808,298.51 340.505,287.185 340.505,265.498C340.505,240.177 354.885,221.548 374.405,221.548C390.375,221.548 400.575,231.977 400.575,248.348C400.575,253.781 399.875,259.081 398.193,266.56L359.618,266.56C358.312,277.301 365.187,281.781 376.455,281.781C383.385,281.781 389.643,280.347 396.592,277.105L393.372,295.531ZM382.48,251.619C382.597,250.081 384.539,238.402 373.467,238.402C367.301,238.402 362.888,243.119 361.092,251.619L382.48,251.619ZM259.06,246.615C259.06,255.98 263.602,262.431 273.902,267.29C281.793,270.998 283.014,272.102 283.014,275.46C283.014,280.077 279.531,282.16 271.827,282.16C266.01,282.16 260.602,281.252 254.36,279.24C254.36,279.24 251.806,295.56 251.69,296.34C256.11,297.307 260.064,298.19 271.964,298.531C292.531,298.531 302.023,290.702 302.023,273.785C302.023,263.605 298.052,257.635 288.285,253.148C280.118,249.39 279.173,248.565 279.173,245.102C279.173,241.102 282.418,239.044 288.714,239.044C292.535,239.044 297.76,239.464 302.718,240.169L305.489,222.989C300.448,222.189 292.798,221.548 288.343,221.548C266.539,221.548 258.998,232.927 259.06,246.615M657.51,297.244L639.073,297.244L639.99,290.351C634.643,296.068 629.165,298.531 622.023,298.531C607.855,298.531 598.493,286.318 598.493,267.806C598.493,243.176 613.014,222.413 630.202,222.413C637.76,222.413 643.482,225.501 648.806,232.509L653.131,206.201L672.352,206.201L657.51,297.244ZM628.765,280.135C637.84,280.135 644.215,269.852 644.215,255.182C644.215,245.777 640.585,240.673 633.89,240.673C625.052,240.673 618.774,250.99 618.774,265.548C618.773,275.234 622.131,280.135 628.765,280.135ZM571.922,223.206C569.483,246.123 565.149,269.336 561.76,292.269L560.869,297.244L580.36,297.244C587.331,251.969 589.018,243.127 599.948,244.235C601.69,234.969 604.93,226.852 607.347,222.756C599.184,221.056 594.626,225.669 588.659,234.431C589.13,230.644 589.993,226.965 589.822,223.206L571.922,223.206M411.502,223.206C409.056,246.123 404.722,269.336 401.335,292.269L400.448,297.244L419.948,297.244C426.91,251.969 428.594,243.127 439.517,244.235C441.267,234.969 444.509,226.852 446.917,222.756C438.763,221.056 434.201,225.669 428.239,234.431C428.709,230.644 429.564,226.965 429.401,223.206L411.502,223.206M666.072,291.448C666.072,288.234 668.668,285.648 671.868,285.648C675.065,285.645 677.66,288.235 677.663,291.433L677.663,291.448C677.662,294.648 675.068,297.242 671.868,297.244C668.668,297.242 666.074,294.648 666.072,291.448ZM671.868,295.852C674.3,295.853 676.271,293.882 676.271,291.451L676.271,291.449C676.274,289.016 674.303,287.043 671.872,287.041L671.868,287.041C669.433,287.042 667.46,289.015 667.459,291.449C667.462,293.881 669.435,295.852 671.868,295.852ZM671.084,293.982L669.896,293.982L669.896,288.898L672.05,288.898C672.496,288.898 672.958,288.906 673.346,289.152C673.762,289.435 674,289.919 674,290.426C674,291.001 673.662,291.539 673.112,291.743L674.053,293.979L672.734,293.979L671.954,291.971L671.084,291.971L671.084,293.982ZM671.083,291.102L671.738,291.102C671.983,291.102 672.251,291.12 672.467,291.002C672.662,290.877 672.762,290.641 672.762,290.415C672.753,290.205 672.647,290.011 672.475,289.891C672.271,289.774 671.933,289.806 671.712,289.806L671.083,289.806L671.083,291.102Z" style="fill:white;fill-rule:nonzero;"/>
    </g>
    <g transform="matrix(0.387524,0,0,0.387524,1577.98,0.0116262)">
        <g transform="matrix(1,0,0,1,-158.785,-0.0200008)">
            <path d="M54.992,0C24.627,0 0,24.63 0,55.004L0,445.996C0,476.376 24.619,501 54.992,501L725.008,501C755.373,501 780,476.37 780,445.996L780,55.004C780,24.624 755.381,0 725.008,0L54.992,0Z" style="fill:rgb(77,77,77);"/>
        </g>
        <g transform="matrix(1,0,0,1,-158.785,-0.0200008)">
            <path d="M327.152,161.893C335.989,161.893 343.4,163.677 352.42,167.983L352.42,190.734C343.876,182.871 336.465,179.58 326.664,179.58C307.4,179.58 292.25,194.595 292.25,213.63C292.25,233.705 306.931,247.826 327.62,247.826C336.932,247.826 344.206,244.706 352.42,236.969L352.42,259.732C343.079,263.872 335.509,265.508 326.664,265.508C295.386,265.508 271.082,242.912 271.082,213.771C271.082,184.945 296.033,161.893 327.152,161.893ZM230.039,162.52C241.585,162.52 252.149,166.24 260.982,173.514L250.234,186.762C244.884,181.116 239.824,178.734 233.67,178.734C224.817,178.734 218.37,183.479 218.37,189.723C218.37,195.077 221.989,197.911 234.314,202.205C257.679,210.249 264.604,217.381 264.604,233.131C264.604,252.324 249.628,265.684 228.284,265.684C212.654,265.684 201.29,259.889 191.826,246.812L205.094,234.782C209.824,243.392 217.716,248.004 227.514,248.004C236.677,248.004 243.461,242.052 243.461,234.02C243.461,229.856 241.406,226.286 237.303,223.762C235.237,222.567 231.145,220.785 223.103,218.115C203.812,211.577 197.193,204.588 197.193,190.93C197.193,174.705 211.407,162.52 230.039,162.52ZM464.762,164.248L487.199,164.248L515.283,230.84L543.729,164.248L565.996,164.248L520.502,265.934L509.449,265.934L464.762,164.248ZM67.414,164.4L97.564,164.4C130.876,164.4 154.098,184.782 154.098,214.041C154.098,228.631 146.994,242.737 134.98,252.098C124.872,259.999 113.354,263.543 97.406,263.543L67.414,263.543L67.414,164.4ZM163.549,164.4L184.089,164.4L184.089,263.543L163.549,263.543L163.549,164.4ZM575.283,164.4L633.535,164.4L633.535,181.2L595.81,181.2L595.81,203.205L632.146,203.205L632.146,219.996L595.81,219.996L595.81,246.758L633.536,246.758L633.536,263.543L575.284,263.543L575.284,164.4L575.283,164.4ZM647.141,164.4L677.596,164.4C701.286,164.4 714.861,175.11 714.861,193.672C714.861,208.852 706.347,218.812 690.875,221.777L724.023,263.543L698.763,263.543L670.334,223.715L667.656,223.715L667.656,263.543L647.141,263.543L647.141,164.4ZM667.656,180.016L667.656,210.041L673.658,210.041C686.775,210.041 693.727,204.679 693.727,194.713C693.727,185.065 686.773,180.016 673.982,180.016L667.656,180.016ZM87.94,181.199L87.94,246.758L93.452,246.758C106.725,246.758 115.108,244.364 121.562,238.878C128.665,232.923 132.938,223.413 132.938,213.898C132.938,204.399 128.665,195.173 121.562,189.217C114.777,183.437 106.725,181.199 93.452,181.199L87.94,181.199Z" style="fill:white;"/>
        </g>
        <g transform="matrix(1,0,0,1,-158.785,-0.0200008)">
            <path d="M415.13,161.21C446.071,161.21 471.152,184.79 471.152,213.919L471.152,213.952C471.152,243.082 446.071,266.694 415.131,266.694C384.191,266.694 359.109,243.081 359.109,213.952L359.109,213.919C359.109,184.789 384.191,161.209 415.131,161.209L415.13,161.21ZM779.98,288.36C753.93,306.69 558.9,437.7 221.23,500.98L724.99,500.98C755.355,500.98 779.982,476.35 779.982,445.976L779.982,288.356L779.98,288.36Z" style="fill:rgb(244,114,22);"/>
        </g>
    </g>
</svg>
